<mxfile host="app.diagrams.net" modified="2020-11-24T01:58:10.117Z" agent="5.0 (Windows NT 10.0; Win64; x64) AppleWebKit/537.36 (KHTML, like Gecko) Chrome/86.0.4240.198 Safari/537.36" etag="ymPDEXKyDgjWKMGb4Tkm" version="13.10.1" type="github">
  <diagram id="c0CfXmYZk41Yy4vqQKAR" name="Page-1">
    <mxGraphModel dx="892" dy="891" grid="1" gridSize="10" guides="1" tooltips="1" connect="1" arrows="1" fold="1" page="1" pageScale="1" pageWidth="850" pageHeight="1100" math="0" shadow="0">
      <root>
        <mxCell id="0" />
        <mxCell id="1" parent="0" />
        <mxCell id="jJHSEbzzIDki0ik-LoFg-5" value="" style="image;html=1;image=img/lib/clip_art/networking/Router_128x128.png" vertex="1" parent="1">
          <mxGeometry x="620" y="330" width="120" height="110" as="geometry" />
        </mxCell>
        <mxCell id="jJHSEbzzIDki0ik-LoFg-6" value="" style="image;html=1;image=img/lib/clip_art/networking/Switch_128x128.png" vertex="1" parent="1">
          <mxGeometry x="280" y="190" width="140" height="110" as="geometry" />
        </mxCell>
        <mxCell id="jJHSEbzzIDki0ik-LoFg-7" value="" style="shape=image;html=1;verticalAlign=top;verticalLabelPosition=bottom;labelBackgroundColor=#ffffff;imageAspect=0;aspect=fixed;image=https://cdn4.iconfinder.com/data/icons/Upojenie_by_SoundForge/Icons/Outside.png" vertex="1" parent="1">
          <mxGeometry x="20" y="250" width="95" height="95" as="geometry" />
        </mxCell>
        <mxCell id="jJHSEbzzIDki0ik-LoFg-8" value="" style="endArrow=classic;html=1;" edge="1" parent="1">
          <mxGeometry width="50" height="50" relative="1" as="geometry">
            <mxPoint x="425" y="235" as="sourcePoint" />
            <mxPoint x="660" y="330" as="targetPoint" />
            <Array as="points">
              <mxPoint x="630" y="235" />
            </Array>
          </mxGeometry>
        </mxCell>
        <mxCell id="jJHSEbzzIDki0ik-LoFg-12" value="" style="endArrow=classic;html=1;" edge="1" parent="1" source="jJHSEbzzIDki0ik-LoFg-7">
          <mxGeometry width="50" height="50" relative="1" as="geometry">
            <mxPoint x="390" y="350" as="sourcePoint" />
            <mxPoint x="331" y="780" as="targetPoint" />
            <Array as="points">
              <mxPoint x="180" y="340" />
              <mxPoint x="331" y="320" />
            </Array>
          </mxGeometry>
        </mxCell>
        <mxCell id="jJHSEbzzIDki0ik-LoFg-13" value="" style="endArrow=classic;html=1;entryX=0.75;entryY=1;entryDx=0;entryDy=0;" edge="1" parent="1" target="jJHSEbzzIDki0ik-LoFg-6">
          <mxGeometry width="50" height="50" relative="1" as="geometry">
            <mxPoint x="385" y="780" as="sourcePoint" />
            <mxPoint x="440" y="300" as="targetPoint" />
          </mxGeometry>
        </mxCell>
        <mxCell id="jJHSEbzzIDki0ik-LoFg-15" value="" style="image;html=1;image=img/lib/clip_art/networking/Wireless_Router_128x128.png" vertex="1" parent="1">
          <mxGeometry x="295" y="790" width="130" height="120" as="geometry" />
        </mxCell>
        <mxCell id="jJHSEbzzIDki0ik-LoFg-16" value="" style="endArrow=classic;startArrow=classic;html=1;entryX=0;entryY=0.75;entryDx=0;entryDy=0;" edge="1" parent="1" target="jJHSEbzzIDki0ik-LoFg-5">
          <mxGeometry width="50" height="50" relative="1" as="geometry">
            <mxPoint x="560" y="540" as="sourcePoint" />
            <mxPoint x="590" y="410" as="targetPoint" />
          </mxGeometry>
        </mxCell>
        <mxCell id="jJHSEbzzIDki0ik-LoFg-17" value="" style="image;html=1;image=img/lib/clip_art/computers/Server_128x128.png" vertex="1" parent="1">
          <mxGeometry x="480" y="550" width="120" height="80" as="geometry" />
        </mxCell>
        <mxCell id="jJHSEbzzIDki0ik-LoFg-18" value="" style="shape=image;html=1;verticalAlign=top;verticalLabelPosition=bottom;labelBackgroundColor=#ffffff;imageAspect=0;aspect=fixed;image=https://cdn4.iconfinder.com/data/icons/logos-and-brands/512/272_Raspberry_Pi_logo-128.png" vertex="1" parent="1">
          <mxGeometry x="720" y="540" width="68" height="68" as="geometry" />
        </mxCell>
        <mxCell id="jJHSEbzzIDki0ik-LoFg-19" value="" style="endArrow=classic;startArrow=classic;html=1;exitX=0.25;exitY=0;exitDx=0;exitDy=0;" edge="1" parent="1" source="jJHSEbzzIDki0ik-LoFg-18">
          <mxGeometry width="50" height="50" relative="1" as="geometry">
            <mxPoint x="480" y="700" as="sourcePoint" />
            <mxPoint x="720" y="460" as="targetPoint" />
          </mxGeometry>
        </mxCell>
        <mxCell id="jJHSEbzzIDki0ik-LoFg-20" value="" style="aspect=fixed;html=1;points=[];align=center;image;fontSize=12;image=img/lib/azure2/general/Power.svg;" vertex="1" parent="1">
          <mxGeometry x="570" y="20" width="44" height="68" as="geometry" />
        </mxCell>
        <mxCell id="jJHSEbzzIDki0ik-LoFg-23" value="" style="points=[[0.015,0.015,0],[0.985,0.015,0],[0.985,0.985,0],[0.015,0.985,0],[0.25,0,0],[0.5,0,0],[0.75,0,0],[1,0.25,0],[1,0.5,0],[1,0.75,0],[0.75,1,0],[0.5,1,0],[0.25,1,0],[0,0.75,0],[0,0.5,0],[0,0.25,0]];verticalLabelPosition=bottom;html=1;verticalAlign=top;aspect=fixed;align=center;pointerEvents=1;shape=mxgraph.cisco19.rect;prIcon=ups;fillColor=#FAFAFA;strokeColor=#005073;" vertex="1" parent="1">
          <mxGeometry x="520" y="340" width="70" height="70" as="geometry" />
        </mxCell>
        <mxCell id="jJHSEbzzIDki0ik-LoFg-24" value="" style="endArrow=none;html=1;" edge="1" parent="1">
          <mxGeometry width="50" height="50" relative="1" as="geometry">
            <mxPoint x="560" y="330" as="sourcePoint" />
            <mxPoint x="580" y="110" as="targetPoint" />
            <Array as="points">
              <mxPoint x="573" y="230" />
            </Array>
          </mxGeometry>
        </mxCell>
        <mxCell id="jJHSEbzzIDki0ik-LoFg-31" value="" style="endArrow=none;html=1;" edge="1" parent="1">
          <mxGeometry width="50" height="50" relative="1" as="geometry">
            <mxPoint x="450" y="640" as="sourcePoint" />
            <mxPoint x="450" y="300" as="targetPoint" />
          </mxGeometry>
        </mxCell>
        <mxCell id="jJHSEbzzIDki0ik-LoFg-32" value="" style="endArrow=none;html=1;" edge="1" parent="1">
          <mxGeometry width="50" height="50" relative="1" as="geometry">
            <mxPoint x="450" y="300" as="sourcePoint" />
            <mxPoint x="790" y="300" as="targetPoint" />
          </mxGeometry>
        </mxCell>
        <mxCell id="jJHSEbzzIDki0ik-LoFg-33" value="" style="endArrow=none;html=1;" edge="1" parent="1">
          <mxGeometry width="50" height="50" relative="1" as="geometry">
            <mxPoint x="790" y="300" as="sourcePoint" />
            <mxPoint x="790" y="640" as="targetPoint" />
          </mxGeometry>
        </mxCell>
        <mxCell id="jJHSEbzzIDki0ik-LoFg-34" value="" style="endArrow=none;html=1;" edge="1" parent="1">
          <mxGeometry width="50" height="50" relative="1" as="geometry">
            <mxPoint x="450" y="640" as="sourcePoint" />
            <mxPoint x="790" y="640" as="targetPoint" />
          </mxGeometry>
        </mxCell>
        <mxCell id="jJHSEbzzIDki0ik-LoFg-35" value="" style="shape=image;html=1;verticalAlign=top;verticalLabelPosition=bottom;labelBackgroundColor=#ffffff;imageAspect=0;aspect=fixed;image=https://cdn1.iconfinder.com/data/icons/amenities-solid-ii/48/_desk2-128.png" vertex="1" parent="1">
          <mxGeometry x="50" y="780" width="178" height="178" as="geometry" />
        </mxCell>
        <mxCell id="jJHSEbzzIDki0ik-LoFg-36" value="Actor" style="shape=umlActor;verticalLabelPosition=bottom;verticalAlign=top;html=1;outlineConnect=0;" vertex="1" parent="1">
          <mxGeometry x="10" y="818" width="210" height="140" as="geometry" />
        </mxCell>
        <mxCell id="jJHSEbzzIDki0ik-LoFg-37" value="" style="endArrow=classic;startArrow=classic;html=1;" edge="1" parent="1" source="jJHSEbzzIDki0ik-LoFg-36" target="jJHSEbzzIDki0ik-LoFg-15">
          <mxGeometry width="50" height="50" relative="1" as="geometry">
            <mxPoint x="470" y="650" as="sourcePoint" />
            <mxPoint x="520" y="800" as="targetPoint" />
          </mxGeometry>
        </mxCell>
        <mxCell id="jJHSEbzzIDki0ik-LoFg-41" value="&lt;font style=&quot;font-size: 25px&quot;&gt;Main Router&lt;br&gt;&lt;/font&gt;" style="text;html=1;align=center;verticalAlign=middle;resizable=0;points=[];autosize=1;" vertex="1" parent="1">
          <mxGeometry x="285" y="920" width="150" height="20" as="geometry" />
        </mxCell>
        <mxCell id="jJHSEbzzIDki0ik-LoFg-43" value="&lt;font style=&quot;font-size: 25px&quot;&gt;Me lol&lt;br&gt;&lt;/font&gt;" style="text;html=1;align=center;verticalAlign=middle;resizable=0;points=[];autosize=1;" vertex="1" parent="1">
          <mxGeometry x="30" y="740" width="80" height="20" as="geometry" />
        </mxCell>
        <mxCell id="jJHSEbzzIDki0ik-LoFg-46" value="&lt;font style=&quot;font-size: 18px&quot;&gt;Slave Router&lt;/font&gt;" style="text;html=1;align=center;verticalAlign=middle;resizable=0;points=[];autosize=1;" vertex="1" parent="1">
          <mxGeometry x="620" y="430" width="120" height="20" as="geometry" />
        </mxCell>
        <mxCell id="jJHSEbzzIDki0ik-LoFg-47" value="&lt;font style=&quot;font-size: 18px&quot;&gt;Raspberry Pi&lt;/font&gt;" style="text;html=1;align=center;verticalAlign=middle;resizable=0;points=[];autosize=1;" vertex="1" parent="1">
          <mxGeometry x="668" y="608" width="120" height="20" as="geometry" />
        </mxCell>
        <mxCell id="jJHSEbzzIDki0ik-LoFg-48" value="&lt;font style=&quot;font-size: 18px&quot;&gt;Homelab&lt;/font&gt;" style="text;html=1;strokeColor=none;fillColor=none;align=center;verticalAlign=middle;whiteSpace=wrap;rounded=0;" vertex="1" parent="1">
          <mxGeometry x="480" y="520" width="40" height="20" as="geometry" />
        </mxCell>
        <mxCell id="jJHSEbzzIDki0ik-LoFg-49" value="&lt;font style=&quot;font-size: 18px&quot;&gt;Unmanaged Switch&lt;br&gt;&lt;/font&gt;" style="text;html=1;strokeColor=none;fillColor=none;align=center;verticalAlign=middle;whiteSpace=wrap;rounded=0;" vertex="1" parent="1">
          <mxGeometry x="290" y="170" width="120" height="20" as="geometry" />
        </mxCell>
        <mxCell id="jJHSEbzzIDki0ik-LoFg-50" value="&lt;font style=&quot;font-size: 18px&quot;&gt;The great outdoors&lt;br&gt;&lt;/font&gt;" style="text;html=1;strokeColor=none;fillColor=none;align=center;verticalAlign=middle;whiteSpace=wrap;rounded=0;" vertex="1" parent="1">
          <mxGeometry x="2.5" y="375" width="112.5" height="20" as="geometry" />
        </mxCell>
        <mxCell id="jJHSEbzzIDki0ik-LoFg-53" value="" style="shape=image;verticalLabelPosition=bottom;labelBackgroundColor=#ffffff;verticalAlign=top;aspect=fixed;imageAspect=0;image=data:image/png,iVBORw0KGgoAAAANSUhEUgAAAggAAAEgCAYAAADR64ulAAAgAElEQVR4Xuy9WZckSXKd6RGRWdXd1QsawAAP/K0z3EESIAlwCBDgjoU888N4+ETgkOgGuraMiDlXzT7za9dFbImMrKpuZNTJcnczNV1ERa5cFV3s7v/7i//2/Pz8fNG//OOaPp/sZqavnj+S5qbAy2Wph56/u7tbknhddP3p6Wn84+/+/n71e5X++fHypPwul5Gn7j0+Pq7y97qs6i7ZRNv1cy2v+7KeZft0ca6D56N6eXuXdl0kh6ne06NXmfBdbb/e1/fpN9f1nfbqmqeXBLfyznuVnqheynOrP8ubNxfvLg8Pby4PDw/jztPTuu3H8si+WfWseu5oNqfTVf23lUmXvpPxa6Wv6zSs40SbJcdbWZ6VwYkCDyd9nzqk7MGLxB9s8Wxfvb+NyC4cjffFclZvujZ117sanE3fyYb6g/n8Th+BX9iXyDWF53WL62dyqtN2fdX1idfH5fdSWbreUsPMN/3sStdFELoHX0oQBqF4elo50ezMLaWi3K7z5Izk8FAYnB6dcSOUp3dLXY4SBFeW7JzM/+5ucmh5vTW02cnf5nML0Pd3l4v+VcQAkBpkYGIRctWXO5GAhiDI+UIQBhEK4pGE4JskCCrr4eHtQhBcD84YSJ+2dmrvDwNTDmcd01ngfq30v8oE4ai+HsEft+nKKYElVV5ndOGMbqusv2sEAfniUxhA+EDurAzJ87UIQtXfo34VmbNB3h5hfEm7Oj/UEYGt63f//c/+/NmNKp37MILL5fLYsFbSKx0Mjo7MisqpO1HgmSPA58qA4VbsKFngKO/5cdOBVwKlbi4PRsnr9Gr3/YocYMAlG5zledQpDXIwj9Sokz9769AfpkjJ/f3l7du3o0/evXu3kAYIwmJ087hR6T2vLiKQhsUz2ebsU3f26EnKQHJ8+/YTiyBcSWZngEflOKX7sAShq0un3ziYlM1ZUDjjjCSCdUxs6dFXiSB0MtjTp3yuJddFpPOcDhxLnX1ypm9fq+5n9eBs+mOSuKY6m/+Z9Edk9tIBAy1wH7JnM1tO1nGYPDuiUaVNH9j5sTP9k/5x71lP77LPfAZBUGbu4FOQ+v3YGGZFEHi+EnJ1z0PeW4yq67RsoCvEaNvzREzyegqDNHJ2jMhpnz7lXKvOVASBvBZ2L2JyvyYOuKhppH/s7/5umhqhj/xzgXaLAtzfK5oxTS+8efNmJHn3+LhEFKopBvLxKYk9QHcDc4d/S1imKR037o4gqN5MMWSeR0jkvkQ/EoShg6Utv84Uwy87QXDSlrpcte0McT3jMPt+6rX8bP779rJOcTb/M+kHOm9Mc2ddz+TtuJ841OVT4TyO/aUEQfXwyLoPQl/S3y6T1yQIXpddgoBT0xx+9dcRBAzNC3MHzPSAru0RhMzjjLMfDpUIgimhCzTzS6UhrYPBOs00/57kp2OV1Qxi5wCJIHRgldfv798s6w9w8pK10jk5WEb+sQaBZ5wgZN2qurjhJZmpCEJlmJOK3S2RjzTmo4DWg8dHgrAtw3odSf3M68yDH+1TB/mzz5xN7/rjzuBoPi9xXh22Hi3zfR1MOptvuj5nCUInly3ZH8Wh1LXM81eNIKTurPR/FUG43F2enq+Gvzg8MZ8TBKFSNneenXPe6/RkddXvivndX56mIP3cBk+zRTYqxajyf36+XUyJk7yp48YyuYoknI0gjDUIxYJHyAGf1E+RIdL7c+uFj/0CySRBRyMInSErGqPIh8p3gnAGdD8ShDNuhbQfNoLQEeCzNT2jB2fzdptVOS8hB9+Eo97DyZe0+yNBqKVW4f2vIkHoSMIqgqBEjDZ5QAISOejWfo/78wiVsDDG5XmQd+d0K8P3xTgvceo8I4JQscKOHFR17aIB05zu9pSBl7Mly44gjOmO+c/T1N+vBAH5eeRA31nko+eZOiLCAEgSQUjy4H1b1fcoQajNcT3FUPVPPlfVwQnoOv3HCAL9eyv/D0sQzjqtjlB8aIKQQNlF7hJPjjjYsyTpbFvPpu/6pFsEeTb/M+nPRhA6WW4t4HRcANf6gco0NVo5zl81gqD2VG0dWOERBCcIOPsxZ7Ix6u0Iggs2O6GrTCqsFjVW+dyMyueO7HYxPNytO7p73q/nXFEFCNf0NUGoSIVqUkVjutEKEYRRQhEZuAWwKwFgUagIAfnfaxeD5ZPbHDtikGsSOuB8H4KgZ9nFMMhLLGqtAO0jQXit3RMfCUI6+T1ykM5jizT0xKynTmccbFeXs8QMH1A99yHr810kCJ3v+VUkCJ2/vvvzP/2zKUA+O43np+dlOzSMC8WQoxFo6x8h6IqxadW8p9lStiyjGv3lSLLdzmjnHJBPRkRmxjGRnmLKQfc1E5vbNJ1lZXvObjsq5TGFIm7+MkpQOWAHH58a8PZ51IBCpqjB9GshEPNuBsq55qfdGpfLk01huKGMnRKzDvliRza/dPX2BisNCytT3q8xojwLcGrtUVLyEiA++8zZEei59DVB2Bphnan/3UzSj9rOubpfbTn1rMKhPsJ0Pc8j05ypz1mZeVn6vlfWWVs4W58kOjzvA57ME9s/Mvir6tMRhI62dm3qVsacPY/gLFao/ZXP8OvKM/1m6tne4vC0n1KWB3b6bOm37i2zAn9huxiShXYEoXS6VnM5C5928Hwd+GnclsP3bVmePklDJTg6LJ2NK3Gl0Hfzqnsv47tCEJwMbDldd956BoLgzw8yNBMEgInnnFBwbchgPvPBrzlg3QLcVMBLCELqzRbRPOKszhr9R4LQHzq158SyPz4ShD7SU2KQhX1vZVlHLDv9/kgQ+rMjzpKtDmc6gqD0FXHoSNgZgrBFdLfwMPUt8XuFu//tz/9i2eZIY7zyXgmcpLOxipmxQ8GdVNWYLUed6V3Ju7UJLhRYUBpHZYxJNuTSnBw5c35fJ5Uk7Ihjqxxsdy0d/WCsIgLz6YTeJ9P36xZEf7Zdg3B3na7wvHwL6LpN5wmCj0bom9cw5I8EYUvbzk4xHNXcKV1HEM73SV1u6gn60kUQtoAeG80BwrkWn0+dbXht2ZytUedIKix/3whCW7f5BNy838mmiyCcleXZ9B1BcD/iefZb5o9vgcfHHSWQ7nu8b/18n2z33RmCkI60YzA+ck9j23LQec/zz7K7xjq5qSIIHWHw/M5OMZxVprPpaVOOwvO6EzzftaDnOof/8DAppJMuiGBGCUb599PZClUEwet33WKJg1jvhKgcvq5xuJP3I8SlApEzsjyTdirr4xTDWafSO95+m/RrlPHLTBCwNzBob0ByVl7n9X4q4btAEBTNPWP331WCgDzBWaZSOxkf6eOWIGhIWPCMyr+qnIogLD4AguCAnOBMxjSOh1lEmI3BsbuiV85+jyyMZ2xu/kj6swQh260yzkYQjnRmyrR6pnKa6Rw7x4rThhQx1+XrAXDqvtVRBMEBhDQ+ReSRgo4gUE8vYzKKmhicIQhb8j0DfmfSfiQIa2JX2fgZve8iCF0eZ/vqLEHoIlKdne6lz3Z0ttzKLE643Cqvk83ZKNuejL9pglDWXwThxAFK507n6KfQ9mRT9ffeVILW9z0+TQvvNRCq/NkZm3KfeuS5zgdDVnxR+EIQxiJFTuKL3QpkyCfhOjkYCYMM9yoH0+kYjD/vjdhcm1Aw3Jx6oNxk5AkmWa+zEYS99nftOwsq7qgXBR5k8eqEncRVEYA8LMmBm0iDj2gy8qBFipAR0vO7koN2Jfh9jzJU7f/kk0+W9EcM6Iwhn0n7kSB8JAhJnM/Y+RmCkMDtdluV+ZEg9I79u0YQ6Et8ET5TBEF/Z518+pIz+pF6hh45QWBgyDk0dyxSrEYIrogO1n69WoPghAAHw8uVKoZeRRqUB44qw99JHFLQfr9rQyVo0nbnya1kMBW6cn6VDM+AisvGAcYJjTtYrw/XPWLgjtkd/drpT22oDkaqrjtBSMfvBOa62KZeg+B1cMKBsnZyex+D2sqzurc1b55kDX2t8zm3qOw1Rqvn9W56p0jaEkDhwHE+7+sahCR9Z0e95/twf2rL83yNHUluF0cA/WybuvRnZbnX1puB06u8sXXrbau3LTs9xdCc2XN+cHBOy6tF+WBV5YOqF07t6UHuIswFjV5epwuqJ1j/9ddfj4H+dTp4OnGXgd/AtPclCEkc8jcFbhEEd4wrgLq7XBSWyc5NJ1HVYSvNFjkYTrHpqW+KIFREI0fePsp355SjD38uIwoq52E6y7klCfkMBKEiB+7orw50TRBIkwQBMvKRILzWuQbnAG7EoX6JCcJea7ciVx8JQi29dGzdCvuzzvdM+tciCHvOd09/9u53BCFJWOrhkQEP8oIgOFknP6Y38AUdQfBFuxAEH6An3r83QcChs3PBR/767iOQVLh07HRC1WgPne/tYnAmVbE36lwRky2C4Ol93+6ZEd+WceyFJSvloi35bEUoSoIwL1Ks7lXXtM3Ry9ojIBz97IQCMlDVkdDblkGfAZg9w05d8PQfIwhTZEny/q5EEKpIzZb9oSud7RzRj9dKc1Zvz6Y/G0HYyt+xOXG5GsCckdGZdr0WQdgaUZ+pe5e2Iwh+Pgwjc8ecIwTBy8z0rtd+r/MlvkxABKHriyXf940gVAQhHa9+s6DR2QqV88Ud3rAnnaRXvP/cBVE10NlUVZc90rD3yppR/tTwkf0ZgrDtkKbwzoqIRBl5vyMIXq/WiWvUeN+/i4E8nCj4OQgOHCPNvHrWDYF4TAJ0N8XwkSCc16ez+leD3C9HBKFz+FuEsrKFM07qNRzIlt3v1f1o+a9JENKJbeHcWVmeSf9aBOFMmUfl7ek6giC/lwMt/e6mwbfKrgbYDMJ9ipjBeualcqmP0kNe0oe4X36vCEKO1PmtijDqoJJUptpSkQ4f50se2bkVQfCRRdYrGVgaawq+IwgrcnOAIHQsbou1eRhvKzyVMkgmmQ65cvaTXEQQJqfEK67HuQmab5zno1DwKeE1guDtq4xgyn96N0QCTLXmQdc+EoSPBGHLmWIT2InPn26Ba+pgN//ehdHPOI3Ovs86qbPpzxKEI87oSB2OpKkw+IhMX4sgvISgHakfabbWIOyRq6Py8zIgAeCuD7hyOp86OjFR+jwjBL/t/vO9CELHVNKx67cIAivo6ayKEXk0oXL0yb684zGQD7VI8ZsiCBXBcgef8nNylECYoJGO/Hl+FXZez90LC0mwcxBc8f35QQuWBU37ixQn/jCd1fCRIHwkCC8hCN2W684ePhKEffcHPu85sL37WdKZ9K9FEDrytLdQc19KU4qOIIDlSZBWvmTnaGTyyF2EKtNPyO0i8V62D9Q9vwXf57bontaDDYKQjjor74riTrtyVFQmnftKgLbn9yZ6YMccVwo6rj1N5/57Wb4a87bsuptfyvRH/lPjp4yb1b2tUur5+Q2YPmLZizh4J5YRBJ1jNC806xQ7AVPue0QP7B0MXo8c6T/f17seugjC89M0bUKePvKrnmFb5PuAyhkAOgoAno5T0NIuqmmTLWcHOcs6dHpz9vpe21yHnOz5c066IaKsSyCdg2BXx64uXV9JxrmuSeV2gE7dErs8Yul9sUekUwZK7/vEM990AFV7O/udVgnf7nTpZPNaZ0qcdZqvZVdVPqmLe7p7Vp/SV9EX1CX1YUvPur6tru/lU9lg+j2XVxKOqg8rm0V/q7VElb9XmTqz4YYgbIVKqhG9O+nsBBiNM5s0pCQnFQFxwx5AYKNeT981lMN6jjqdPUNIgvCcIXQ7m6BSGj2PnH27yxZBSAV2WctlD4gp3vZYgb07gwebRnDAT6e+yHZeszDxovX0QTr8kd/z+tyEihRcr91f3ryZ9gcf7av3TfsSINpzgtlXPRGdDk3Jv7NEYK8+W2Ca4FPVJUHsmyAIDoR79ogtpBz0nNe1aqs/syVH3QPH9P1XgSAckWvi9Uvs5Ygtv4ggVKcF6mWDzZ+XkQTBMRF9OoMtL5VlPuc+jPJd77CLJDZdP1VyTaLa+c3hozyCQGaZQRKDFLQLFOfHNRXi4T9nR5VQnUw4+/LnRBDcmN3hUu66zuf2oe8ZgRMEXoU96jPP41edvOrAy/Pl6XHaf3o2goAiuzzIe48geDryeTNHP7IvuikGIgjbjt4WWz5PJML/qWzP//q9Jwh7ffI+QHbWwSaJpm3o61GC0B3l3LX1LHHYk1mCxxk5DKJuxPgsQB6pm+sz86rdGgHIAPnStq0IQvbTkTphN5WD2Xs+Mesqs7PvwTh7HFBds9cKr5/t+yp9l0d3vdPVrTbtEQTHx7P16crt6tnJoNJX98uu30lqnFD4PV+v4IO6ijz4tRuCoEwd/GjE03zcZRIFr4Q7LAdKzXnkasmtivm9/L504EYEoarj2QjCnqF3BCGd4JbhZAShKzOVoxolpePfqn+CoiIIlXNd2qLIhEUKRBAqh9+9/VERBC+zCsOTn+69eTOdpPg+f2cB64xjTBupbOAjQXif3pueTRIGyG0RBHfa6MDRCMKWDqQ+HSXiKYXvGkHoeukscThrb2ecrx+1v6pvE6V9DYLg5Ddl1NX9NQhC6ofKTlKTBGEP6/W8246X4YNxXfe2LX4n1yAAeCTw8EblfGmEf7pxixx8/e7ry8P9w2L4nhYwyLydcGQZ9/PKexdWRSyu1+p9CV1n7zkMJwijbkVof2u0507/pRGESlH26s0zKwf2NI1G/Jq+V9tzRluNIHjdRRAq4nB3qa9Tpj+zRRCOti1164irOgv4e4B4lCCcfcPhlk4daWcFdt6WKn93tDxfRUrSXo/WZ88xe74JYlUZ5IeNvUYEwe01BwFdO/f01fGqW4PQ5dGtXTlbl7358S2C4/c+JKFYy2ldoz073NJ3J5PpR/R7i4hWcn5JXRJ33QcmjrnebcnE6wY5cFtw+/CoXGf7N2sQEAysg+kBmHjViAQHPUv4XIcxfPXVV2NFZDp6fkNCaBDXO5Jwf5mOhPSOdSV1ZjTl8QEJwjy1sAVWfg+QU730/WHeTsjvI0qNYiV4HgHldF5P76YFn+moRewqJw5B4B76AkHI604Q0vCoC2EvneT39m0dQdgD3DSMI7IgzVmC4H3ounp2keIvG0Gg3d8EQVBZPj2p39/WIsUkCJ3zSDvf0sHvAkHodn509e5s8NsgCJ2TPEo4kyCkr/kmCYI77VvfdV1EXuF+6Xcud+Mlh4MA6N/sa/DJ+Fl8vGN35ndDEBzwiAS4I+4Igl93YWd6z38vLxTvpvOa1/B2hAKC0N9fi+UIACwyUTjUDjM648jSAVedDXHonJgrVDrgI04ypxjcaboRUv7T3RRxuDr169ndfn1p22WKHHl6/fb3oaO49/cPY5Hi1E9yCFPYqyNPW+072w+locX0i9sB7fPPbhTR1+XcXPJrtKmTmZNz1zXaRP9lusyvk4Hbvev9no6mzWbdOkex1VcQnexDb5vXi90LGuR8+eWXQ3c//fTTkQSM0jX9YzqVXRguj6ruk1yug51K9im7ZtNUe2BbTtcctamU/Zbu7PXj3v1Ob7b0yfuYdK9FYs62tSvXI7Hej47rjrk4bTCTvgIj0Tmusx1R97/44ouhj3rhnfRPg3Pd12/Phzx0j+epG3ZOPd6bIGAgyXzosHRg1XU38opB3YDEvAahAqdaqafjYhFCgkfm8xKCkCPzLYNIgDpSXkUQkJs70LNO5KUEwSMOaquzUF8IQwQBhff63UYuBLzfWx3rm6PVPaBxYzuatkvXyTLByEcAVV6/TAQh+6cC3i3Ctgf06TCPyj7nSxNsOxvyQY63rerDjmzQXpWhaKj+dF6Hl+kEKsHdddJt/4pH60WKC5bMJ5PeYldNLLecY0VO9rDiI0G41U70ySPqOZD2p1LnXMfc6ft1txEnp8pXv0VCidKPswrmCLB0U98df/WM0uDwyZv6Ky/Wj/kpi5CIwwRhy4m7o8qG+j13zPlMGnwCzUpZn6bwd0UQahJwfUtd3j8D6K0BzpmcIQkJGlvOKJ1xGq6D3Z7RZ3u3To30vqQORBC8rSil8k6nL4JQXVfeUkwHVk0xfO97318RBOrQtevs9TOk4e8aQeicu+vqXpq9+0740llm37hT85GVp4M4+IExfj/rQ58Chugmn139AXOm3hzcXb8hE7TNyVSvT+sj1l3ejovXdn23CEJnU3u6sNVP7iv2bDZxass37OW1V64fLqS0y0i7iTZCIqmjv3KAQZXuJQFGVyADHnFFt7CPIWflEcfyO7H1gbzqLdKgPEUqIAmKNOi6fisaMbC5WqRIY5wZVSTAHZVPB3TXXfhn068c+wZBcKW8frcIwpTRpp6cdToy16PkgHQJHHuO3cEyQcNB6agBkO59CcLa+UsO122N416zSPE6rTClVxt07ZNPrhEEl1U3QjzbV2fk85EgXKXlJHRLhltOwYHcHXOVHyMkdKMDYg/x7zkGxyW3vyQJXfsgwg68maeedeA/krdspoKkxDJ+f9emGP4uEYRuumYvCuw+NfE6fatjo4/8PWrAM9JJJ8m6jv5pigFf4cRYaYiAkYYyISJcP0QQvAGwpjSMbKQ7sQSGimxU6b0MJwgclJSKmemvz6wjCCm0o06jXbgSByXtOXsvL6MDVZuqCEIFtmfKpZzuKFMfATkJIIKQ9fQ6rkKvd9Pi1IwyVIsa9dzbt5+WEYRK9kmaUq5H+3XLIWw5nSSFnXPs++W7tQaBtrpuOUlzYOvaukcQ3PYAt0rGOVLL+VInDnq+tc2YWsz6HelDtwWNsJCPh3IJBeuav7K8GzisdfdKkh3nuu/d4tZOzz70GoSq3MSnPVt8iT5t6eteeXv3IZ6d/TthRj+6tGlD4OFqvcG82J1yc/pBz2i0r+t+kqtHFphKoDxeb6Azd+azf2+wVeWN10i/e3f5aiYUygcdPk0QkixUzr4jD9mht3k9DSbtbMuNZGHQr7RI8axDPUIQptcK1AczVQq0RxAWRx5bKXNtR86B7hnAhyIIN2RgjiDk9dUiRc2bzYu8xGynRVucgqcnp10x02JTjqZaRyoqwnJUBh8JwmRzW4CLvjnRq0B9jyAksHZArBGMgyEEQWFQt1vqdYYgQHTQSf+s6i9zfnqaVoVLPwW8fAdIncAwL+y2y5xvZc+KICjWlgMcdyxrsvDdmmL4u0QQ1I/0NbbA4tQtguB9yXPokZ5julX67GsBnJRDECaMXL/fSL91nYWJTGWgr253eYw5OpzvSxp2UZ2kmGCBclZkAAN1AEnHv/X8EIDONRDHad7D4CAi4fr8IXnn3OZwK09PC2PqnHN1/anZFgkI3YwK7CwBNxZPtyjIgV0P3cjYr0tWLnNnsdUI8CwZ8j4DQLt6VUBLeW/mOYyUmc8ZYzCDJLx9c3l+0ohwWmwz+a3ny939eMfkRaOnkZdIxPyK6ZS56+9aZseJm7dpj0BQ/lMz9XVW9mfTq71OEN0WaEc6H6UHjHwk7EDmI8+0TeSa+foz3o6hr89P4wTRUSeNhGaw3SJymX/q2gJ881Yur39rB3eXy2Oz0HmrryvbXkjVZDDz9u6Hy52OGJ/VLfvzBj+s0LTxLdkcvbdF2jqn9hrX9+rn/XPE3jL9pt5oIDEPNo/mDeZtpU/fRn+Bv47L+p44R99DMGUvOGbm/32di+uDnD+7ZfJkUX5z34mG20TXryLev/jFLwbJUL2///3vX8YW+D//0z+b3zt0XeWfRukdgwDcMaezSiGSn496/fudPEJDEHD03jAHQC/LDa8iKSmcDoj3CMKNQ/yWCQIA70QqneSesXaKswBw8c4Gf6YjRg849FinwYgKAxghtYeHy5tP3i4rdH3UVTmxgcDP1wVeVX+ur3UrLmrpHHHUrnPfJkFIxzKId3EUsvenE+gkv04+kQ765Xk7qOq7n5vio3ofSGA/kJRONytykKSF8nnpWBKEG1udC3u81O/BqOrS6TZ56z6nzU56ej9IbpadxKAiClWfvcR2/ZmPBGH/Dampa53tVyQFcpC2oN9gmNsd1xnJOyHIqAJ56vlpCvbtsrhQtgYBwZaZmlB6P8uGenftUr7awqvnRUT0W8fwrwhCCskBwRtfOfouguAC9fxWjr0hCM7KXMBdBMEBaeQ/Vfq0fT3fTSvv889BeGX8zTkIbuwLcL1iBAFiltMLqcRd+LVS6ASWJAidMDvZVAQBAyEvPTtCbA/3l4eZweoa9VYdljmxldMbpyUsVUrlvwXgs2feb6tO5n/27YxbsjyttBsPJIDRV072XXaVY3agct13HdJzWwRBaTPS100x0JwKk7yuPD8moGz1HjaQuj9koXehNNOUR/rEdd1ledXruxVBqHBgj3S8Zv9/aILQ1XWv3MSpPUJeOee27A8UQajsQPXm/IuKBHaDVZ+uQHcgza5jblNMX8mJS/d9PQLEHXuHTHudKxk7qVBZ7GD49O3by92f/dc/XUUQPLMcMXhD83tHELjuyuLANK4r3JfTC7o+O4MEkeX3CDVfpybcoewp55YBbhGEBEd3OS2BsPUDEvbewUqZjzvSBEeYpa5nBMEV5iVG7AbZ1cnrdiMbOf67K0FbGQ+O3rZGjvDYJ1OIywmC8oUprw1wnnZYKiHCMMV1bwx17Cl/AUHo+GWEjyejPPd2xiPO6DUchRMEgCjt0R3xZJPXNxAvaSHdRaVI40C5RTq4t2WnFVFJ0ANfxmgnTle9Ouypwkt+LyQInVNHvsp/Wnx7P02BmR7y3dcobRGHPWd5Ri/OYmGX/rXycfLnee61+btEEBL3fPtiYuWo95MWCl7/XLfdd3pk1SNsfAcb+Uw9yEE9axvwuVUfjkWK84FKWudAJOETnbHgBMELV4PkyDKcrwp5BIFO2yIInt4JyNLhBUHA8ZGGhkn4XQTBD4TIDqwMqlX4+2nlffWXjmeA0JzwmyYIdLpPMThYVY6yU6hOPi73dDT+TNd2Pxa7AlhAfBCCYooBfanWf4wtlWNdQkMKbq5PiwM2vjMAACAASURBVMGO/u0B4q0unFs8tqdjR+uZ5NCnZtCBbIuH6t3G3VZTl7r6JNilo04wcz3ak7Hfz7QOehAEyvY2oUP+eWaKARlWtp9EpyMIbh+Vvm7dP6oHe/1zNJ+zBKFy7Eeceab5ZSAIFb7ikxxvkXW2cWsQq7QeLcCudZ3dM0vEbCbE5I8P4NwEZOmLH7tona5//vnnl88++2w5F0FTDG9FdkUQ3MARAECRBCEd9hZB8DxWhj6zqUV4Txp5TZGAjFpASFy5V6MIPan8ZvbuoJFOKw3kJQShcrrfJkGASFUgCDBvGV6nNK4TDpCdzDonLYKwRVToI30SQVCdCHvRZzWo3l/u5+mgLZJwbf96lLkHmHvO67tGEOhvB6EkCG6vg5SJcOu97/auA9oN0TgyDZD6gj5SXjrAzoGQTzre6rq3xQlC4lnaxsCI+cjwo5jQ6VfKlzUIGUFAvrvkQDGwsSB3+ttzmns67G0/knYr/Z7te/7fNkFw/TsixwrvKnl1BGHL+XpfJoH1urn/q9YWUDa6RBuZatBvEQS3FbDAIxzex5AQTSv88Ic/XE4K1aLFsUjRCUIadXayk4OXfq/K8EWKXvkMl6xIhpGJNNLs2M7IWufYOJ0EqYWl2UjVy3Iw8Os+znQH2Slkdd1DTjjTjKykwXYA4YqJLMlrD6jzfgIguxi6NtDfgyC8ebjcz/vM9du3i9UArQmF63bHxQmN3Q1rgJ2en/5VfVTVD4fr+uXXbvXs/HoXB4gEj2zzGYBOm/BnHeTSgfPb5yUdBzogdTxwG66Ig8uts/FcT7DluEZbbVGm1wWgzXpAENaYol1P00CFP7d5t1W+Z2Rr1rpl8Ww+485iOkn5Vh+z3+lLt7XEDdfLo86u06fu+hZ+dPe2rld6dTSfs3U8W/cO97p8tsh0ha++dsDxqDr/Q88zDaDvfhaHnmWxop/FoXReJ99WzjOyPeXFtk21Dbsf+iWbOkoQXOncqPme0w7ddfJZhTKfFQGY3KZ3fOaZDs8dPKBXdeBrEoTKeHmfweKgCuf02gTBQT6nGDpnt2UkKcuKIKRRepvScXLP1yB4+emAnCDAiPMwpXSmEw24JQgVAagIQqcXt45//ebQ7rnuAJstuVd1TWeezn6rfkeAsCQIUyGLDfrC13Q4W2SjIge6djRSVT1fyeNGBkYQKA+dvKm/opV3NRHoQsBu927neX2IcUw6rt+QmjpTPXej3zFF5nqg55NEZeTIyc0ZTDjrfM+mpy6/agQhp+dcD9FF1x2lJxquvoPM4vD1W4sRFRVg+lz38s3IpE87UVnUie/61POQB603yLot+KDI4p/+l//aLlLMDuT3+3wCAJ5HRhBIk6MLrtOAowThCGiuyEcTQSBNkoQzUwxDaawwFKZ3OsfmzJFJl8+WEVcMdyju/LKYBNzKQfm0j9ehIwgOcCio1iDcv3lYjl32BTYOhlcjmyIIAKeP5tLxQhCmQ2mmvyMEwQ0aOXwIguB5JrBzr+vDPd1JB+n5eZ5ebqbJspMQuj27k3d7d8ewsrdixN6REj+lcJXH43WBqOOW12UFoG+uBxNlfSsH1jnvChOmqFYR2QrD6YhGllX95lrqeYd11fVOn846/LPpO/meqWPXzrN12bOp1MOu3MWpxo42thp6f9FnnF2g32CdMExOm9MMtWiQbYeqCxEGHD6Y5FipdJCNLF/pdU9TCPrT2QcetXDf+vz4OBGEyvgrEuDGzv1VpGDeWuJMKqMAlOXX2cWQALJ6dip8AfbKqb2awu/Ma68M1pa9pTNxIuGG/BoEIQGaefvXIgjpOOjvypE5wCZ56giCnvERz2IkOijpWXPi05G1taOfNKUC4i0g1+ukz0wxZFs6R3J1EuemGDoi4CDUyTsdUwJX6sEecPpIY6WrxWFjgIiX6U65Ih1+34m/57Vrv9rYZPPzqzbP6ygSo3JUPe4Lp7TRoCAmiUFZpy0ytujLDkGocKLStYpApKNxIkfUJ/VnV66hPHu6krp2Nr3LeEXaihNok+yt2lYsONZhXGf+XosgJDbk3L/bq5MJcFzXGNVzYiLhfwiC0nDCqNsNgzPIM1MHKvOrL78aNuN+l0OaiFCAxa5L0wDxcrn7r//5v6wiCFn5JArKDDCpSMTetTTgIaD5HAQXshMAP89A16v5ngq00tiPKg7bHNNo298nzkEY8rOKAAJbwFPV2wkBoSoPyZ8x4o5suS7Q510YMwkL7TlPEB7GPDAhN/q6BkstspvOrHBw9H5aEwxtQds+WCnB1dNXJGmd/hxB8KgLwO9Akt/3wCz73A3ebavStYogoBdVdCj72+2+c7IdNqTd05+0d8uRU5am+ZLY6LluDYLvYvB+7QhLJfu1bl0jfZNO3k4xuK1Xz1bEAb3I9DgUl3W9FXhNhFxHzhKHDj+/DYLQ4WU3lXW27p3tbPkQl4NP+zrJIV9syjGWvs6jlplCUJ68bpw1BTyP08c/f+9700vvtDuBA5nAUrYis5aBNoEByHDsYhBBqDp4z9G/9D4NcKKgU0U4atnBIqcYqOcQyrx74YjTP6vAz3MYWiu8J0MfXbc6OtXD77zwaOp80ude/Ok6bxKYcpzyTGBIJ1VtzdPODZ7jFDcdX9sZzpYMEtw9j+znznC8b1b1L84GoN4o7ALy81HLao+O4R1TDowq5oWH7vwnCVZrEK79tSYLE0Go+si2/S/Vv/YL4K95617jXrIGYYsY5L2u5K7Pva+6/klwyDn4nFfd0i8HwnTubsupUxVBWNo6n71AfjjBlMV0kuJ0dXqfy7Sz6TqlRN/NJ8aSdo56TpY5vwdmfJn+N38sL7uhXAhSymPoDDoZ9v1wP+vfbPP077KkNq6vMIK85vM8ZBfD3ucKqZ6yGdeZpf8bxfn2CMJ1rctVL2ebnXrBuj9tjntXnPXmuQ72lnq908ngBufWhexmnWR10a15rYxPFbg9JCYmMWSXgk+n6nmPGuj7J59+cnl+eh6HHkEQ0A0fDPjULYsVIR1vFcF1gkBBCSwvJQPVcy6ohbnbSYoOFlsEYRNUovuml/8c/+NAtrUzuj6f1x18s0MXEIjwWUUKvLMojRe5ZO1dsb0+j7MH6xZbdVJIQO9+O0BmH1R6s7VIMeui57X/Vp8w8JRTRgoo068PUmFHQ5MHb/3o+rUC1+Nac2xNQ4LZmTL3iMCRuvpBPdnH1OXd47vxzoSUvcutIwOLTc+v8FaeGXF0DOj0aXXdDmjKiAB5jd0yQSaOyCP7oxqBjsPNVsfcrHNOWxync8ShTcwRI1P/dLLh16lLPiM8cxuhNvU6HW2oqPFvi+ydkd0eVnheU1umqF868z1Ce8z511MMHRE4007XyaxLF6lC/9mFoD71HQVbuF75jsqWKl+S9pn65hFhpaV+LIJcdG+LIPjowZ119V2jPo1qEQhpPA93KKuRSRy1PNLZ+Qb+HEKrwK3r7JcShC3wTrCsOtPTpDF+CIIwZD+fQOnlHQm7uQHtGXwle0COvqJMzkE4YogCOCcIR8iAy9FJhfcHaZ6ep8iT96u+J7CmjmXdzzrqLv3WFEMlr7PlHgHFTKM6MUpRCNKnrVJHOpLg8kvCoPz9Xweso63jQMfryN5lsujgHAHI8zaO6FuV5qUEYeXktVZiXgRLfhCE1Ev0ryK6OfBYiO4OQXA90feOIFQDksTaI3Lcwo7Kdn6ZCQL67ORNbdzSY6X1afFO7luyd/KU0bjK3tw20RuVC0YquvA4zh+a/nQdu2Tt18Cn//Kf/vOyBkGZOmhRyEs+O0KBEDzPu8u0IKIqJ4WWjuiIQncEoQfc62LIdCbTGwRvnYwbPkI/SxCq+uxFELwMlTuIWmHVZ5zFEYOvSESOAJSmIwhVffR8RRAYLSW4OjnIUZbLZYmmzO8NrfrK+7nTi+zXCvwqQO0Awc+t2CvzRg+toCPPVvVajYLuLpd7vWTI3xIqQLFIwBYhcDv0+pCfj3z8e27Z6sjp0GpT7NRRJwgVeT/k6Jppy7MRhPFWx/n1zcjMV6nTlx4mrnTb6+xkWXjG747crvpg55yWI7LZS1NhRv2MIgjTVMhK/2xXUTo38sn0df4fNoLguus22RGExDn81xYeJ45STtqGrm9NCTpeOQElgsG5CRUeLgRIBMELTgadAsHghzOaTzCksytmk1EIylpFEIwgeHlHlO5YmjrE1gG3zyUnG6+cREcEzhKESuE7guBpV2AASbDJctjrllJWyueG6Q5g77ob/13zfoKOIMBeIQUJhGeiCk4aRp0FTDM4pVPFcLv+7uT9PtdzFLLn6Mv782E7te7Uel/ZDAMDH+lknh1Au+5UcnXSUeXpukVenPyW9xw8/d5qKstI/J5jy/tnIwiVk5tPQRhZg2eSK9GY1MvECe67TjoZhiC4LSTIJ0Goyuhks6eH3XNb+LJ+5pefIKTz7fSS6AH2pXT0aynH+XRTdDtPQMxnfC0cuuifSo+eUBfq4AMUPYN+aqfEskbiP//H/7SKICR4ZKGu9FmRyrknQXDnwfP3eiXwzChhNZ3jd+EeIQdTeecIgmYczxKDNFB+V9era53SnI4gzHJ056O2VMDnypay7BSeZ5JQZP3p944guANwYyOCAEHg01doO7HzUdj1ukZYU5+vRl6DHKzf25AO/kMQhC3gPFKey6cClbOAXtlNZffpqLweVf9j2yvn1EQlHQfc0ZOvDzb8fvc9T+w87qzWEq2e24ogOAYiLwiCfrPXPQ/9cpLgzr9y+jd6PEcQurSe35DXHEHwKbgtnTmrTzic7JuaSHCi6S9nBMEJIdhU6e+iRzrj4P5+cbjSAz+bIGWkKB5beWUDfjpipqUua/Joi22LFdX0LdMJ6IRIAfmofguhFUHwRu8RhGG489xgxVh0LYmC518ShHltfxc92FK8zLtSyrMEoYsgJFA7K09C0P1Gvg4QFbBe23G7MyFBzA1aAbZU4i2CkHl1wFqlq0iFO45BGiyC4Okf370bCwldyaWUIgisyMbh742+OrDN6/PO3iFa77vue0eqEoDdkdaguH31KCB36brrW06yugfQc49QZJLNDhBdt2lxYkvig4dIPd+FIMRrez1fT18RBG+jOzHvf++ZFkvu1luT/RknMvSDpheW3QUzHuZUQKWzec3xZo0XU5je9XD5Po9AvS9EEDob6WSxdT21mXYfwWKOO3c/4O10/Ni7XlvVh51i8Kkutzv0K/VBeKa/PAbZdyPQZtYIVH4wfQ0RiYGxscU35eL5eV8pHWXqcCaPKFDvu//0H/7jDUHIDqfjYR3pBDqikNfduFeCnI9arojEFrSmMvWAPq2a7f5uHf32fvZM74qczqf63aWv6jcBwZUk7EUCujUIXdu7/PaIQmXIDtgLQD0/lgfSoODolGTKojhdQ0GVz9YKcCcRN/0yg+ViyMUUwxp4j+9EwDAxsi0SdtaxbyprcfNWf6/Eq9ap47t6PALY5eV2mwCEHnQRgdSjvfRd/rw1NLHLQ7vulLrpxdIetF7yxCE+Y9vz5nbYtcNGrj7CBzeqvtUiv4WM2NZGbMXJ0Eg3b3/uCEiWlUSvw7vUh8TvSu+nLai3muR44zrR2U6PZ9OL/6q60X76uNMBx7EqH79GmzkKOWXAYUcqmzct6hRDIkv+XgW9i0ZV12he/8AWffr0lMrQeQiffvrpaoF16q5jq8qnTPKFHKgOqpufsUB9NwmCgwPMn0KHEG1RD/cRLpVNgHEAWJRift0z+/npgM5JVY5I115KENyJT8Lbh+gjJCEZZpbjv3snMhEEl8mWXPRmvgqbfBGNE7eupa9FEATcFZmAreoe811vdA7C/PIQphp0P9cdZGQBOeYoLa9P51tcwZm2p+ypb4ZwHchdBxN4UqZnCUKXvuuTqt1bIFcD97lDnrIuSRIS8P1+dS/r2xGKPYKQ2AFByOudc6hkrFEj24f3kWF6cdRRgkC7K4fv02drLKkPB4MgsI4E26kIQoU9Ltsj2OX2Uzn4MwShw/Qj8vY0T/ObgfO5RRYWYX1fguC4lljBPU4+FJ7JCfOb6Byf1I/pB+mtvvP7+9///mgSU7PKRwTBzwXx/lM6j1Iw4HJ/rPREZ3WdKMdKDzKC4AbljmR8n7dGuGBu0ihd8y+dHOl0kiIHm5C3Krk3Wk7H0zvO2uN3QLxHEEpyYIvF/H5laEkUtlgyEYSjBKGLIHgoV3I6KtvK0BJsK2eBwbO6PPuqiiBI2TnUoyIIOQLqfjtweRonCN4HDhSuuz5v7HLwfcxKvzfKOeOMUje83F6/b2GUdh8lK1tAXLWvGq1k3RMnKifQ2XB3/QhBcDJyNoJQyWFvDcKNjHcIAnLKtiSu+Lqbtb5ejyBPx8SocLE/bV+bp9TcFpIgZB9XGHeW6JaybCIIe5hyVI+3CEISeYhUXc+aMPPMONJ5TqJ8GeTkQEz6h/3LYfspibq3iiA8XCPdYDROe0y9Pj8vBMNPTnR9UlmKBBCF9Zc80X5f/+X6k3573KsIQuWMqPAqgjATAZSxihpkFIK8V5GFOYLgjkuNcUPvACyBpO7s/UWKDr4dQTjl7OdtY+6s8vueY5k6/jrqRc5bjqI7iRx5Ko8cnZ0xkD1Slvd9m6PfA7h1zY1LSolyQxJzD7mPrNw40ikmgdAOhmk57HoNQhpJ1Wcuo4ogHOnLLSfs987m5eRvr4yXgHynb5Aj79fOgXseFXGoyEN17ShByJFSOqBTMn7lKYY9/eJ+jg6p8/39lSDomvd/ZSvv5vNpPG1HFtI2qt+Vs66wsdKbborB86x0ZU+vr/drBHRHjV95CUFgAAOGIkcW9jkGpUNXHf39MhVBcD9LXrrGVIWOTmZrsEgDBxyh75AV/fapWfel2S9eZ/fvo65OENIhJ6PwyruzqtJV15J4kOZ9IwgOJC8hCOnUHh76Odo9kpD3KyZ+xOiu7bjuGz5EEJpzEBJYyb+LJGw5hQ7Mq+tsP0sZb0UQYMeQmpxiuHH8s8Pfm2LotjnmKKyTFTLLcgDeTpb91Nc+cT1CHHLUsmcPZ0jCHjlIm65k1wF+BVrdeQfk0REE1zNwyp/x53T9TFRnTKUeX7axO8VQOdgKtxy41312XZOU5NadgvIchLuIICw2ZMdBO3GpcK7Tm24q5CxBwN638GWfKPSLFGkz9shgpPYZfQSBuXz0yKd0Uoa8mZHIga+tUtqcYsDRu20o/x/96EcjevCzn/1sefWzE4QkPax30PURmX3z5vL0+DgGXyMyen8/Djb0CJvSMi2hNCOKmwTBwSyZfm5BpFI+Il2IwWUqfCxI8ZD2iAxM10f+45/CNeupiX1FuL6EpAOxK3jVuV2Z91DJJRFb5Lo6uOEmgHeGtTauK9p0RueK5u9iWEhVHOVKPqxB6IA0y9sjAu4ABrGJk+3S8c97ZhexbKW/sl0B9vTKUwwG4MMIU64VKK2Iwzj2YA2k84svjHutj8QdN7qDsMbJfsUBWsu+5X5KrNOnTvZLW2M//55jv/bFpM9V+ula5e0m+6ucl+scIK6UrI3Rmv3qLXo+SOj0Mct0YNwiOql32tVKFyUuEXYf+7u1hevhYRmFUUbalctuEI75FWuVfd8IbWAemDLtaFhO8IzvywskNgBveRdMANogpoow3k9lCJ+xIexn2EkclMS9Ts84K6SK1K1xafp1JRvYz3izzqpF3v96GVulZ441V73YP8tjndc2QaC/KyK70QWrW9J1HUVeEdDMQ2kY/SMrMNKxzUmr6zYO/bPPPhtTB4og0C98+lkJPqXgtqX2Sv8zOuuRBtVv9a4HnQj6H//9f1i9rKk6h0APEnrIKQMHgcW47zTHPbEVOgQGBcD4PS3q0foGynE2VLHKDmyOdnCnnJkvvxNo87orCkrQf3YAXa+g79rqYUVXBNYgYLQJlmdllEC8FRGo8u4A3/WA8J/AzU/WczknMDsZSFkP4JzniTL64ACReVR64WmGo5hJbacblQw8VOz394itg+9Wv3XE4WxfV+mVNzaPox0Yofclx/aqztlneJc+8E+389X0Y9OI1Ev6iTwdl6i3wFUAyOIu5OZhVY/GXItWvz+utpMp/yzz2g9385jnmsYxIoG766dldDcpwjLlyo6NjHwlQcgoiepHhCGfXfXd/ZtRJdd9b2vqfvebdvn9YUOzX+ja7X27dw5M5qHB5+YK0fc0CupGG9yPoWf4MfqPfvDROmn0ic6hhy5r7wciF96PesavUwfk7PgLkfDywErWW/lOh7un+zVBqDJFnk4QMmIwjFLhimUEMhmUp0ulWIGAyEERQXDgS6NKgHjPfl/ti68MeIskdOnTqU2dfT2s50idt2TgYIgiKYKQwH0EcG8N7XrghgN5RxA6Zye9YLxQpfH9wWxz3ANQDKhy/n4PmSRQOlg7mej6I8lWTjFQTvd8F87e6/+jJORDEgS3f+Q99MkIAs7dwYg6eV9WNpuO0x37lnz2CIJjD/lwGAzbzJJkowuA7hWcZbjXiAx1dP2DMExl9QTBbcnBv2rrSwgCDqLSOXcGul8R19GX88uUKoJQY9r6VduV3vpzewRhLaN6QNXizQcmCL7Az/sMEuykE52QrN020Bsf+UMYBsmb32Tr+Vc2hpySwFOeT4U4Frpu6LsTFycIb+8/vdz9hz/598tJisrkaATBDdSNero+EQSiBjSeBmf6scdgnoqYPmrn5GDiStQpyx4Acz8VOsvZIgdej2PMuo8gVPV151SV5Yo35FxkkmmOyMWfcfmKIGwBfea915cOtk4Q0omvwrTxqluU3wG3A7ckH8nWq/o7iSGEm2X67yPyPZRm3hmzRwD27mdZVfqzNiSCME0zXEPAysPBpiK3lT4kmTjjQLI/sRH0CuDmt5OATg7Z39N7o66WlYBMmdf8eoLg7Sd9RyD3CILrLrK/mT6YO5+0EAP9zl0S6LATBJ9m8O+OnR0h6PBwS9f83vT9u0UQkngu9Y3X0U/6Njm2KoKga2xhdOcPweMauyWczDJYdz+qkqroAf2ke906COXjpIU2vrn/ZCIIrrQovxsUysdnFUHwUarCPI9P71ZnTuco1n/fzW8/cyDzMpMMbAHPIeC1RJVyq+zqeuUUtsC3Gml2Ct/VO0GgcmBuVJykmKOj0w6gIWmnIwg2r71yDvNbJ6fR6PQuexEE2G8FQNW1qq9cZj7KSyDeIwdapCOj0shT5ah+TIF0etORvNfQyy0dOZp/12bsvcuHkQbyzi2j2CjY4HJ3+01b3tPnrj5JNDId9RAIZ58laXC75oAaHOjkRPXmu3cLJjipdXJzhCCkLLZ08AhBoN1OzlL2tA9ylDsd/L7SPOlVU3H6otJ02y47IlDjX38YWdWnE3zcrkPo8OybmGJwW0HPtqYRwTT6E7lkBAEn774Pe0OHlQbfmT510UVNO9jOFfob3c4zEdALfXoE4f75zeXu3//xn5QRBBR5YTLzi5lgL9x3FnP9rumGaYoBRVsTiFiQOE8xJKOvwoTuEBYlaVbunwFNB4lRxnRhZOH1qr53hMKN38GjVPhJoDdVzjBm9osr6+jgZorhqCxI1zHljiAcBXL6DN0Y9df2n3mBYgW4SQhRaPK6cdb2whPSZj86KHZ1d6Onj6c+vYJW1q3KK/WaNN11r+tWmiP5ZH3OEgS1Gx3E9gfA3T2UEQTvk6ovHdjR3ZQhurGls+lM3AYdRMlbRIE1LszV+0iMdIyyfCQup/NdXIPg8sWp+AiU+9hyRxCSDGwRhAr/UqfG71gk3GFo9vFtv55bpPihCUI3xeB9kb6kiiC4H81dSH6P/qyiTPQ5PgFZpk9Al/nUfaJkftLj8B/zTgfl9VYRBBYpkikC6KIEGWGoiIIC3QqNeEXdaB0kRjkzQTjrZOgIZ/Q1C623rOw5/gpcK1CuQHE77+2jGvXsVUY4pKlkL8vbCkD6IkVP7zL3dnUOjv6/kcH8boUuv7xe9cdVZ9SeiUT64ql0HOkkHZCSHNyQhbkBW8C258Cr8ivCURnxlpPbApWlHVNBW9m0BzVttmte8p82ukU6SDv2go/XGU+pXV+dRLCiupLVlv5AShxbqFfqZWV7jjUAICfYeTQhgZjysl+YMnXZsKgLmWB/49nnSTYdWfJybsva7Opxs3uFug/IkjxgM+kskhxMBdQHMXVTEpSVUxBui/7WwQ4bK53YiyDc4suyheRGkJ09dBL3vHlWMiYqhd6nrNF3XXey6/owdJSBqC0Ilf/VbgXHRPoo9cl17wan4xyhyaYexm4xDcmeH6coAzZKW/Dv+n3//HCNIGBUzpCcDKDUzrrTAV2NV2HjKUqQkQOvAAIUQeBtjp4njU4lcENwEMnw9Fj4aE61EmKlHB3Q7ymYO64KFK+Kc/tuCGbbEnD34OJGNs0DHSC7jPfSjLRP79oq+fMdMcjyAFbJHNBNoO6cu8s4iYHXZQVUERXKPvPGVdMdWyTgJXpT1TOB5IjeVZ2yR3yw+VHePOWTMnVg9L5yguBlA6CSBae/dbbgz6W+sN01CUH3JrwMq4MzykeY5iu4fURHHehryInjlFDkyaYYHLzJF9lM+U1rEPhzHauczp6N5/0jBMFxMfV/2nY77fTZIgh5L9PTFicGSRK2bNTr1RPG/QjCWnfqbY57NtT1gesBbZEDZ72U785zXUV2ENO0c8cKykAHnSDguKspDMrTc/hlBlpOHtKPc1hTTr+pLLY5Dt+t9+n98R/9u9Xw2hUeB+/K5k4/owxUSit+B+uepyXcKaTAh7OfFyhSzhZwAGoJOqlgrhDtaLgZmb0E6KlPx47XYFEQhNhj77LolLtywt1Jip0Bumw8v9YRdgTBpnkqopAGqL3QUzhwGoF6KK1z7i7DLeBJEuoAnd8zT6/nlBbfeZ1u6vrjJXpT6e2HJAhrRza1drHbOGHSZbwaWWhV9jgRowZvTpXzF9gcAWiXBaCXdnCWIDh4e8TeWgAAIABJREFUKi/0rHPUDD5cJkQQHHzp6zKfOYLwXSUISaaHnossMJJ9eLt6GRTpkyDQPicFTioSoz2fLbtb4/9xgjDpSr3N8Yj+pd9Z68D1rnQk9ajyXVu4zb3EStdXJ+RJpvDDYCfrpHiBE6TY1znQT/Sj7nmf6ruuQRLe3L293P27P/yjQRB4mIUMOGIXEpVyRlKRhCQILoQPGUFw8HNHcJYgHBl5pSM5ShCmlwXVUwzUH9ZYgXk62iQJZwkCZbmCd2RilL0RQajy6PJyhusEYYSvbZ+092NFCiqgQU/bEVI4wqP9XY2OKj3IPtoDpyQEnW5lvnsgu1WuA1QC4QJGk8AXErEqz46t9noBMsqD0fsRPa7alsRFeW7NAeeggHJdn9CJSi91DXLjADz0+vJ40fZIjzSk7SzlPyu0fB13udPsiEnXt9X194kgeB863ngd7x6mVxSvrs2LFu8hE3H4Ej7EHVkSkSqN23StA9vTa+lg+xdzn5HwlTQnFqWt0sbh1yYAXGRH28jDcV3RNaJtRCOke8iciADY6LqdPpkoBouo0WNIAnmCrW6bqmNOM+i5kZcIwp/8uz9e7WLIKYaKADhBcKC/VnwE5YaR8BImF5YDxsh/nmJwB9N9T9Cg29PgU6CVeuwB91GgTwa9Ddzb2xyP1Dvr5W3v3jrXOWofCSWRK01qhyB4v6Xj8fxG0AgiIGeivb/zP69HBTJVv3m6fH4rjyQg6ewyrzaysoE/WwTEZZR5V/U+o8dHiA9A5EB9pFx2MWR91AaAjvn/owShcvBuS+6Q9+Tg0UvvQwgCkQLPc8ji8XE6hnaeHp36ZMIzgToEIXHH23g9HPZ6UBJ69m0ShAqXvK8X/WsOSsLBO/HuiITbVZIG13Pv80pfn5szrr3f1tjWn6R4hiK4X/PnpCM+iHm412Lda7ScutBG3uKI7HDewyk/P12+/mp6K6N+61hm9BIZu6zQSe9HXtOsPL73ve8NvfVjlp2cSGb6rTopvb4TRSACQRq9PfKrL95dCYKff+BMJw0NQHFFxylcycS06jcb5OloeEcQbpnhxM7kWNy4yVPpM+zHvSNAeUR5unxekyBgcJ1Dr+rpfXE2glAB3aYsXiuCMBOEAaxafzCTA2TsgJsOK0lUdR8d3iMT7hgrZ+c6tEUmtmS2RxD82Qowu+crwO/yyvphm9Oq5emoa3+RTCe3RS91mE4zRccoHCA9QhCyD8GjdEBbdlERjI4sOl6ojIwyIJ8pz2mbYyUfH0BddZfT46+jSd1zcnFEJp1OvTSCkPmlE18wudjmiD0pDWuF0vGTX34mycP5pe2dJQjYpn92EYQzeJqEwPtKjnQctPX0OE7/9YWbTvaRgXSGqDz2wIFdkoP0R85az/7N3/zNKFrfVYYcPg5b13kbpJMNrVfQH9EDIniV/0T/RBCUv+rBy59YK6E0Iiqq0+Xp7nL3J3/0h0OLHx95ccMcJZlPNhyr4p+nFZcqFMN1IMeYFgHF65u57sTDHbtv70shV0qw19l5fw9gK8PZchy36acpg6mc666DbiqB56ln1g85bTkdv+cye25A29Pks1U5nYy71zdnm7JtTmJmYa1eFkL0AMMCwCvZrK/5VtT1jo+pTtYfY2Q4z1PaMcELoM3ph87N7zJwuQ1wnPOY8p5PnJ/Dig9j8dfxv6qfKxKyp78VqaDe+mQxEoCUtousu73ctGhV3+aVpywKnra5zTsdBnZMO3M8SgTRr2ytmhasZON1c0zheX1Spi9a9lGwy8rLuNrAfADUPE+/9LC9nyPtxXcxLOXHIXDeb+6Esr/TduxoqghrTw5HiwmW43THOwPWw4bpFfJXvGIpybQ5UWeSTC+2GKQGO5nfoTMRnYfl+pDXeBfE9udkh3PNR/nT75XuTooQh291PBQpTP7J++q4Bc5WPC/S9YO/3Fd53xJBQNdwugykkxxhf6nPfhYFTp3XNOsZnDi+VQTA84LMsV5A6Zkq4FrKePyeB2bTe2oul1/84vOhKxAGRdDGNmBNMTy8udz9yR/+20EQfM7DDWb6frm8e1qHURxkPKowhDlevjQppUcg3Ik48+6cnZdBh2x1/h5xOKo4lJufff5XguDPdMDuBp9lHK1jJ7OOIFSAuyXTLYLg9/a+pxNc0t9dri88macYJvC5vmBpy1lOcrtO17gcvU6r63OILSNQFVhlHt6Xvm/ZZfh24y2gZ/rVw4r+XKVPqqevG/K2sAZAgOFvfqvy33K+Vd2Hnp3gQ0+PE4irHN+hsHXATFVuZ1MO6OAOn4x6HY+SIOzhS2cPjlGpM7TXZVvZvpdd9UMSBMdRfxYCOJy83tgXazaq+lQy1lknXo90evzOMDj2qzwVkVpe5mXvRhnvlIgIBXXIMp007eH++2A//m7iJ1fignP2+vk5Gd4PPjXvOEYevlgQG6DvvH9Zx6D+8x04yAJ/ig35jgeiCLn2YNEREXTbqSBM0PPCB14G5ecgDJxMglA5ca23eQyC4IqJEBYyMBOEJBqVMWXHemelE/SOqhSmc4JnwBklybLS0a3zvCUIk5H0ixGR36sThKkBN01WOCzfsLYFii0gzucg5LMdUej6kDUI47l5pCJ5+Ylh2RdVn2hX+J5eLDIeq++vU1Q+JeWOpyIH7oDcqXnab4sg5DyjAx0RPxyGj9q9b74pgoDz0iej+zP22RGETl8pg/ZVzqBz2p3uZn0r3XdnuWUriSvvSxCoi0/hehmJNxWZrqYw9By2eSUGEwnIKVYnEK6LU9k6qfG6a2ncn0/aTyJC3bo+d1/12gQh86NuPj3g/doRBNL4oIT+8EG5yxAyAOFjZwGyZMSvdEQLNC2gdAwEnAwu5cwn1uoeRAc/pddJiyyMN57OhyWNfv7jf/v/PsM0aUQ6dghCXndjc6Y0bYC6noPggtxzJBVBcAPeApOz4LEHTFvGtAbXadtiGvcRxX5tgtCtQXBj6vrjCCBuTjEoeBSvg04A9P7PsJwThE726+vnIgiaJtPhIKuw8zzacrKADgKIOFlGoh0Yvdk+/2pP3Zb7ZyII6eSTVPlWpqOAW+V54xSbCEInm+cnexvhvN5ki9CfjSx0UaG8ju47gL4PQdhyTDjSjKL6M4SoneQmbnT4l9eP4I3rB3PiLqMxHXK5vsrY+93XHngExp1b9d2jgnqVtLyDT7skifCBZNemJPSvTRD0WvDlzyKbfu6B65JjqhOd9GdO3FhMCPlKXWBKLEkGkQL1G9FD1zHHVccSvTXZZct0iRYk/vCHP7z84he/uHzxxRcL6RDZGARBFVBiZxU4fN1T9ED/+IORuIE7QRhTWLOjyIqno7oBnnmtgws8HVqnDB2wHkbmOSHgkWBblzvNyVUEoSo3FfvVCUJz7LQrpit2C+jFsc96zkcXR4Ar27v0pUKNdk4GgOFgwveKzU+yXW8ZrYDFy4cgKD/KS1KHQUtvNS+HEerTFwI5oPOdY6jP6lumfwlBSD3Sb+wUotNFD7bqm/JZ7LchCK3Tf77uDMDRVIOBRZbjHQi3f3uO4BixXC90PjIAKcudbc11zAmxf3dy5nmlA6zkfcTOUh/pB9cl7xuckoeUIcB3FiWs6neNIEyM2MmC17++fne53E/TH57Wf+8RncTaLT06Yov+PPXgvA33BU5+yBf/1hE97+v8juydINA26oQMnUws60tiO7ie9c0GbkvjGUUc5vfKMEWhzx/+6EeXH3722VgkKYIAD9BCxYUgeGWp3AKWyvjxyj4AHp9XUVqt7Hx893gRQWDB1opo6D3yjeNZgKcgCEcMOJ35EcXo0rgxe74fCcKVIBwFLXfaCzmYhDq2lGGATgb0DIt4nNjckikWhfpCxfURt6v+s+NHAUOvk+s9hGDotYXc9Fz3wqZviyAk0Dp4qe4QnZeG9CvA7tYgdATh7jKdaEh/A1CdM+iud/hRpXcH7Q4U8oTcXJer/PcwKx0WOuWDo4qI3urzbRQy9dMxq7JB7AUHh567bpMH21CHQ9Co/mHaofD0bjrq1x2iy+wIQZgWQVYnNV4JQjpcJxR7+O3y/BAEIX2g95XrGn2MPrvvqOqIfaCbbg9qMzZK+eAguxX4zToDfiuSwFojP16cKMHYont3d/lyJgDD+c8kTWkURdA0he+UEG7c/dG/+YMlgrAIxfaoDwGMKML6NcwIxjsH4kAEYdwbGj6dibCQgDlPnnWBe357hpkGssU8XRidcnGdsCys0Nlcpbh38f50B+gKPBKsnBxl/nsAmjJQCL1+88SUcwJF68A7C222OXo+3m9ZP7+Xzj+N0IFoGJS1beorAdA0MnU58ztHT/6eCr9XjdirNjiwVn3oIy8X314fpqi7CMKWc+yAaUWQdsh5ZYfp2Ja6jjPdb//Sppc85wiCyw199AV1OfJNwuFRzs7BehQKAK7U2W2hjXzMD2ZZ/ttlv1VOEpKq/shEn4k/OG3q7Ris9L541nEU+TrO6L7yh0jgaIaDml9tTf2Qp4fXacuRT4/WcQKn95Hnkddd510XO5tyB5zYhlN2GXc21eEWCweJMKq+ct4pe2TNNI73R2dTyEmOmjQQPBy3H6rEeggvQ/f1DIMaXxshgqCpkzHIeftmbNNEJtSf9EozphhEEJIYuOFM3y+Xx3krye29ea3BWJg4r1TeWINA59CRbsBbzqQzPO/sowQB43OH6Q6GUGw6vQ64WSiXBu9tq+q2UhSbvz/rXFz5OoKQsqXtr0kQjhADB1MA0J2Czz37iEL1zBBpvjo7Dc8BWeVCELyv0YWqfzrwWOo4bxta8rPQ7Nk+fJ/0e3qWeW8RFtclJxdpf0QQPH1VDycIlQ17GR7uBriccOgask9by7lh+t5Pp3Ps8hG2g3FHFpMEpAyTiPj9dA4pB9fTiiCkrWILDMiQIXVPO8TOKh2jbtjaIA5BEBwjXO6Ut3bqWrQ4RfTcfpc08xoE8kkbz+tJENJ2U5YVQfA0R31MRya4Ln3DWctRO0HwPtRBSjoQKX1KZQvKG8LhfYmMPA+1w3UeXSAPrydtFkHQIOv+4WG8PdfzQ+7YIIRxEAR31kQMxAq4Ps3dXiMIHjpbWKyWp81RAq1THQss7B9nHbBP2u95Z1Sd2QFLdnYHfEPp5x0FOUKpFHAPyG7Acj7tK0Erf3fAwPXKIW2BuT/HszpJsXNsFUnIsrtnl7rvHZQ0WcdI7kePVn1Fv3uf+C4GlL0zprHSBVLazGlOFZkjWSIZppM+sjlDEBwQx77tuYLdATZdH/b7BG/H5jiRLd2sHESXPq+7fSyAYltOb/KZIwjYsfdhqffP9QpO0ur54bSfNUV9m9YdCXVxuWYEYMuuK2Bc5FuERXjxXOdg04HjxCr7rHQhyYTn5/3uZElt8MWzkg/tyvL128kEeq/rPIezGY5ufjFV1mvoudkZdUunTvncdzsbNltOPdyuZajkvYepELUtX4B8/bPSqQqXJSeiCCqL8wm6PnSb9L70kX2WTRnKX/22OOt5i+KI8sy2SZ+PgeG8JoEDvehzbGGc4TI/yzSE6uTkxqcBxxkYf/gHv/8qEYSVw7cIwookzJKg4XRQsu+qYyqgey2CQD5HQLh2VtcFVeTheVaA4Ua0BeK9c7k+hYwHEDSLFCty4CC6RR5W9Tv5Nsfsy5QLuoCi+mjHAciB4SqT6y4GSKA/c+Mkxh7s60IeN46jjhRQzT4dZGYeeWVeR/qwAsPMZ2t0m+2eDiq6dbRue1mm5o05ME1lAUyVbKZX4lzXJdHGTu+1i6H6c2ICOPmJhels/GVN3r85BwxhIC/Vz3UcPUMeToqq/sv2VXrt/ZwOI+VS9XfaILjoToZrGT0gzJy4onqQFqdEvyovnkOuY1Q83p7HQUrrqeWODJCeuqbtegRBOxmwoyq/dUTiqjc1Bqx7ywlC1WeVjL2t1Nv1zPuSyIHrqtegwtGUidJULx2jHN3DaetTfcJhZ2xFFIm+v5tIYUYb5NgZCDlxVmDn6XFKD8kZuDUfLZ46qnUJgyB4pAAW4kCi9QOaYtDf+vp1O8yoEKsqn8fLYEd6jza4QS+Rh5gXrZhYB95HCUIKUUU+PExz114nV3K/t08cplW5/FUOoWpX5rv3XKWI9Ant2DpqeYskvC9B6MhGGmnKGz2QwjJXiuxdPiiyX5uOUFifg7C+v35hznRIy1UnHcQqHesce9aLZ7tFil0+KYsln2YFf0cQ3JZUVoY7O/uprk+y56Cb9cFVnn6882M+jc9H927vDug6KKkrL3WkioSkrXS2n9e9bm7TLvs92+2cZdpjl09iyVZ/eP0dsNO+0lnqd9cmys8oT5aFjWm7ruM8Cw4z8lI5bPJwLKQPRr+OzK546f2z9LGf4GhEJR35ls06yaj6vdIf17GOIOg5pcOnaJ4e4tVhaGKS0nURBNWbaTG1TwsFZc8iBrzXgQWLo8/nsw3oC2wfO1wThGlhOBEdJ4y+9gBdGmsQ/u3v/+tvJYJAp6WT7gC+AxccpCtPpnWCMAlMwHd9S50bIgqOgew5kan86/GgndFQvy3i8aEJgssqlfm1CMJR4EZxSc8WQvpOhHPIbAngr7cmTs/VUwwoeBINP2XS9Y+FPak3WwShAqvXIgidA9mqjx+vytxoR0CqfNIGtsiu7mkpLPSrc4xuyx1B+OrLry4PbyZyiH46EUp8yHs8s0fm3IF2jtTtw/vA83b9zuuvRRC8jCRci3O6ux9yo0w9k8RqaedkKuu/cXz+NDeuP8i5fuvAL+mTL2D0tR8VJvq1lENHEPKZ7ndla0f622Wzh3fgPmXRdtfhoffz1mzlx0uWtAYh8Sx1DP3zyE+FNx5BhSjw5kd9Kl92LOh5nD3ldcRotG9eg6Dv6k/aCMlxArhMNfyb3/+DcVDSaLjmtUwAYx3CfE41B8zQKGeY6ezHIUl6mUWM0D2U4QLc67wOMN/3eoZWqO+9vc2sIh5OAsabvGak9OsJMNU9lbe6btMDi7Ewl5+NbaYSvH+OEILFIc9A4U61ep7xekcobq9PAFSlB9QgcGLLpHWdUj+5E0dm43wOnTU/N2IxAvvtEQoZiJ8yyT2MDDvA8AhbowPoPAZGHQnXDZCdEo8aUE9n8Z3jqXT5qhtbmj6TU/bkz+VPgKfXIz/NW9bm6Zj55MqbHIvn584Y8vX5Z+/PW5AbFThsmoBgRo+6DKooCv2l/gDYkH+XvnMwXbkd2XqN9Ht5O3mjvLP1l5yxI3dm7gAX57XsPptPOZ3nux2rFn2Qk7IpiVWadr3C/J6H+4xQ3V5n10M68JRDyiPxFtsGa9xhd7bHqJp1UeC18pC+8pIl3sKo+7wPgZ1wTHHpN0SCsuWY9cfphdiA8tMfpEz9JmykfPSctuilTuTDS5d8WoKohK7pnIMf/OAHs2lPaxzevnlz+cXnnw+cUBpthRSGjZdF/cG//v1BEAA/Z0gO0sl8nNneEIR4WVN2ZhKHJAud8zmMOgcTcsSnJ5864XrwkQN9p5QamaZCehvdCF2RbwjC7Eg7onGkWR3x2iJkAL73I3XIvngtgoDOYbjqi0/mvbnUA3I65szm8KQDkyaybPdseZLliiDEnLw7eMgAoAAg0f4M3QEEug9B8LlGX7zYOYA9kD+qB1U+1J/FZz4yqdJ7HV1fu+tOejz9ER1Ne8PGvF4dqeocPjqc9dpKf7auR9PvOfzM52z6Pb3J/CUTVtqz5gD9cDtPHPd+qTBsXAuC4Hjpo9npSOYrcSY/n2JwUjdeJjQuTCcvkr7Stc5O/PpZgqB6eQheVXHfiPx0jTUDEATHDE0HKC+l8zC+R8zIVyRAzltOHDKB3638i9KLpPCSJ+9LpiMoV3VSeqWFUCgNr3lWmcI03s9AVGEQhGFcEsB8IAwNdBKQW5CcMGT6MTMySMJ6jh+n4E6Hayi1P3PWcI4asJflCo3ysZTiiOINxZkzrDoxwc+NuyIITkLOAoE7+mzjEVKWacjPP1+LIGA0aiOGw3yb613KYyUTrYbW+9jjHAR/xqMEDjIuKwcdHAzA5cbuugrQQhD0iTNOIuk6Vt3r9LbTv0xf6QltcoJAmzu9OqpvLi+3feV/1iET1kw7PGvLlU0ntrw0z6NyyToc6afKZvfqebY+0gGcGI6PaIL6D52/4t/6qGXv79RJBcuGC4+omT+zJgpXZ+/kwJ9fro93p1wPQ/M8O32p6oFeggXezk7WyGnszJvX2oDX6JXnhyP2QYLwLLfZel2QO9FRIhMqh6iC+0rHJKVV/hAB0qmv9Y/piPQ/ik4wZfHjH//48rd/+7fLlIWuQwz0qaOX7/71v/xXqwhCskh+QwgQ0mYE4QBB6Jz/N0kQACdXKn0/QxAGsTIH1TmDCuyTIDigpTHsgUZFCPyaK1oFZNXo4ZsiCMyFQRBcB7JvVvLVAsXioCRP4xEE1znypSw3Pt3z44lTTzByX8mc+lz191GHnyRizyEcJQhOpCp92itnSwc7krantz6ynWxvmhdnhLX3/J6sqja5Uzyb/5H0HbZ18q2I+VY5Z/uJ9hJFknwhCDnwS7tIB5OOeSuCkE7f8wLf2gjC8pppSMJ1G2RirMvDCaqXD6F3QurfK3lD+sFpSIPLiF0GyovFg/S/n2CaWMq0pj4Z0WsUr2cZPDlxQ05ELKgDUx3qR6Y6WM+l30xxcPiS78L4tV/7tcvPfvazhdwRQQDXRB7u/tXv/csbgkBjqCAK5uFXjyBk+rvxqufrOQgpfCcXqezfJEHojfD6dsbO4fv115hiyJHXHkHoQKhy6lyrSILfq2Sfz7xWBIFy1U5GuTIoQKwiT64rg0yNvTLXxaba9qN30/uzHhGonJiuEWaDoOkTw8dYxjSHvUKXeit/2Hp3BDPlLqMLvQp3LLDcOvPyuoZhzyGUBGFS0GV0SNkuG9d/5YHsnUB63l5fj8w4yJ91dg6+Xu4RR+xpfJSq69Svk/FZAnKmPnv9mnmdTb+nD5k/eo2DY4Tp+O6yZ7otCXXa5FCxeYqhI8R7JKEkCCIHnMFxcorBcdPlxJRgEoQu4oVsiAw4EfCRv79GHYKA7jEa93Ux+E1hnf7RF5KlnLhPZbJuQffGlsO7u2XqAWcO0fj888/H8z7IYjpBeeo9C5Kp3sVAuSImihIgG8iK6qj04zjmiiBg5P6ZhGArgjC9VLcmCJ5n5Xy/SYLgTNAd5ZlFigOMZutaGYmdjNgprRvcWYJQyQ5grEhCOvoEJQeLLaLwWgTBHQwjGl+kSPsSDF2WIgdn1iCQl4cB1VbfpsSIijQAiozIp0B0fxALEYR5cSUgm2DpJGW06xskCEenGCAISSaTICTZqdKfcWDIHxAVqAJYlVPuAH1F2OewueTuB295fmcIwlkH3qXvyNMZeXV2f4TASHYc2YuTwJ5UN3de/K7ydf3OCEJnr4mB6FsSu7zuixTJw8vI7yxEThvkQKMc5G7pE3jKqBuZyRFLPnKgYBY7CyBjus/AQe8n4swQ9F1rDVQnOWgiZhydzLPSUfJlcEIaEQYWLqp+ij5AUFSu8mfwovty+MpD6UQMwDnlp7z0W/f1VkeV/7/+1/8a+Y8pBjVAVJDQBg9XIwaUiHsuEAyAsV2Ch+fXEYHOiI4YAA7XHb874Yq5u+KiLI+PU5gnwTGVjt9OECpj9zK8Dnl9ZXh2rsKRtvsIoCIIOKnMy5ly9leVj14ZWl3vyoc+JUFRWyEGucK6Ag8Pty0ynkcX7pjRR/Lgtztpwo3ouQNPfvdpBEZgbvwY91Yf0b4cLXXPuG25Q6AtQ/5jGm/KQe3xbUuMAJXe2wjIQM6Y51S9cMxZp7POy3VI5YEp+mT+U9f5zgIrPTf2Xc96waIpbwv9ljLht2ORj+Kq9BX+oDNVv1RO36953/go1a97vt3gwOtFRMedmjs01xPkVtW9c4IsoEPnkVlGELjv+Lq0XYt051GD45nbkcvf+6qzuxWBHwsAJixmtOw66X22Vc9OBn4okZ7H6bKToLIHl7vbns//y7Y4rRC7d9Kl51z+jo/cU31EQvRH/fXMZ599NmxFNiKCobKUjl0V+lQeiir44Ef56Jq/pfbNw5vLJ59+MtYiiCho2uHnP//5+DfkqQgCowyULEkASuss8whBSKew97tyUFvAm/e+iwTBnb7Xt7qeBnam7Qk+6cQ74lVFDpLIeV4vIQjZ74AEQIr+sXgGOQAIXneXESuckyDwG8NEn/10QQdD2peApevIx50rzox890YhtI889pyuOw9Pi7xcPsiGiEbl5NxJ6btPlXiEoarXXl1TR5OQeMhUQAYRIZwKpni9kCvPeoiWrWGL/QwHcu0n+pL+3Zv2STvp2ltdR/bumFa2YiQ/ByqJVVmPSicpzx14RVyyT44QBJ5RfhCTJCBHCIKTAXf0fn2Nc9PuhiQUywBtXmeUeOlkO591EkKdsy08A0HAzv2sgQ5/XeZgFM/zRkU+0UP3bV6nLM/b5XYA2ZCDVwSA3QvKS7+ZzhCBcLzFpzNIGXb3Ri9qmhaisv5B5eq70g1yMO8iWQiCC4OKufNww/NGu2JzPSMInfL7dVfQI0pfdd5ZguCOxRVYixRfI4KQSp0g093vSEW2eQu0UrZdnzn5c0fckbmzBOF5foFRKi3Ol1G52lIRBPolDXySxXSuezrUFYkozqF3YCf0iPNNUEsd4Td1lfM6QhAAEterTs/3+h+HTzpA3Q+24Zo7L283TqaMzJiivQ9B4MAmZUekgDlbwqHIX2lcNsgVgEsHm33s9gvpQAbpnNKOXO87p9DhjeftTsD70OWedpnydZ3gHg47iVPlwKt6dn1IuDpliX4dJQg6B6HCskqPvSzvb13HjlbXH94sp6V6OyqCMCHC9Npq5OwElb5yQkEEEGLr25crWWbElTREEjjxUOlw/vpO/qmLTFvoOWSg9Ar165pG9pBq5aFrIgc48yxHfUZk0HdH0Nek16dkqKkIRSHQUa7TguFUAAAgAElEQVSrrLED41/+7u+No5bTSDyK4IzHr6+c+tN4pckE1vYuBjeIzul4R7zUWCnHFTANc894UMDXJAgd2H8IcpDg4/J2ItD1SZKFKt1LCIKDnoOORxCkrG90UtjTdLAPDiMBeA1mei3Y+ohrN35XepyGymEE7fpbgUfqpdfFCQIg1BEFfy1r5dhSLzun4fn7FAPk42sZ9DzlgM0upH1MIU5bQp+ftUtAwHvdYpqEmDqdJQiuQx7BIVIBaHHyI7LzcqgXz5Onk8nUi6w/QJ7tqGRbOeXsk4rMOb64UwXovay0Ra+Xk3d/Btm4zegaYWNvI+XvYZzfRy+RZcr7CEFQmnx3Q0cM3Ma8TGzdn1t03SIISQpoS/a9H2wEAdUCZn/pFn3n+ghZSN1xmXneuu6+U86eqTHdc3KCvmedmRpknQPRsp/85CcLQZBc3HGrvRBtfYcQjEWFd3dj+g6CDe6BtbovUoAO6RmtT9Afi7V1nzzufu9f/O6YyYTh0DFk7PNfXtiNs3/SiYIT0egiCJWjAMgcrCtjrBS/MuIzBKEDPx2d/L4RBK9Hgl8FvkfSe3u3gLsiYnvOPwlEFT0aRn1yDcKTvdzJ6wWg4Qz0CeOuyJNf4/uiabbNdOVE7RwO2gfTd1k6IGS/kx+Gy2jORwcZxk69ZK4RR77Uv9nF4GCfNoOeZD3VLgDfbZh647S8DungzjiXzh7BCOwacMMJuBNC7jnK85GkY5PySkKBLB0AU/+dTLjsKzvp2lXZmztQxy8GUUkQsl8rm3c9J1xM37F9TWU5FrvTOYKTpMnjhNGNHDBST+9Tl51eUrZHCrIPkgxQBtfHmwTncxBk59Qt9d6fQ9dYR6B2aKSNbrjc0H3ZsfKULJwg9L7hGi0hDz2nvlFZGvGjvzkVRHonR3rOT1KECHCGgkcWlK/uMy3ibWe7sO7pGaJ36AntUZ201oAtlUrHeiAnCUQxVgQhw6WERlQIwJgRhHQ8FUGoDDaF9XeBIKTSOUB0BrQFWFuglY6l6idP44QApcKg/POlBCF1AGP2UWESBGSSQOoEodvFkPrljlX50l7m9tzBOCD6PDgAIjthLlzlsLgOMp199tJFit4GHGylD4Anh7K4g8Up+afbMrbtxOooEd0iCbrHIkWVwRGwPOOO3QmC0kJ2GN2hOwBk5fB9HRX6ikPr0nfk66iT9efd+Vcje+RMOne2Pgjzuvr6EG+TwN31GTkjx6P1hyAM3Zrf7YA9VvazRRDcVrP8JA/p1Dd/3z8sixRdd7pnnBToOyv0va+8fm472HeX1svHhsBKyV4jbz9XwG2O7xlxEBGQg4bcExlg9wJlQox0mKFee6DnIIy693/+z/9ZtotDKogouP2onnpO6wx0nZ1ZlK8FkKqr2jG+/97v/vPVFIM3hMaMeZ2ZtRJp8LBYAln+dudfEYEF8GN0elTRq/yPPNuxxO6o5UrRh7OZCzvj8DMtDsDr1NWPtMiZvJIpOylAHkkEUJ696w56gNWRT71bvkrHNScKb9/qvPHJeXsoT2kwZNo0HNr8WtMbI5qnzBK0HFQciF2XvV98JO5tUHq2N+GU6ZPKGSG7Tn+O6KrSLAsl9ZKd+R0L7nAgK066KuAG1AD8HJV5fSo99Xb4gMHzxWnt2UTnHJE3+umkbUvGKcuO+HQydyLr9pf18Pp5G5XOF6UOfJj1MdN5WdQn9Y8IUC4sdbk7WaBPB2m9XC7v5ncAYE++TgWS69hAH2Jzjq3Dgd4/LHP8tCuJifsQZHjVMZ1MOI3CK3t0W9d3RuGQchbjOVlZR8XuVrt7fI0LbfEpRmwzB8BKg3zY1shgwmUJ5jK46XxfpZcqM89gyXxcR1yPaLP3D75Zn95GEQVd8wHMgiUz1qqNylOkQHX667/+68snb94cJQg6TvN6yhnK6UaSbLxiYWkQbnT5/FHQ9HR7zC/zPEoQKkfjBv0aBCGNpQL2BO6Vs7QXImW/VH2T5KEjCJ6u6iPv0wrwXosgKNz4ML/edAEHhdwiTL/lEFzfKifTOfBslxMEjDF1L53o8ntede/lH9V1d+gOaA7wS8j08d0YFVbt7JxbVQ+AHT1IslP2+fyiqkqnsz452uZ+5lvZasq4q/9R+SIX/6SMSneQiZMXd7AZGTlLEJQep7CMIOcQszui4SzskDDay6I2D7kjXz3jzshllFNVyGM47JkgZPmJw8grHdnw3rao0cnpVV+uOxt8HYbSQhgcH72Mh/s3Y5Ch8knvWN31gfchkQRsLKcXIQg4ZJXlEUXX1S6quEQj3z2OqXnK8ik0J4FVdEj1UFm+5sAHNQy0RBD0AiZhpaZB1L9amKg6Q7iYeqXflOYLHbX8u//in43XPTs7cTAYD2hdwbNOfpvWGDhByEgC7NGNrDI8B4CKqZ919mdAwBWmfm59BoIDUTqR0TY7h9zbUj1XkQ2A3++5IndExgmCh1+VT/aLOxGXPQCdBKEjGQnc/PbnVwBb7GKgLrRbz06A1UcQGFnQtiqC4PKryIyPat1RdbrWRRASEJSv20TqCPnk9Q48euJ6Pe3QR94iT+PNq/NowCMIWaY7Ne+HLorgDjKdQqXrnR12BKpyvJ6HExKw5Uy5L8GFzvFXtl85RpxTkjgnry5Ll43bvfePf98iVW4n0hFFDOQUcCJM2yg/9MRH0ehB5UiZgk7S5E4c/4B9YXMLnox4634E4UoWrpEGJzfeF9R5YMibTxdb9LZQD/oAfMwIFnL23QzoHTiVxA8cqzDbp3FSV5QP5YMh9J8+VZ6vjXASozLZ3qjpAn/XhtIRMcDxEwVhykVy+M3f/M2xFuGv/uqvlgOSIA6q6+cQBITliursZSJ915MRF+czvw7alT0NsjKEdDKpcN8EOXAHcQsi9cgrAWKp9wsJQhKjyig6WbjMCBelrPmdztKvbxGEiiRsEYTKKd+9MkFYgfccQagAFqP2vq0MuErHMy5XJz36zkgGg3Znnw4MAHGd2yq3IwjKR+VqjpHV0uPVrYqqapGwEQTWPWSZldOpnFISStdN7rk9OHh1ji0Bsqub67b3LQ43bbeT1/uQg2xjRWS8X9PWGNX6wCvtPW2JdlXtcVLQYSz6gZzcVnwhHLrLoEJ5o8c8m84I/U+yC9GgLB8oIAMc9dRe7SVY71TCFlzHkqh4mrznvz/9RCPkaVoTJ0/bIAm+cLfSkWw7/cGonzbrU9ecZKzbuj6fI8tS/SAQrtvk4QTB24is3755e3l4Mx06Bil1XKF/2WKsNJpCoC9/+tOfjrpr/YIiCSNq8MUXYxvlOHHz668vd//in//OEkFww4YJPo1VYM+XO21jnMO5TihI5wbEK3ndaJJEuHGk4SQYHzX0s0DRA/Ht65vTeFfPzq8RTqBNAHXQWQ6imF+1Pb1Sc2LWGBadXZEEL5/0lby3yIGKRLkzguBle991kQJ3kN63WuHs/Zn1UTlHIghulAsw25RDRRL8ma2+8fZ53Vl8mEBOH/kiMlYRe5/T36RLx+YjStfx7joOgONyfZ5U91QOYUfKzPpQd7Zd6Xdu3fK6pIOjbu58Ojvac4gOaumQKwxwJ5GyrGwk0xzFEW+bY2LVt1xzB4mMFxt6ep6O146Dk1KvEmMWPZ/tlN9eDy+Xvtc1n9tmS65jNNED5OzOOeXkURyXafZ7h+k8o+kJTS88PT+2r2922fGdNqrOHoKnzuCfynnzML3SWLL49JNPL199PZ0voD8IP+uGCLGvBsPz9BiYpGfBtiSo/PbFwR6hgHh1eqf6YIdOzJCXk49qioF6Y7/gHXWAIOhwJf0pvSIIykukQoMLbaf83//7fy8RJqJEY/rk8XFNEFBAnP41UjByX4AeRXDBuoFyHnblsNzgXGGr60cNugKXI89uEYTKECqwHeWcJAjOBqmnG6EThK12ID8Mh35DGTB+75skAlsEwfOpIg0O4uSToPfaBMHBgkWK7uCpc46KKqdLfzqwepu6CAIjMHfCAiUWLlaOxHXUnUrVvx1BYM4T/VGZAhgZOQTBR0lej+X7/PZROZArMXt7+u2J1UgS2btjo9yKWEJ4Oqfj/YozSMzI/FOenSw7u+qcnJfruOHlO7HIMHQCvLfN7ZN2Ikuec1Lour2QkHlFup6Tnqh/9cco1fPRM4S3ccJb8ljZ3Jww65lYSr3cuU52prffVgRBA9DpBWWOfzg55eNz5jjDTK/Vcl99eT1MiLcY+hw70TU5SxYe+noC5clJiCqHUT7z9dgN0wKkpd449i2CQH1ykaJIFOc1uD4hB2zLCQWjf453Zusk9gVOsOVT9eJV0YoYoCuUofaMbZJaSEoEwZ2+O/YBmApfvruuRq/SpoOvDMCB0Y3iiDP3NO/zbFXWLaAfn2KY4ivXs7IBOwcmN6YEw8qwqvR5LUE4ZZLkLIkI9zuC4H1cEY68n8SA3x1BwMhGOoXOpZBjLv/aQ7TZRwpJELTlB6deOWaXWxIJ11nS4WD1O8O6OOaz+gqhcIMHQNNuXNbZHlYaO0FRnoCFvis8COjpef0GsJh/zumQ1C1vn+uny6+TRaWX6AL19qgE9nAUG5yUOdF2ApFRj63+8jbhbJzM8L0awbktp8y69lTydNv1+rACfxmozTiTBAHntvSrgH0eCa9tQ1GmKbzvep51RaeW0fDj01hIpz9GvThe3sDKKNrJNg5H9b0u4nsaUQR01SNZ9KfuccLgNSqmdWETzlIGcqAtk0PU7o0pYkB/QoZwmMzPK9wu+9AIW05SDpQQu5wqo2necUCUkL6mTZq3V305t2Is/nx6uujgMtrk/kD1VloOLOJUUfJlYOIkSHWB2Pj0phMclUs92FZMue4PnBSqLrRd+UIWdP3XfvKTmiCgkIviav3B4/W0xXQ+pYLrmbnFnfM6C7QOpi999rtCEBL8E6QdgAHdJBMOUO9LELo+rSIHDmLVyBBQGgp+mfTGr+EEcZLj9L83b+aT/m4Jghu7A56mac4QhEp+yo85ySQMvjKZNrhxpS5lH3DfyYCTnvGStCXR9auHUT0PAJp2+Fyq9MWnMgArXvaC8xgjg4eHa7G23WzLNq5YMM0inyUIPpoCXzwUmkRuVRfbqXI/Lwh1WbstOUFx+8i2VXpLHSCv7jg73dmyyQqvOsLlNuIkuMtfdeRf2ke2G5k4QfURaEcQuO4EhYN4lFeO6P3cCpwr9rpsC9bumvuJaEBccdxEOyAPkJGJFOhAo6vjR4d5Fhu7v3sYRzO7nakOOFLXAxZvcl4ABwgx4iZvpVN+EAvyHm87nHcRsJhQdQU35Gxx1E7I6A8WDHJuga6jl5A+J74QN11Ddtgh8vY+RvboFnXI60Q+KF+/1eYfqN2KILgCoHTuBKbN6beLFFPxVs/MPZHOwR0RitwBawVYH+JaOmu5NTeyypkvdT8ZQXAg9HydPaOYGFEShARHjMPB0fu0c+iukJk+iYEDapcfiuef3SJF1x0c38SMtVtmIhRu5O6YAXA/B8Hb7qCa8r7t60mjXC991IgxuszPjCZXspidMQZZrU1IMuF66E7W60wd9cloRyMh/fkID7n5nGUC6VH7crn6M9kPyNXbinx9msK/V3iQjtVH0Tg78nXH1vUVaVOOyD/1rXLUnaxcNo5/KbPES+zRQZ56LKP5eSGqO9euL6hz4jT2lutU3AZ8xMt1yVJ6RQiaNTreF6TlGvJkVPz4+O7yyafTK711xC9YhywJ57NCX/dVFx9VX9uliMJ0AutyNsHXmr6Y0vvomekBxxp9lwP/9V//9eUURZWvQ4LQKdKrHpIXZELto06KptBe1YPIDzsLUh/oO1677DsdXHdVtq8pAjd03Xc34CfAAeSlNKRzOVMf1YOIga6xVkWnQer3G72w6Z//s386Fil6xw6SMId+J/S87mJwAuEOPh1/5SwSiI+C0YdOd+s0PjxByDLpfAdPD8lW4FJdQ1beH0cIQqZ/TYLgIDl746FfDmCMbI9OMYy22zkIRwgCsnHZbzk6dyJ6ths1Z76pr+7wAHx9Agxeh6yP1zUJAvakfGTU0he9rlXPKOwpMHMQ9xXTXudOBlt2tyU3r3PlMFzH3ZG4PmR/uoNOxwq4+YIvQDgPA0oy4zhF3zjRcGd9FIeQzY3ex1RktiNJuOscDivJg/eDTx11dXVn7rJPbHZ5c0918LUNOH/qhjOiTjhpj9A9PT0OgqB2iCAorfTU2wcWgImUA1nwcx2mvpdTfjua/G4mCJ6Hrjvp56wQomyyGU0zDKc4Hz2sst3XQd5ok8sRIuD15VlkodjHmI6efS2RBp9i0TNO5tBr1V91hZB4vZI4Mp3i9fOoIVNBDCR0IJKwQ2l4s+NIc7m7vHmYCQIVQwj+e5CAcQb/1DhCH0qToQmec2VLA0wiQecfNT5IyZn0e2nTWX/oCIKPlrw9Xg+PKJDGATSfc+BIZ+8GkiDUEYlcm1A95/kmGC5OMU5SHAHqWZe876XYRyMIGNFZgkCdFqOdR/Spo+iLO3bvgwTPLr074SQJ6UTIf2mbbZ0lnyQsrgMiBMqTbUwa1RAa1XUcpp45E0FwmVW6mraVjr0iCOTpozRvY/YTjtI/wSKcksK1ECBGcCxsq+y/0lf6FWxLx7SVj99zp+3lQEBcX8DcKu9Oz3INSRLXbJvr2lGCkPVBFkkqnLRqum+sfJ/XOMie5Yzpo6G/d5pemKKEPu3F9ILKZToi+5t+4Xhgd7Y4dK1BGIdG2WvNITZEk948vLm8eTttMZTj/dGPfjRW8YNBjktOFnUdMoCeu655f9EHLu/Eb6ZQsKuOmPKcDxgdj9Ahohc5ZUpf+rSF0qo84Ybko/UQkoWI0hJ11DbHf/Y7/2QVQSBzV9zx4owTBIGtkZWiAsYJvntOPA3wTPq9tN8mQViUalrCezN31jmmCoi9nenQ+X3E0bvxnnnOHW1HENxwqlHD0QgCoMiaxpSHO2c3zCQHadSAjp4HUJz4+vUKRCtdIwSIfNKBuJ3oOw78Vi+n3NNpe9uXUKtGAfMWWp4BrHxU7fLYc4Be7y2S5PVGnoSznRRUYWxGR6n3lM1cKzIljKq8dE/XCQP7SvRsm9uBYxJ93YW1M58Kx7r+7QiCryXx/kBWDvgMynSNFfA4hnRASbTAdJwno0l/LnUx+8H9AvqFnPU7SSx76he7f1a9vxpiFKmjv3k5kX7jdL0PXJenUbzW0UxTkdfBxfPlk7fTegH6EZmjG8hSZaMzco6qn36zHgCZeD6MznmOZ9JZ85v06IzLDicMSVJ5OHBwJ3WLclUnIhnIBbugDZAplY2M/Tne9aB8JAtFUUQWFFHQIEP5vRNB+J1/cp1iIDMasghHHWGnKHqDK4VykPXvKH8Shz0H/r73Na9d/TlArZzr/CMBOkc8OCl3dBhfOqgE13RUaYiAFsxYn7BsD4PRBl/g44aK/I84evrb+yyfq4A19WHV58+Pq/l9V/obMB5vb7suMPI+IbxG3h69csfrctzSm8rZ4WjJO4lB9mm2e2++O/Wpci7Ks9PLfN7Bwedo3eGMNuldKg+T/lSj9kpO6eRSrl53T+sjSvqFaz4CAuw0YhFA+UiTELKfgQ8hQDYsGNNvQsYcBoRjIa3jjZyZnvUoSvYj28F8gRmOyJ2sOwrdx+E6AUtbArhdn7Mc6ovzAGfUj/7KYvpZ9xnZyiETjsZWHZ+8H7Ov3Lm7g3Tc1jY8nemgtK5n+k3YmtX2bi8LQYj3pNA25MScO/WkDxMv0Qc9J3kvuvUskjivQVAUbt42iTPnE3179/XTOEVQdWY1fxId5AK26zd95gsY8Z/UHRnRBm+rf+c5lzN6Vj3DtEQ6f+/bxT4lgnlXh/yg6wRkTBEU5K86SH/GLo6vjCC4I3CnMhWko5anVbOu8C4QwIDPijigdG6QWyD+Wvc+NEGonE06/CMEAefgaV15MAp9cl46TsnB6peNIGB4Wlz0+Lye68dpAxzo34MW0MznT7hyp+w65+fg5Wl4fsuRUif0GV3fIwjoRFf2metOFnA6EAYnUQ5uEJ+0wzMEgTYkQUibzrroPmFN5IeTZ50EZzPw+/HpcZoLffNmZM/iOH1ntAVxxkk6yaOOPjdOPbu+Ur0hUuAdn9TD5ct3feIYGQGnTBjJKS0jwCov1cHJDY6c64wWIRCOByJXnLJJ+zuCAKFJZ6VyfD2HQvYQE0+7DCDnETvEyIlG6ovXCZyCaDBX7rpNeY6Nqa/IZaS9nyJwXhdGzn5gFH355RfT9kbaIrJKn7D9kN0KREqIWum6vwjJ+22MwC2KR9nUxaM32ErlQ52oebvRcydKKWv0Brt/eJjeUwHB0asTfvzjnywvaKLfOHnxh9//weXun/7jfzJ2MVC5/A5BuDytR4IVEchr+duByQnEaxGBPp9p0WGlWNV1f7eCg3o6DTeWNHhXaGe/5JeM2A3HgRxQceVTHt755IWSc9/l7wTQr1Oug5eTwHzO9aNS6NQj7WLwvnaH5QAzjajuL+906pytDUBePkJGtgl8S1/N+8C39Kpzkl42IO06UPXfni67M6VOFZFJwlHpq9fbgbSyLe8f6u2AW+VPXb1+gFHKobQdW3zquqD+c4KAQ0evAS39FvBWeg9BSEeLbrhNqM5Ma+CAsNGtdjjxYFTqDqxytipLZfv0R9Xn2KXuYePj2uPjGOnqz6MGPnpOWTMgoC0CdciSCMLYiz8viIOwZN9CaCBLyFW/lYd+M9/vU0SOH9TL2+T4Qf3cRlwHIYlOzHCY+nS79+e8PBbUj8jT5XGRg+u/y5vphqEPd1NUzaM/RGNoM7KUjEUg9Ckyy0FLyFvpIbceqdJ1dizoOdWTuf/EIdpO2WCkkxv0kjp7O8kPXVDa8e/Ng14atGwBVZ1Vxm/91m+Ntqs+EFd9Smd++//6rcvdP/6H/2isQUhgd2Y85npmguBOKBWlAso9ZdkC8de792EJAg4rAR6FPkIQaCuKDDi4vHVNnc1iLMAVpaocO9e+KYKw1hstbt2fYliAYOxKWL+cxR0q4OzAUelX5XxdlxK8KweIsSQhQOcpw0d6HemonIWXmY6gcy5OCNzJ7ZWbZPSIXfGM1yXLz3wyresCDsBJIc7QcUTA5Ifk+CgZffeIAA7EnYrkibMjb2wHJ13JgDw0taE/Qtc+nZFTXQ7WOK0tAtIRH+xeedA+gNqdTu4iwAH4djVN23D+hQ440pn9bif0rc9bQ9Bwcn7oj0/vdLoGviAfHFwShK3f2LUTGScFrscqzwdo6Nf0nofrFmml8SkI12t9f5qPIoFc0p/6ZPuk2sLZCJqrZ/6eyIKcK2coEAXx9tOPEEDljV7TVuwCWes+uzvkzGmrL5Ik38Q7ZMNanKtfvoyo6yfjpXiTnv34xz8eZFBtwI/pntr2Gz/99StBqBzIwkxGXOLd2Jrmipbfnck4s+wAskp/BLzOprm7ux4Mc+hZOzrZjb2LICzAOSVejYArcM5r3W93RoCPlJYT9agbpMGJgo/09eyHJghZnk7f1H97EQSUeQCLrUHogARZMxrEsHC4W+QA+VS66c+h1+58MJ5h5HPoO0fjjMQ6HbsaKkeITSlxfLRtiyBUTjrbdZZIUN8ln3ne0uvT5enO3fNJGaufAF/63OewkT+RBkbyTiicIJOfyxy55Sg/ndceBiQpUb4sCGRkhqxoE4vbqgiDO1XIBvrEPXRJdX33+DhO4mOkiyNSHQj/4rz4dFIhsGduXPl5NAF9U7l+2h4EQfkQwUEvIbAut8pelAcOkinQtGMnxl4Xrrv8HBc9reMccoRgaYrBCTf9pTbRXhZOjt9zBIE8SQ/eUh9IAbuE0D89JzzWdW0XZGsx7Se6QHrJh6k0ty/XXfpCearv1J/SM0jIkNV8ZDrTYZ4XxI+IHXp0ubu/PD1OfcQ9PedRnIFvj49DB3782Q8vd//oH/zD6y6Gcazy9eQ7JwjPT+9WZyVkJzlZcEU6e33PeF9y/7UIghu6G3gqtY8yzhAEjzg4OWBEpLw++fSTy5dffLksNtO17wpB8L4GlD2CoDYt12fFxBAnmd2uQVh00Bbv0WZ9OjFxsN3Tk4rcejSAeiWAo/fu1CunXZWfBIFRCzpSAXGCMkDpn+6Mvb44Twiig/CefNIBOEBn2WnjbidOThkdIVtGWW4j2AAkmD6mDAHw1+++Hse/A460BTLhI0ulwalCPnDqKQOAGfJJmfr0KAKLImmHPgnxY6tOllw/VIZPI6Qu4+jRBY986DnuU0ewxhcmQhD0LGDvfYS8FWlwGXpYPEfuHrlMXUCvmaNX2i2CoOddxhDFlLvrUeIoclbZOLxRjzv9Xh+SpGe1EI+XOLGlT8777jKF4PUHCZSOyUGySJYIDnrE+gX6BocseWrBo9LrO/Ymx668lKeIm85/8HdEoCvKj0WmRCUgCMpD71wRCWFqwdeJIB/6Ar2AjE/ERuejTPViQWke8gS+6f5PfvTjniC4cbBI0a852CXwOWA5wO9dr0BrKMk8p9yRjT2wY+tcB+R5vVuD4EafIJkK7IZfPVeld+brdUK+XPPQYAVyyHzdh1NKKYyPusl763o6/ooIpG4sdX6e3gqmMTP15x6LgFhQJCP4/MuvlxEAyl3JauSlzTXLgd7X/Cui5TLUKuyx8GqOiLmj5hp9kQTE+9XTEjYkvTspRnCdjCEbHhXZIgLuvEenChfjbYEVgeDaILST8Jb1IW6nTljQlXQKTqayrr4Ay0Otnkc+nxjiRAyHztSa9yUgTXrHGKVbSIneSjuHnp2I8ZzSjtH7/M4ZABQSgI5AFtBlHD51Sht2XXTnjpNBvj7aY745cSOjD6mj6Bc6qucZPbLI18kJaxAYofJugMQb2opDcntEb5yMch9bqPCZvqENkISKfCiN95kWKLNmQ2XRttFH99c1TC572sCOGZz/w/3bCRMfn8ZOH/W7/rEGQ3moP1Q/pp7QOc9f+eq1yRkJ450AACAASURBVLwLBQKg5+ScRRi++vrryw8/+2xEBNAb1Z2pAGTAlk/d07PKV9dUBlEkIkdENpA1xEB9Sb+q7b/5m795+Zu/+dvLF198uayf8P5UW9RmylCdHnSeBBEECnBAwGi0uUbbHFEG73j/jmIlKaiu+7U9B+9M8sxz5LtHEBLgIAh7IJ3305FVI5Wh7DqhSv/ZauX8fkNa5oVNKhPDrkac7tDelyBUhNDJBYSjIiRJEDQ9NRzT7JRph9qJAX7ve9+/fPn19IIT8kQurgPp/FInABQfBTnY0k/oN05A130U6s7Gy/T66VlAivy8D2T0OIOqT71e7lzSOSQouzwyEkGdUmYJvmmnKSNGabTHiYnL0MvT9Yog+LPeL4k3V5ud8MaJgr77yBRChdwAPB/he5/QT3IwY2GbnWxHPXCgkDqlIX/s2Z2Z36esRY5TAxZ4S6xUfXAGYyuaOO+8bc91D/32KMZCKJ4eL9p6qLYTQnfyojJZme86RF3VJjkGfbL2w/HYdYi5cJwQ99ATZOHle15pT+TjU02Vji7YOL/fx6eV6FPqwBqEJAdgjNLz/LDLsfVvIofcg+yrLsilwl0fwf/2b//25S//8i9HE1UWW26Vp6IGTCuoL3SUM4Mf1keIUCg/RTpUd/IGm9wudJ8pJKIeDMLo1zHY+vzzZWpC5fzsr3++bPsUgeDY7J/+9Kfj+//4H//j8vf+3t9buuz7n3x6ufuHf/8fbO5imKzoadqBa2sQUNruM5UhQTyfqxSpUhY6ckvx8h7bHCuAdgPguwhCdZ36OJB6Hd0AF6W2g21gzTBeN6gKfL08VxQiCJUDcLkmWVB+3Sg2r+ezFfEgPz6rsvWyJgcAdEiHb/GiJSn8OPlPW4wu19ECjmfl6O0lYC4z101kz3M+SkkQQ66kdWeYhMadIo7LgUXXmDsfZjOPSrW2YrwC3dYb8N0Jk+tnpX+pv9RBe5dURupDpR+dXqZTQB7u9FJHaaPbAzIgLREEQDnbgEN2fNB3hWE9/P1WW8rml+O4zHiOKQlW3Qs4WayHbjMaxNG743XiC8FEvsgA4uF26XjUYRw6xUJCPa/6qu0aqQns0TXXC5XvI0PsTGCuZ5ADIW3qrWeIhLAmANIGqXKywT2l1XfHJ68PIXq3FezH7aAi2YnJrofYjBPk1H+Xj+umO/Uhj3mRohME+p1y9MyyGPbd9b0vaQOkI8LpUzCu58pLTlYjfSIH2IbqhDxx7EoHtklffZeJCIL0hNcw6/M3fuM3VhEMX3TppDPXI/haNZX3+edfLoNSXhSlvDQtojL/5//8n+O9FOpnLV4cBOHv/9//T7mLwZm9YpEjKBkEYRiEhXkXB3FlBxO/gK031ztysHLEI6Q81aECvgQrz3OLIAwDmKxgemSe0nAQmK5fD5xI5U1iwH0U3uuiayhM95wDsY9WyddHjJXsqn6iD84QhMzHld7zA7hu00964yMudzjuTKcDc35w+fT7P1hFGgASd86uFwn2DtIOEnoGZ6RnGL2gTx4iBfQ4mGZsHp51g5EessBAGdHRN1W/ZV85AXG9Tida9XFFFlJGlf6NNIrQxBs207lVRML1crR/PjYbG+IZSIGD6JD3teOWw1u04POKDxOe6C9Hw3o+Q++ubyusmPta9XBHijORXJyYuE3oHjrlxFK7AcYhQUH0VAf0m2dJg66DpRAE5S9nw4p0FiGCOegC9cTJ6FOgz3G4eo5jiVl3ADnA0XPoFCNSn+dXm4aO28vRGNlOfTpFNRK/IC7IjTwhVFsEwWXj+upEK/UMvXLyrr7wV1DjZO/m2YcKNxy3weDnp+nMifGPt5zO8qA/9amy0RnWPIAB+oRcqW/47TgtGSmNHPPPf/7zZb2Dro83J/7gB+M5EWN2TDCNIPKhfmfaQ+0gIsGCUv1WPhBk3i2htOxIUbO+/urdWMOjdMpf2xxFEJT+r/7qr0YeSj+iHl98eSUICN+JAd+lI/fzO7zdGbiAFiO3V7NW91G2Ln2CoSuLK3IFms6mQq1nfL+O4mhHOvtR5wMRBH/OHVGl3FwjHc5JZXENcOAzSQZOS/cdgCs5jDbwwi0bydJmHy11xOH/Z+7NtyxbjjLPHVNGZOaddDUg1RKLplks/uAReKDqZigoJNAIVW/Qq4sqgSiK7n60LsTSfAfdm5kRGVOvz8x/e3/bjvs+56QS6LhKnXP24IO5DZ+bm5u7Aq2KmN+UR5t8TOeZz8lyfgf8oHuiQbjHFBTbZlTyIJxfrA9ucUF32jj9K2h0eju/cd3p7wYdxee09j75+/TdZ8juKfHZnI+xj1eU3fGIuLJ0vqj878aq8p2/53X2DH+VxUpzr9cVPOMJ/THAI4BQZX+kH9wgVnphtPl0fQUgGRleL4s2uj5j3HExwyce+wBfO5Bw+vjsFjmhjdUbQHtoNzzDEqIMCjwFqMCzomdkbLRGjXsaN7rXw5hg4BwQY/iqjDhtql6qYwjNADOS6R6Yc9oDLOAzgLLTo6dfZ3vUlgmgr0+6FKQoDFd1sspmqU/fAZv3d0tOCgfUKjuMuk6YNR0KGGLmj6eKuAj9ZveBxgqwSX/YieDr/8QhqF0EN2pMdV3GGzoRUKjnWFoAAJOjAW+HxpClDoEPBTcqPbWWU/Qd/a6lEbwfgBto89EvfjGd/PX3v9/0VGZMjO1pco1GauWgTKDIngehCjiC4kwUE4IDQUPP2LkSdIboPbsfIAS7z86CPDNiCW6blV85KMeZtfd8nak6o7kQ9ICEK/aq8FVXLQuFNjIAM+2b4XUlxbvHAIQZOCoGJQezHbaUv3MtVyBAv5NvPPhNwLLndle5zKhAuc+eP59OTls64BZEtwh7O2GzBePpHXgVWkA/9xC4EUMBx7vN/Q9YYWxovxvCaiAxHCg6xsmNlRsKxrCOrz9PH1C0I8Xc5dfmVYOX6F/lW6/D6eKKGYVPWQ4GK53hDQdooo2u++zbQYnLbZStrbBzKtgMOWXSSjl4Z8Qv7O9n/HCVqw7WZd29Thk+5g4AXYfRNgACY4gyhhYqC3cuy33VuPCsyx+G0EGpvjPLpy0E7wIQVB/b9KTc5YaW8dE1GSNiA1S+G2jVrd9E4autyBzLJe7dg48xHq6bKh+4bkI+ZMCYyZKdsOppPavyfVkD753zYQUI6C4HcW4PZtCvQ4Pk8W5eAfqgOvEyqCxm3gpS1JHR2kG1kpeTadKhTkrbnOYreVPBjPCadpTdvr6NYEA8CLqngED9/vnPfz4HycKnZF50+qEf1R+PSdB37VyQx4EJFfymZ+dlowg6nqZnOl+ieae0HCdDp3flJfjoo4+mV68Ua5KgE1lWW8VD9EF8JRCjdv7o//2f08l/+t53522OvITic4PPd2d8VzI9cBAKpB1CBFqtz1UG+tf87QrbFe99O7thdL9edwb3ew4IfNbqirrOLl3J9+qHfqB8FJMr6RiXDYDgYwmz+JgjxC6URL0rH0ZVfvCBl0HbffaEUtfzqpc1Yl3Xd617PVikedJC7r/1IVazsopxWoI9oeVoxr4DxtqyEQFrUVoDD05P+uKzVi+LPtZlCp7BaDrQ8FmTX4fmPSDQM/jQVPdwKzOLoA76gqH2Pvb6qboxTrSD9Vf9nhOw2E4IN57MsuAL1Ve9XrSB2T6/w1vZQAYzaX+/t8yA0nRwgpFXu3AnO6CDljJqbFFkVjiDxbaWHyDjTHEkuTShf7iMvY/Q23lf3wHD+u7gUko9ZqgG8Fh60DW1h+2Lqkcyov4TgKZ2aHao/uk5Pf/xxx/PM1i8BsQhOCh3XmWM4VcAkX4DzqCxG3HnUaeD63CXE9c7Xifv9q7Bs/RFvwE8TjfqifhmS5TEderu6YgKJvQskwwAFN4HbYtUW/jNfY2DeIktkqIhMQAYc9WDR8H1t+tw2qk6yKnA2KsvuP+jfi05XV/PngY9dy2Q9vp1eAUUNCnwKKP/9a9/fXrx8tV08zo9PCpbQJP2ZnZIHfC2BMq+evn5LkDwQfSZpg+iu3ocJMAYrrT82v+fwEFlbjfGAISqpF1B+/M9BezKuH5/GwCBWQiCXr0nPYDQM+wwuI91BQuzQQ7rdRhAYNxruZSlelFqgIU4NKSBAYyMz8SrsHvqUKexz+ZGyqqOX0/ZOdJGiThIoC/cm/uaQjEnzEIpOBDwvtTrPpbezjrGTmO1QQl2ADm4GOmXyx7GDYPGjBs3tp4lixt1+kwdBR1lt3gGBwhuYPWMgyHvT7BTix737xX0MsMCmNAmjK+DDL7PCr0tF6p9FaSoTvEgrlsUp3sHSICE5yIOsWmzUUAI5XqQmMuMvrMdTUY8cjnc3gago1zGEjrrHXZSANYACLwPUNG7eA7kYdCMEP7CyPss1e9BS5ez4KV2qJWPBWPJGLrRdf7y+15XBQgjgFHl3I2m2uMAobYpDnnsLN2io33SVr+7rhCtoaMDQiVW0h/8xSxedBRI0DviEXfjk5gJAI88QHsAnNpIrgXVwZZJPUfwoz7lVRDvCRz86tNPAxh+7WtfCy+AAKLop8mWfqu8n/70p9Pv/d7vTSdn59Nnn6XnSR4etnSqLu2sEJggX4T6/PzZVQIEV+KzsWuZmjAgDgRcGVSAgNC60czntf9+nUHOB+Tf4ntVVvwWQBiBgd71nsH3sh2h8iwG7W14EFwZzQJdPAgYuwoS3IMAsEOZ+tiS7xyAwD2YnJiHqhh7AEHXXAHptwTy3ffenc7lGuss+0BD55OT2PGQGsEBQuUlH4s6fvrtBpp3oYWPF4rLZ+Zet8sKSso/ezxeQXOvPbR5BBAYc8YSBY/xre8DEHw2o7Zh8FBOKocydc0VGuPqhgVgWWns0f/QAFr2AAKzbMaAiH/NnPES+Dg5GHJvALRUOc5vlA+4ZtxiweMhDTM0ZL987AvveDYoV/cI/MIY00Zmv/QHIKLPSNZja+oABL2LYZIyVz3MUGkH5dIGrVfzjCduIumPnqNvjCVlscffI+QZc+hDOytIxnXfAwyMs4/Xlq6vz8NnvMPMvvLRDERaHgTkrifvDgzwjFAu96SPfHcJdo3jpB0g6F3N0kV/YkJET/hLRlfjTFwBNKduPAX6TQAjgagy9KorxvXqavrk44/nxHjaGaV/7DpQn9UO9UHvEdiosgQQ7u4fpo8/+dV0eZkBiipXn/onYKE2fu2rX5te374OcHGh7fh//d3vLJkULSUvBHFvQTUujhQdNFQPgxuaqhD/LYABdfpM0xnpYVrObugaFzsMyA0TzFVnQP7MzMgtB8KbAgQ3PG4YZpTeAQh1/FBCDgx4xgOzVkb//jbIV8ty40V5I+8B91E8eBOev/OOomFnY++CXA21yjg9yeyLTtMVgLBg056iGD1L36obFtpyfUvp9drk8gIN/dN5zRVg77vXTXs1i0ToKZd2+Bj2eBpAT7msi7u7eZ/cqAzWuF0WcPF7X7nPHvw6Pt5+D8hy3nMdxZo3bl2fmWNI9al63TslQHB3n0dAq/1nUprn58FTukYAIAAAo+kAB0XvrnzVBQBzMAVYwdNBjgL31NBOfaLIRQPGF4AKmACQyDgxS+VZ+uqHL+l92sQe/U8//TT6TzS9Awki5p1uPg60p/IpPOVjW/V9DyD7865nGLvKvw4qtIshEvs12a863vkSAFn1s/O5nie2xTMvEhAKOPXAUn0XfVkiAripHviUZEnM5lUPngcAgdrhuxsUUCgAoPGIehuvAu7IbaBx0hKDvAICHGqrzpD4/OWr6e4ud/aoPpan9FvLESpTdah+vXumHSECCI7SqjehN6DVGMQgJsfMa7jzzNK2JbqS+rcEBs7IPcV0kAehgQS9j8FYMWrZDuXGzpn3TQECStfXhkl0EnQuAKFn8PXcoR6Eeewe7lYAwRWbG0BmkyOQgNLGpaZ2vPPuO9N94xdXRq4QnF7yIAggAB6qgnLBH4GBES9UxeW/mTHNM09rs5eH1wPl4W3ACHgQbxeMdrwpVXZ4D6PDOn2VN/gOw+Xl4AGiT2y9w9A5WIKubnjdYFZvjwNmB1+6LgUGqEFhY4Spm+vM2uA5AILa7EsAuk4chrfLAUKdxNAub7vKRRljnOBrd/urDpYOCFbz+AIH8HgmcEFrdslSAvIY4Ldth2aslIUvTn1s7nOMkANAlh70rtNE3+fAzYuLKRJFtexxtJfT/NAh7jHRs86bVd48K2cFA64THfQ5wKgyWMuoPIMsVhAQ751kgq2VnrCJAuPrslDlUuWzXAQw1GcsRd3nDgj9Q/cCpvFCsAwlGop2GHwBOAFCGXm2IXoMAN4kjyFS21SexudLX/5SBEnqO8tT9wILApItI6MvYzDm8Nxnn7+YLq8yAFFlKucBoPDHP/5x9ElggV0Nr69fTSd/9Z1vNx215Dmoig8CrmaNLfrYr60UTvNGOIrkWTckO8xWdjwcAySqUq8GY6RYaxvwIFSh6HocTqbV/uhqICo6rb97jNwzbJVmKGxXYD3DAM0Z0woA/bePO0oNms4K9TGVlL+n36zFOT94GSg/3mMNFmFS/+RBOJFbyw68ckHepYvi3/sAgbHysnr8UBWY1vDZ1jSa3WAcqvEAOKCg4Cto42OIEqpKc0sRV8VZQQ+GBcPJzM7L7ClfDDGzGGau4jGNod6pAIHfDlB9dk4bfPYM3zCOep7zAFhXDmN0qlP2MiU48gENAQnOl2oj+QCYzTNL5n3XPQ5YmH1jBIm9wKhyHUM9G9rmZaBdAFr1TdcYXwdp+k550EfKnrVgDLsDo9hN1naWMd56jqUPN3icMaDn2L1QdbnLUNT3oFToef4OgE/P+Lq4xiPyDrRcAFUOXebfNkBQeRW8OQ2pb9bNbZtjvc79ChCQUfQAfHX19Cp21zgYDVs25TkPHleg75nHZTG+eg+eZHlIngTRVeAQ+QGI6f1IFnd1NWe2FKBQOXpe//S+3kNnviuPawvwJl6Btul51aU2cFrj7d399PRZHgClurQMobIECBSnoPrEN0rMFHV+9qsECBAFJlkBgWawq0GAsFUAUHi9z6r8XHk4IzAobpAPAQq8twUEqlLtlnuagShbAMGNjRsZN0gjz0K9Xg0iSq1edyVXDZkzOHStgM3H1wEDihtlqedQhIwj7kxlRsTw+MyI7yjHChp4n5kPn3oOI/Tk8lJxhyv3oBsTV0w5NmuAUA1hpV9v7P0Z52WeRTZ4zoEHtGG2J7rTfx/jEXCtgKUHACpvVb6rRtfLYIw98p/1z8r39Mtni1Ux09+Vi755oVyR9vrh7vZaN7Meufc1S8ZQakvWw0P+lpLDeKMrMFgAGpQ/PKX2q15/3o0dRho6uWFkd4OUrP4xE1TZ0BAZqXw2g2mbubrs8byeIymOFLkMjMsN/IQ+8DY4INd3EuS4oYfv3LNI2/z5MHwt+Y7oLEOkP6cnZREoGTRpeTwAY7wTfBO5c0qWpT1KvMc3WzLbkx+dxYDu7uliaOnAEb3iMq/tf3kw0m3bSXUaNBZAgAaMFVsXoZd/AjQx4Og9eByZAvABEPQ8BhtjLzn2reFPLi6mL3zwQWxhFM2VbfTagivhb33eaYlKQHA6mXcuILMaS2V3FFBQ31RH8MztzXTy3b/8ixVAoMEoHgcPWwrUn/PkL34dBuiV0+OdfQxT3xkp4hHQGJUvD4Lfc8MD8/WYsGfoq6CNjL+X1/uOECLMLDF4n3sgAVpL8PnuAALliAGXgpbge+CRK2JOZ4QmvKeycVcyi1M/iBCXYLCOihHik5l4BHldXa6UkxvmChaEJnIX7XobpNOY74wD/O2G359xpeMuOgxNCNtdnhfhsxL1XcIFyNLzzIpXBqrFniC8Xl/lx8p3jL3ThP44kKBvAC8fS8BdlR1XmJTpAJ73GAOvjz677lD/mYXyLC57lQv9NPYykqKVZsDQF+PObNqD71yR677+cQiP3iNmAW8DbQ9+s9lwBQi0iTKgH+1n2YX33DPkPOi0dFlzvUcZrO+rTyy16H2VzUyRwEHkCllDR9M/gIwDd+0ykUzDy4yVysQ1Dh/jDcLF7TEV0JSxqt4laEVZbwIQ9tkAlw/X6avrbRcD8l71R49/ueZ8BS0dUASPnV+GMdVfLA3ZVlX0GfRzmsDb0sO5pTDzU1A+Sxp4Vt1uuF5n22sADm1XfPIklukAmCzZoa/g6chRcXc/nUZuh8xCeXd7FzKndus9LTnot+IPgi/vb6eT7/zFN2eAcAg4cMXqDO+GymfyPYDgiB3l2TPCI4PfYyRve73PbK5erwqZ+x6D4M+4EqgGp8eIKHRHlN5PN2RuKFjLctqgUFSmC0cFCG4A3bD7DA6lqnf5zrMoEPcwcC/G+/525SZFkYmhJECUx57yCkB8hs2zEppI9qLZXltigGbV+LsrV/vSlcKrPjO/m0hrHnb4oM7wqsEFoCHw1FmNsRt5HxPnb9C4y4r3jbr8E77xa6PvrvAqAHS+c97v8T3XqFufjJWDoap49R48U0GE00SKrScPDjBZ25URjxMqW9lSnuIPXKOuU/gudyn9h68BGchRAoTTWIOnLdQPHTHO8AifuGvpPzNDl+Gqwyqf0S7GEiACgMMTQD+RDww1QFrvPXv+LJYe1A7dJygR3Vt1hINyfQd0MCOlTcRDOHjSPclA9Y4B3nQfUOIem5F+HenvLYDQsw892Rl5EFxOqt71e66HdR2goL7GBOY8t6giEwAv3VMKY/k0AV7iebxe8gzojx057slzj5zoSEZDXcfzwHvwSARONi8NuyNit8rr1+G5QRbUTl3Xe9rFMLWgbsA6oFdt1Z+8CPpT0KKS3O14EGBqFzaI5tcQuhFI6F1nkB1Vo5zrwLhBPJShRoDChWWfotT9XgwCTNR7n7McvC/67rNOmJL33UjU9vUY2JWc7vuasNPOXfeiM79hMAcNPtYoea7BwBi7mbYtDwIgRtdRsrjaVAaImL55+zG00e6Tk9jPK6GTYXjd1m9dmbrBXCtknYq57DgZ0XY2cJH5cTnuGjr6LGHm0VhvzKQrCUTazo2WHMhBA+OO4vWZp7sjUWgVkPQMS72GYao8HnzZkvg4/yF/0B0aOC2dl/156mbWSF+p25dPVC48o+8YCujFrFT3cNcDVr1OD+wSHzH+Kk9GK3Y7qIyLi3ksnJ4EgukaLnWOr3Vd5XJMHWq/yxQ8r7L4jkeIcUCOoLl/Ig8ul8iB00r3WV7RfUCUn/6HLNEnZpjkhIDXwgA02VFZGCbeZ9x5Dg8k9wE87JoIYybg3lL+crgPNKfe2fi0Y7LRCysZP1SBd56rOrXaCdozX7ezGPzdCuRcH7sudhuFcYUPggfOkzfhHT2PJwCwAMjC06j3/Zre0VZCzeBFPy0lAETYNaNr8ITrcdXLmQv3GnOlq7cTZVlO1Lt4MnRfekjeA2UamJcpppMAmgAetZO8H8FnWmJwD4Ijbz3shtwHnAZVJT4rUQs0RKm4YnKBrTzBAL0tBtviTa9rpSxj+9wy8+R7VWy848FptBvGcQam3ygZGLOChxFogt4wDgPttPWZmiLTlTxHwizXkd6rwK3Oql2xOz/QJnkQAD70DeWnT1+XVb0k+KjjyowGoxKK6uJcC5+rNMjMopgZ+Tgpr8b9XQZY9dpKnQ7AnGdd6WM49OnKvyokxtDd54wnyh6BQ9HrevUKMWY9PhspRXdZensZh5Hs4M70WIQqF9DQDWX1INBm+Ig2MDYOHKATBgmQoWA3gS7GlbYDRtiN4OMpOrKv3GVI78KLABH91tjAeyS7cTACPzhA8JkvtHEAjawya4ZPfBwZN0B51S/81jsOGJgVigaAGvogedZ3IuLhJcrQJ0pd5bOkhwfP9Y97EQEIvEsshBsmZpXOu9gFeJ3ASJZbkIs30d/YCudNB15Vl3Z/WwyCT068nAoW4GPXwwBD0RFwFob+PHcmQP+ex6TqbwACwBF6ukcI+uFpiKyyDw/h7ge8Ab5F85ATLae1xF30QWWrXAJfQ/+3pFf3efTL7JnTc2x51BLDl7/85Yj5efEiA2cvzk+nk29/8xubpzk6GHDjUsFAvVeRMoM/GxoLbsqB3A1oWYSPk8V4Zkm41GMqZ5xsZ/y/uSDzd8wM85DI+JvBTG0LYKFzmmVEvGvvSzvjwY3S+flFHg7ZjuKV+yn6z17/lko4aZJtmNFseycCfcgGx9kRsY6arvWgewvX06O3d0qXmVHH6qOEXLOAWUC8nW09fB472666iuQPpmppiB8yqh0jSptdqSJoGJhquJxXXNFGHvG2/Wo2esWSeaqtjO5ejlWu3i/a6C5/6kbAMXZr4LGOoKePCLbPOHpGhJkDkc4SRAzXPGYtgM75jnsg/2r45cKM5Ci2l98NJlsmtSVOfX7ajgTGDc2afOaUvw++XNyRSQFAk48v4wcPOUBwo+egxfsJgOCzZzgxfOGqvV1ybTDD9ZmwgxmMAAoW3gOAYFi9nfQTr5nzMGDK+aGCaoyge9foOwaU99EpeCkYb28nKcdx+xIf4LP9iwu5iXNc6RNePtal9VsAA5CO/nQA5/pJbdDzKlNl6Ley9OmToDmPxKc+L4OZMcYL3kSuHYzNhtNOj3T9rdgngq97R5hXw+t8tPBmUt4BwaJLUveuAEIn7woTHXjO+6izG0SHWG5oWx3xEgKQqY/Jjz49PqQHIOALeF9ADZ0hGX3x8uV8mqMAgjw6JEmKdMstnkHvh7cgPItnIeeqW+P68lpHjD/ELgU987Of/Szq0L2f/OQnARBI462+X796MZ186xt/vkqUxCwFw4P1hMlmI9qMJcTwGYGegWHWgxhPF5UvN1ue6KdOoVjmGWPLFuXlnJ1lGa7sqZNPhF+/z84uVjNM+gB6rsoABnJGUtt02iB/i9KUUV+Yzl3P0IZrblgqEWiTP+tKpgKsqmR5lpkHMzIMmM/uaBfvuAEdKTivf8QDbuxc8P35qjjXdDjRae5xqecxSHQzCgAAIABJREFUqDRD0NzTVb0F8AgeC/12r0Stx42BL9e40vF3KM8BB2vpekdlEKxI+2kvCVigW+V96DbPhDoR2rVM1YXCZ3bgM6MAq90TQYWUc1kMxcdsOcCC3PBtTdYNhAM8fXdFCM2p343IChg2z5OeZ9sX4BKgouehq08+oP9IHqAH4AggwUyLcdP7zPBY4nD5YIxQ9szG3UOC7GFY4GMMhfMpM3jqhObwgD6hgcZR9aGv3PvgMgF98cLgdXGgTD8ALCoXwIHni7FBvpAJ1tahtc+I4RXXY6prBqXNDS4eIp8DfUQvAmgcAGpmspoUWF4d+Io6A7iVg/Zcbv37DCgu1gHpbsyRc5ZLg1dOcleLByKKDgAjxoPfPuY+VtXbxhi5DqUMln3YWUNAru7rvch6eKHJaE4YAZqMk8ZVIEDg4Pr6Jg5v0s4Idi7oeZWhP8CmdrLc3lyvAQIEhDH1G/cGlVXFz2wCFx9E0PMuGGyrUWNxg6NAX7/OqHDWcmC8WJfuZMS6vn65zPZtVl/dhLT12bM8MtMVm+p2BepKFLc4M0YGk+sr4BAItJqu3dS/Xv7u0wvYmV2x7Wxyp3tFxaNylIhDgy/m0UCTrtOZj3cBEvpNG6sB7L1X+QDmpNweoPBy+go9AYL32UFg7a/aqfbrH8aIde7VLMGUhhsm74OXzXVAJsJLW5ih0R+MFO5gV/L6XsEZ5UsmHIzyncxoDnZifOSdLzs2GDeViduXoDXRhTr03MWFMgTmEg6zwRnIT4ofyCQz3Mt3MtKavgICfIygPf1ESblCng25okZaIKobE/SHr+f6fach7QHAOTijnYBAFKfeZ/KDl8KXw9wo6lnXgQ4a3RNEHRgIAALZITmKlzbRXowQoETlewwFv2mTAwK8FyoLPTrPNONcDHksFw8fxpdxRkeie1UXgWo1gA5ec+PFMhUeB2IQAHAr4954qdqEybyEeNvgOUACMiSvgmbC2CJoTb+c58KgNgAMf9bPmIQ2fg4bZQCButH78CzjEZ6Eh7RrVZ/Dg9RHGS7DgAV/NsoSOG05JqADtEc/A85UBraUiQB8rbLI1EhQr65prHK3wuP08uWrAIS6r7/33n0vEtRpiYFsm6SZvnpyMZ38xz/540cMsip3txaNcpeVK1VAgK5l8IwCJjIIYg6EaLMKUFC4vNuWO72fBFiIHgTNI6VmVObE1juXl+tApdom2oUwyEPhyorvPpvoGaxqQBjstaHO40Ups2e0nUlpW32uKv4qaC5kPNuri7EAXLEW6cxJvxAI7tFOZhf+XK+ualR7zweATA05G5lxWSfTYwsI5JnaNn/X20vdKBZXNP6cgx+n6da4Vf6qZaBIoBuCy6yKmR9j6mPhfOlGtyqhMOqRnmPZ0uk0IkBU11CagG6MCYbJwROKNxJQTEv0MzwWxkcgoS0r6XmfQaEzqNfp733zmRQgGHpgkFkKgQ4oPow8gI3fGNwqOz5jZpnHY0bwHnibvN1MepBVJjqu2J0v63UBdL0rcO58iafOQQazPfUJPnGwW3kcnYaOVfl615dSdA1aYbj9t/Nh5RGNGcsKjJ9PEqGF2ggfyKC4J4Llop7ei4ydze2t9xlDPA3OM9HmBhBUL7bJwUGdFJ7b9mPXya4zHSRMZ7sTI8qnTch12LCzJ7PnWmXCy5QPXyBr1e6kKszxgW/cwwitmeioPIBbtVGMI+UwHnoOHhLN5C1Ib2WCZJZH9IzG7qtf/WpkdxRI4JCnWBbVLoY//t/+/eqwJhipulFc+TvTi0D6zQxA3/Uu1ygHJcpzEDAVeSJEynWEret1JnUSZ34vz6MoHU1yLYm4HMjj14lBcMWs5wFG1QAyqOu6NRtbsvm58t0FHTpco52A17FIKKQtADArw+S8nVJoI0yjBzBU3m4fw2BqofrGWMqsdna+HhM3ki54bqR65fvss3d/1YFA98k7c33zouQuwZjBQXMMA4CyxyO1H7UvPmardrTqET5/z/nWFQC8y32fcSLALuT+HOXwToCSlkbW+6X2oMjwcOGS1nPu8o8Zls3GcNmHkr4XHy9yi+J1I0m9uuezmNXMWCjG2DLlew08GC90AjNvAAJ0Y9brz+uayznyQD3UhRyoj8ymkGtozrMAPh971ckY4U52QOFtq/3BQDK7rrqzAg/1VwYejwAGQa5kdKnPEuFB2o1Bg37IAf1jmYX+OI8CnIhd4GAoxgBAQJ/wrPCe+kaMDcF8PAvvuSFVUJ3WzAmiy4llBvF6mbRxmX6tg+Yps/KCcgNwoikaw/XpDpg8yTMzAIUu1w4q5zE7yaRZ8Fs8I+/3kwQObvgx8vC5852Dzmhz82pUHQYAjwRiLekXwY3QDFrBsz52qlP8pJgGxbFoiUHXyKIoT7PyH+hdHdhEVsjwrsuf+2d//EfzEg+NoUOOeKu7DEJiANzI9BSzruE+ROlBMDWcnPo+qNQ/G3Chz5iJpkfA//RMXZLgvfPzPCGw944zD4JcXY+8BzP6tsbsQwbuxb8kTLziSsQZr2eknJ4VENV+bgGIYJKW4cxRLR4dpy+M5AyvmX7SOP9cufEbuno7HDz5ew6+RnwxVxZ0U/rXh9kdjPLrDqBlu6RsN7jQdBeoLUs6lR69vrlg63lXzF6vGxCXCx/bmR6Waa6CBDcADlLu7jOXgCscn2FELom275l2Ve+bt9dnshl/kMqPpQqUoHskUKSADdrqCtPHnPbGRKJtEXW+1H2MYP0OrXVd7xMs5ktK0Lk3OWBsARWqF5mELih1xgh+Z8YqerBl0PWhj4vXjRHWNVf2tMWNt/Oa6vCkYvJKXl7moTp4C6SDAVPIBePPnntczPRTY6lrbrjgAdfD3Mf9zCTNAQLubniMftNn2gb/+PID6/gydIqqT6N8Nt3dvg59A/Cg/YAGGV7pAyY5eJsw2ICgGTCUGASnscsh3x8aQKAvlQ/gO7U/eP1+0R2Mgeso+AePOYDLPeo9wCL66x9yhbF3zw88C58wRrqOV17tJHeCrqteHcSl9rz//heCx+RRUKZIeQ20S0LLDxqrTz79ZPrg/Q/myX0sMXzzz/40lhgcgbtC5TtK0RW13kFAZ4HRbKGtMbmS9OdcqeSA5LZCJxxMV4mJQe4ZDG/32ggvEf/+DKi8luXM4uWwXha7EGyahEcD5nLj6v2KiPGBpesZQh8Tf61n8Oq4OKNXA1ef9RlUHe8eQPB+Aogooz7vtBgZeQcID4+pxF1RO2By4wNtKyjw/jK7GwEVaIzSdH7zsYfX4d3eGKCsvMw64/W2ViC45tlURIsilMlIYAwQcVrTLlf+KJcEFPq3yLkDnezLkrYa2asAAUCh++5+pU/VW+hjyBj7mFEPdKCv2bacO85lnJ1O57nGsnKfQ3OXWa8LGYc+qtOVsJ7Fq6lnmPVi4HnexwqecrDh5SMf3HcXsvpDzgcUPoYBo0j5Aara87onxS9FzvZD2io3MUAHQ+mBshpdGWHXJ3wnKM37AgADCIgGeAmgN33UNro4GM5sATzP8g58A58okJD6uQZNON3SAYI4gTJVlntTXG6Dni0Goeo43VtkaXFxPZ6mDXM9wXf0PS756POUwM9lgzYBkFQPAEFtFe08Fkb36Q9ypN9MTHVNM3xdkwFHZvxUSaex6tfyAEGp8BPAlrF5+vTZ9PnnL4J/BBC0C+zVdR5rLRCh9772ta8FLfT7XKv9yoMAc2wZnq17IyMyMgi7RkTgYMmIx3vVgC/KJQ8Mqn9VwXL/XLsY2g8YEsbqlVMVt7fHtx1SRvMOxWNuiFwgXfmNaOnGiWf8Wi1/iwbez9F7u+OQJVZj47Qa0Zi2jMo8aKzaEkPvWRQ17av983r93ozyGzjrtd/PtaBup3sPQB3Df/toVsvqgfHod9vF4M9XOoxkrr7DmPK+AhS1zFDH2pcOvQxStKLYAQ3k8ff4AJQzxkvlMHsl6E3XUMyU5Yo4QU7OJF3Ru5w4n1c6+DsYU9rFrF7X2cFQxww+QtlSBu3WfWiJEfVJDuUxA8bg+jo8AMUnUzGzDGCnQ+FyiYi6nV4yYngT9A5gjXb1dBNAQ2Mpt79m6ipb73oQoq7pN0bPlxl8TJAZxoTxo50RY6EjjJ8+XYFfxjb6H56m5XyWSBVtHs063lVeL9oSmvOxvo8Awsn5Ot9NejaSzg4Q0Ina5uj9dD3BUo7qwyumcdYOAQLi2WHi3geXB8rTrgO9K7e/QJPag8wBCNGJuq9nSbKEtwV+1PJC2iJta72J/gmAqL14EHRYk9qsHQ7yRgQoUh6E73/7W3MMwpbh2lI8PaMwUop9MJFr+FszqnXbdpcYIHKvnVpiqO3ZUqxbYAjGWwtDtqfWURlpnwIbgQLe8/uj9vfpu6aKP4MQuwfAwUw1GMcaoBHY6hvB3SBFr7+CpVFfa50LsLTYBuvICNS5EeVxV7iH0KLHF/veGwGESG3R+Rs9P6qneuei/+1cizreThs8Oygg1kKZJaFYMWB4MFQms5lKa2bB7rXQezoG2WmOEfcZPYZHz7G86LLiS4E9WvS8SzJOOjqX+nwpQv3Cfe4ehp7BcMOJbgL4MOOEl5iguW7xZRf4nHqQWfrM8i9GkKOk/Tr9Z0z0KYMiQyBaE/egMt2IAXaYlarNGCJc2Wyzo5+s3cMnuj7ziI7GbltxfazwMmCIdS+MdFturDqQvqbhSyOvTwEElrK4hneJZ6Fj6IkmU36N/CDwpO+smR5zt536TluZzbvnR3XjBSHXhN7Ter+uu0eGcgBn8AdLSyS5ExDQu6K/AwwCXH1sobnKBgxcX7+ej1ePPAqnp7HbjV09qk8eBIESlfns6eV08p++990ACBBzpGxGBt8F3hm8J5Behhs4BRG68t8y3irXZ+xez3Dm1YIga5v2AYH6vAjqs5pk0kyU1DsiOBgmCTszMXTu0acaQKftGpCMVP8apPToOAJz9Iv7nMRGv8Y1ru/0yj/83Wlqk9idVxBun12NaFmNEM+NwApKsCpi6OfXt/oy4qdjDfhI1kYAYfT8Vltr33yJoSenq7619NPueWSNFcWNsVBZ6r+vwdIu2uBAwg2z6nQD7Uaq6h3KrHJCgGFvglD1lfcRBew0dHcx5bpBcyM2y1FLaAYNmKFiPPU+nlKAlcqJnQSZ9m7HKwk/yfDofXltAG8yXHkK4V0YfuhJ26jDZ/csWxDjgQcCAEN9EQtQlqMBhS6LIU/KctqSqsEDeoYlAHgHevCMz+CDNi3uDBmNMjTLL8u1yLZ2McBXzj9VxudxOEmPlP45YIQX1HffgSeA4N4ZygWEAHT0HgBBbZZRl1HWDP3lq5fTq5evlqUNWYmWXTTtW25NBISqDtXJWTcEI9Mu1YXHR+/7+LGdMZdJcnsjwbAAA52/EMsbj1Nks1X58ixEkOJ//v73YokBIvWUmQ+wC8zIqFdDVxXVrhFpa6BtbQrl4u+5gJMoaVRuvc62W1cAMMShxqv3XDKU3KXLkoe3s2eQ9tHGlYwrvargRuWMQJgLWG0j4ztSoihS/+zRowcOhrPhDsrLVefdsxWq4XZhBzhUsOCKm3EfGXA3WE5zvjuAdjpWGrwtgDDiyd4Sw7H8i/Ks9GKbI2M8AkXQO1zfFlSFwnfQUJX6iGcwbtTN7NvHFoXrhg49sQWQdM9nWxiBeMcMMM/oOl4CN5hMDnRP1zEIlRfxcMxGRzkfpuVAK95DibNk4LyGYWMG633GwOsTDwIzfqLmZQD0LltfRwHKgBOAD8tDcmHPQYUlsymxELrPDoTzcwXDLSecMp4YIAySaBixES2AE3DBjJn+zgGBWvKI/B9LwKf6zezdxx16C4CwpRod76DV9avqv3vMzLOMPzJM/9UX9UP/Irvkw7KFUO+wjRw+INYAAAa/ABYio+HLl924B3gcj0Qs/dzcBD+qHi0V6BkCEtHb0dYWoyNaa1z0rjxIAosy9vpTDIICQ5EzAmP51POKZRAf6Ajpk8eH6eSvv/ud8CCsBKdI8tEAIUdhU3etFVWmWq7CtnLnSp5b0NLIgzCq8FEOkpIsZ6txW4re3ZpJaBW+mwcBpusZ9qEB6ETgwvjQy9HxlpGuRr3OvN2Y1zK9/xVwbM2G67PH0ngLIKDoaZvzjxu7XtsrDUeG3ekwegdDcaxhfivP2zbHNy2vAoTFCLPMsBuH4GMeY9zWitEboWhbim8HxQ7MZhBAavDG67U9rmhZ60b/oHR9vHmf9fSVnEyPcSAOz9M2nxzQN3jXDb/zkgMIyqlgAGDj5QNUMebkGHAPguu9MGanOQOvuoYxZ2nH24HRZLLna+C+HKIy3BgCEmSIVAbthC9cbzAOrKf3xpw2EhhJ8h36qJm/jih24Dbz4OMUXgeATgArHa7WQBvpnzWTJrkT7zJWvURJzofuGQpesSDFyrvEFKgu1Rm7hE7ynA/AMQcnoW+JqQGgyUD7cogMt2js3gpvk+9YYcshgJGzXfAgqF3InuoHkAHiONdBgC+XOeQNyb7A7wpG1G8tQ6hcfqu8m1cvBRC+O5/F4MrXDYwL5NAIZzacGZ3M0fot6ZFugBCjnrbbQdHKKGPOM0DI6wycMpVLYGUAaZQFs3g7OY3Pr41AwJbircxIG/I0hBag2LY6LgChlJjepPa3zsLYdO98roOeXJRERqILkMyk7mEwO0+h1xcHBjPZLAH2yshnB9e05vc83G1U7LwKr7cCpKXr8yC28tuYbg1ACQLd4svF8C3ZB4dt2ajzGIC3p+k7t49tz5xDqoHltmuwk7w8B9R32nR5wca3lwIdmR3JjbffZXtEs951jD46wOUSUFFl1Y05BvjhUfvP8rTOPKMjphPtJM6U0Hiv0e7+TsuC7Tnt8BDQb1kI5zLvJWs6H2Dt4ZwNenOZL+onl1OUF0UzukXKUzOqHJYl49yB0BWK6M82Ry12xgrLK9S3gBkFE8rVLnf6staNsZeBJedD0Nc8GGoTMQIYF9GFgDx9V64CAS4tUagNZAjVyYHS2zLC7IpIV73tCrCdN3kWzHK4mzyt0CCAmPIGtMBIAAM6lS2dESQb7vrb6fb1bdAxXevsfFsHt0sN6RwaxjDV0joRH7pZ/RcgmQ10O2+GpGBKEKZntXvm4omyKCrl+JIhmPcwxOqD55zQdXkLdB3PATs71Cp0+2LnlnwhxD2IfqTy19k+NzfXUabop7MTZNh/9rOfBw998MEHkSnx5csX4QXQM3iPNIai5fPn7wRbMqbyGACAdE2/9af6b29eKQbh+zNAQOFioH3mUI31ljL0dSMXHjf8zvQ95QA679XjnoWewavvkJ+7Xh8p6FFfR6AiHRTraNgt4zUrDl9fbMra0W6vjH1GZet+pVXvWcbIaeXvjTwRI34YeRwcjO7r0yG07NVfx+SQeo418iPj2aPfr1M2CqU3hseC3WPocMyzW/0blePXnfd7fIie8PXrWY883s2zop6n4RDZ9zrh2/xctoDWZwAx62URvbIExGKQsn/oiWXDc0Qq2TZE1rE1o9M/khhp9imD4AYOg6p29XRHgIZOojjo5mnlJdsyDB/94hfhnpaRkcGQ4SC4zr0W1HlxsZx+6+OJy9zjQPBsMIaUR0wAs3O2WiL7K7DUqKh36/IBLn63NdCIOigTA+0zfGirdrDG74b89Fw5e/KcDP0tSYgudjwDxIPoObIVsjTj3jfGItuVSwBuE6EpgC49N6fTV77y5QAeP/rRj2KMBBBUrjwGAAQCUTH+HNvNEpc+9Z7GWe/xfALF6wQIVcnRoOp+O0TI9IzQJQjZAcKonhFAGCm+qmz4PXp+BBBGxgs3Y+3vsD0HBiH2yuuV6ddqRO4xRqYq3x6YYubn4+TX6js9cIYA9tq2BRC8ffsM0TFGEH7qld8rZ1T3qM5j2rJFm2PLWfHFwFt2CDA5xFgfw2dVrnv9cqPdK7saNzd8VWG6cZmV68ly7PdM8xGNiryudBQeOAf9Ea6wzsaKZwFDpM+5jwEOsj0Ah9of7un6E2WefciMdxgeDKe7ovUsRpHZ6+JhXBJ4ybhK2bOMcXGZ2+R8bR8DQXAbOk/PvHrxItaw9SfDoXJkWByYzMAstp0u2Wd9bNgii2Gm7bqO653ZN9sBVa48FwCvWE5R/VdXcy4B6Ox5N0RPDxBE76g86ieugDGjPwAEysUQE3vgOu/p83dXOxBEH8UGqGyCRtUn4lTUftX3G7/xGzHzV999aQZdtfDHsiNjDSyTS5ET0Uf16B9bjXWNZTmWgVjq0DMESrKrQjxCrIKeA7ywhHX3+mY6+avvfHcHILiAef6AHkDoKZvYt2rr6W7A1UEfPP/ts1NHxLVef78qp57y+dfwIPjg9ZTdSClWZeq/HVlWJTkyvCtlZ1svKbcazX0AIWY2nS2cPbDR6+M+w/+mhoj3RgAL2rkidmE8pN5jDfiozH1elEPagnE49NlZhjsv9MYEpVkff1s02McHvbGp71QeRkfEWE8ZKFz5ctT+npfQjf26HKVIH+wxbQSLd1vE/emZ3NCLuzh4UAFf7awLvYIxivd0SJYDDCsTuug5Ny5V3+g5gitVNoZfs9iX13mU81lLCwxN2B4H3TBcTy8v53V2Zv/s5dezbmjv7+8iSBtDD8ABcPhvBzO4vgEtbtxYAiFjIIafMpHpCHi8yHN5aJcHvGLoZARx2aMX1Bb64QBB5eg3uQDm7Yxkp20nA6vMy6vL6dNPPp2XcwhEJDOhxoFdBAIIahvAzWnBWKoKLSO7pwM+0bUnl0+ChwhExHYybsSfqGxAimhATAeZVvlUW5QwibM09I6yK6qcCIi8v51OvvuX33rcUgJu3A9VTiMPwkhBQwQXhi2A0GvTVh9GAOFY5dd7PhI/2/nm1ZBv0azSo4IDVwLVIO5TuK7woWVVntV4cn/Lg9Aro9fOfbxSx3ffWPT6O+InNySu9Pc9X9u8j8aHGtNROceW70ZtH7226P8vCRCOBUNVlr1fzsOuG1Dy1BVBeI/p8q1/xyyN8i71zn2J+c7iRq9txMDOsqHtYW092+/1+DLu3+dR2hgGlYOLmx0Geg6vAbsUqldGih7aeLDigzastSRTrp9Un8ceEOipXQbcw2DOBlgxFs246lp6DPKEQX6rDdAdUIPR93Zxj6UNUkJjnAEI7CahXLUNTwXLAIAHQAGzYZUhjwRAxJcVWI7w8dQ19UWGkgyK0FSfWq5RGeSP0HMYaHiU/BAEC4r2X/ziF2NslHeAsXQ5XHTTsmyi99RPfarOCC5UXMdNxhPoT5+AAOIfFKtx9fRqPldB7wu0RKKqNkHnWQEB4hMAobomXnqiOI/vfevbK4DgAt4zWIcoUYxmT9gZZGdkZ9oqbD2hd+PiSn+kcEcAYaQ8RuWMlDJpm6It2ZnVmQwjZT0CCNQzUkSVXl6+KyHGcmTUewAB5cj4MB7U4eXXe6N+jsaQfvjnqIxjAIKX4UbmkHoO6cOIP47lp0Pqqn1x3qhjUcsb8evbAizHtH9Up4PR2t76jitqlJmuxQywk2XyTca7ApysU7lOlnVh+l3HuwIEnsPgD/VAuujiNjIZOq5t2aOPGAQCEDGS6EMi6DEqfAogeLm0Q0ZAz4h+ug/weH71dLq7z5gOYgHYzud78NX/NF5ZYl0OUbsxYDKaap8bUyL2MbgAIPgA176DG+qBVhhODJ7KZ4asa2ovQZtu8AFXuOQpV4aUfAOAmlV7TjLTotqutXvdoz6VodTFkU+gJdsiR4VyDYgGSkJEuegmfebyi85R0LkZWoZYTnsk/oKxADiobt/Nwa4HLd9A71haeK3tmRmjIhDGPZWrJRKuqx3qi+IafvnLX04nOmNIAMEFCYF1A8H9kcJhsBYBYT9DMg7XKRvB2nKTw/Q9pVEVI4a2Z1BVfwUIPL+ltBCiUZ/9OkGK9dmRGxN6VjdTr06YKLwygdbbcb7kBy5ax5dpfFxGhh0l48rMAdhISXN9VG69v2VMHJRs8VivjH3Pj8bYyzrEkK7G2/aGezkeu7KvXVv0cBncqncLIDgw0nPwWgVMW+3YN2auN3iWetyFXnXJvnL1fJ0de12uWOe+7QEIztPIhdOvx8foiTgGu80ClmsJGGad5+mA5xPr2y6JtnzgY7niD/GTLfS6fupN2KjX6640Wz1TTkh1mYAuDiBk7+sWU+hPXMGslxpAILiQ5zBqnpQHg+9003fPuRDlqn7tmLAUyW5HXN/Db+y40FJIJPk5PZ0TRel5tU/GWqBBBpRkUtCXdnDehWb86oOMJcsfaqc8COzk0Dty0StnAG11r4jawLIP5aq+8Hg1jw7eBoDa06eZ6wBwpzr0PJlItQ3Rlw3wpohusfPg9jbeB9CxpVJASYBQ3gH96Vl9Z3urgIG+a7wUCBtxLC8+W2IQGDRH9D4oGJ4q7D0hiS0wTQu4QqqGZwQCquJxYRoZLxSFtxlBACBQDrP8LYDQE+aqZKLv7WCZOMCp5H7YN6N0Ru8p2woYVi5Vcxn2FG5VXJWGDgicZg4qRuVW49PjgX0AoccLqu9NXMK1nXUcal+PfT78QeYy3mdUZz6zvf773vH7DhDgC5TcMeU4T43Gf195IxlxQ+k8Q9uZlVaZqfVVPt0H6KpxnNuxkSOix69SwPAa30d6JmMH1sFjTtsKuhSDkLu7F4Cg50cTIp1eH/sbSh6U0fN1ElDld4fGip8oWwqrnvd3TqzdAAdks45P/k6Dxvo/YyQjjMchwUHuCHEDCR0pN2fSucSh724oMZZ6h/wKLD9oNq/v7PhgeULvZKDgNL3zzvOgsdqFt4SlEfon74G8CDKe+vz6178eRl7AIwI7n1zNM25d/83f/M3wCtB/eMknf+qbnnUwIoMPWOCechQ8e/Y8wACGnxTYAjd4IFQH5zMQqKn+4MlwGur9jLHQctBDGH/1Bc+K+i1wxTKDaEWehM8+/Vh5EL4XSwwMKmtErlR7htwNQEWkmfAm/6pfQZlSAAAgAElEQVTw1Gusr7ix9PZUQawMNQIZ3iZ2JB+ruCtIGBm9e7lvCkCo7XKANVLKPcMWTNVS20LLkQGstHXl623vvV8V9Ug5cb0aMe+TlzVq69b7+4zWvvvVeFVeru9v0ZNne4BxZOycZ/e1tXd/xGc943mIAa/jcUh/e+O5MiIFDMObBMexvuu03+prNXLujTmERgQp1mdH/IrewQCKJm541/KbSaQY155e8HHI3YzLtsORHpzb2nIgHMU3g+DhHq20xNAbhyHvGEDA6EOPuY0so0bB67Nx/FliHAC4GEM9E8e6t6h+lVKXFBibCrT0m7GSgVSZMubiGc3muabrrNsL5HGgFbN16oQ24lkZYv1jFq7UyMSBqN4nV7m7A5CjswvIS8DuAIICKZ94AfegeHAmZyuofTovAW+D6gMgsPRB0KN+AzxYmnFeRn4ALizBCIDc3iaYYKkDoKL65WXQMkR4E64jUdL3cokhR3514FAdGDfcI+YKYdgACN4JmAaBA3V5Pa7sXXH2lN6oTbvJe7fV9khB81ZVsJFKpQMQeL72C0bZp4T9fRee7dbvRnKHMLYc6hWoMMZVQW+Ob9k+Brj0MvbRsDdrq23wfh5r1PbR6F+r7GPaMXp2ayz2le/KGuV+jJfG+aPHr1U+XRk6/24BmV4fjh7vgQfBdZhPEHwGXZc+eWd+ftKSR7ayBz4rjcJ7EIGK29lkZ30SR1vvehBGNHPdtyUzlB9u8fbn745AGMcx4wanf+4V8nIeH5dkQ+iCShOMGXJfAzK9HywvAe6wGRg7rsf2voeHOIlyzr7YgB4GWOWSgdD5XkmH5NFQewEDml1zMBI6k7wBlC9aQje9R5Af20Cd5+mjnmO3Bbs3cla/BKYmbZXAKHcdsOsC74UMtoALtoR8EnhCVL/3k9TQ4Yl4uJ+UGExl6jmBAJYpVH4EJD55Et4FlkTkFXmi/Bbf//Z3dFTSnL/DmZqBQsn4vR54gMlHAAFAAGLBheTGpAqgCzV1Yizrey5Q3lYBBL+3z3hV9xtl9ZRtSvbpJkCgT6NythS3057x2FLwXocLHQDBFZG+uxAeomxUt3sX6Bttq2WMlGTPxbllRA5VttTfK6un3Cs9DjHSI/o7XX4do17bcEzfR8a2yu6on/X6Vj96fO2Bc9ADRblVp7cPPTF6vteXrSDFHr9uLTHs6BGlAG6niI0AgruP5T2IxPAFSI9oed6Oul+BBLZCdoiAgToUKDyeLEdEu5GVsej9+YFHriN6z6bxvpsTFvlkAT1NoCLr47ruAYAOAKgj6ExOHcu26GBFwXeajXoUv97Hfa4yNFN2I49+CNuj+IkWAyHjKwOp6yyL6H0BhlhaUPzB/f10e78cCe4zd5VLCmhkQPcxuAIS0J6U1nixyDmRywEXYeifPX0WOxY4S4FlBYIS9S6eEJXHEoF2Lzy5yLMjFIAInfEMqI2c9inAoOsEjiqQUn8qV7EOz64uG0DoIF0GAsb3mSeMiVFwIx4DkJwelVUkiaFie4pHkY6UUzV6zoTOUPX73K5BuuB9ircqgwpIqG/kQRiV70bflWzveQdijAXoeMugVuUxt7W5D/13794+AzcCWbXefTRwHqkAbKUsDpyN9frV4xHntVEbR2Brq0/0xz/38Vnl+7r80ltzPqZPFegf60HoGQanDTNN2s0aMop/BMxquf7ciP90va7vhlzsOaei8ivK2fWT02X1fOxPz9b2dIKXEfc7QYou87XfeZzTUj71OOj2dyo/0NbRuN61trsuUXmj54nZqvLoQGtpTyaF6tEGfsCYMXYOcIgxcB512aGeuN/yTNAPAQMZR9rJhFNjQHnnscMlJzW+y8Nn8FqD1z+9R7Iq+EOGXdcx6q/vMgCQVMVqH+mTdRLi1eVVGGX9qQzZN9Ulg6+dIfqueAltj2RLpoy23rm5Ub6KjL0gNoLkSsQlULb6jLdOux+0bKBrHOikMrWlUvR9/s7z8CCoXF0HTOARUjt1TQGZJKwKL4Ziaf7qO9rFsJwJoEQN+ce2Gxi3f8qeC7J/X/T5OmCR4AQlEsltPMFaLXd6bvcJBrBlj3xiiWvgKOIqaPHOam1sDVCqol6h/iKgPeXl19ywN+lY5cSf25+Sk480RAyFVUZdfkDQ1rRcL/0AkLaMeDXUo9/Uz30AXF8ZrKniyhLUvEO3bja79RkUM7fVcyRabExVnrNCbmd61DpRMDvA9YDsg72ydvjsyHJGAGFIs86hXYe0q/InvzHUbkgqbaox2gdq3Cj6d7wF9X3/Xfl2x8A2uehdrzK7lLXK97ZDrlnm5jvu/l+kFWNXOH29/bDEK/As8pDtzkyK8HYGIea5ATsycjpNOs4gA57T2OZ5AO6LXd56uFtO34XXVZe71RlzlScDEm1RLFMcQZ/6JPRI83Qs27PzgCT0kJ/pEfzagnVnr3M2egZOPrY9AEL/3ZPhOyOi7+08CteNuq53iGEAdDCLx1uBKx8PkWbj4kliIQhu1KxdZSgzYpydcZJbQWXEZUzlnVDQ4MXF+fT82fPpyeXl9KtffTppaYK2uLtfAMPPNXDdjk5lJ4LaIgDg8QHkKNBYXV1exrHLGH4tO+hPxvvZs6fzNksSK3Hqo/ojL4jnyXAa6rtooXLkMdFzAiCADtGKJQ3151RxNN/71l+utjn2FZHnEN9QVfPuhQVV+tMwz66QZPkVbBwz00FQYDB9ViNXlaIHZPq9keGFCRGefTOjuf12gJPniNgBGeVMB4S4R/FRG3uAjXTNPZBAsE1dghgBBFfQTrPR84qI7v2NDJCXU+lb3wlFPPB+udJmvA6h2QZ3v/GtUV+3AN6soI0n9j0/aiCGtr5fjXaVzyovXr7P4nsyXtvisuN8WMGuj7kDBJfrYwZipENGtNwCxnhKMEroHAcGLh9exxbgUqpixTBhePSer/fv9FcnPZZ00a4roCntZU8+Rst1ZReENQxTx9+9vTOvaMvc2fkK+NCWHiiM2ap2FTQgpGcApxhMtU8GlOyM6YnQ1ssECPrDqKG3AETIDQmP8FaoHrwGRPHLsL7z3gfzTgm9y3KIyiNdcWRNvLycswy6bkEOmLmTulhG2PMjqL0y3vqUW99TXBMcSNsBenMWx+aJUHnqA+0SWBF44JRL8mOo7WoXHhb1Xf0irkFLDCqD7YzYQdEZj4UAwqQ8CN/5i2/OGjwYqOvKHQCEwUxH6FnpN7cM21r4s/yeQuqF+XCS2MjwUA511HL9fs+Q9JREDwxsuX5didR3MWoOEHrgaZ9BOOR+HzAsiVlQSgg/7R4pSma9VeGNFOAIIGwpeacF5XpQI9fI2LlV1pZi5r1qiPYZoGOB66i8Q41Xj1/3tVH3D/ECubGuRmbLKA/He89SUAWpAIfemLshQ3ke0m9/Zjj+HeC67YNY09NlHyPBrBa6HQoQcsdDthqDVz173ifFLNQ/1aUdAZGkzXalQbc0suudGiNwpnMuR3TDELvH6eoiDzCa/1ZHemuyuPbksqwAfQAyzn89zybeA5aweI9+UZ4MLMcwE4SntpEoSe59/dOa+3sffLjKO+BeCpWhslUeRylDz+r55RkMuN6TIWZZQ7/xZnA+A/1ge2aVc9pLH4jh0BKFwIO2LeayxLKEEkv3F3m2B+mxiVEQfQBY6qfK0Z/KVd16PmI2rp7G6ZUvlQdBAMEHt88YYw8Cg4LAJNPJvbbe+lKFHeWV74upk+ndmL6p4qaMdR39KOFe30eGd+RBGAmTz7Lmwbelklo3vxHcSrNDlGMFBLUv9T4GvwckevVtldd7/liAUGkpGkZwUDtD3Wnad8CuA1L38/b6+UNofAjoOKSc0TNb/HdouXVGtfVeBafOh6P33pQGhwKEkfHaB4p7hrPLl0fGtLhMOlhxHYXeCdq0A+uouwKhVZtO0niHkW/J0LZA6Plp5jWo+pFgM9ejlNsDCCNwJoCw72/mGW35y3WHncRRPobVM8iygq5jAPWJYedd+AzDrXbJCOJhYeLgOwvULxlX3OlxiJK8DhfaubBkFIzlsPMnq6RcgDw9x3KF6qT8U73T+spyGpMqMkXi/ZDOog251JMHZnkMmfpHfAM7E1gK0D36TVlqF7sZZDe1DEXuAnkv5J3g0Chd58ApPMUCLYo1EK3lxSAfg+oRQFAf5FlQGR9/9AudxfAXqyWGvgDuBwhrhdFX3WMjtIADGFPlOUp1ht1nkB2JVQF24UZo/NqW4usZL707EmZXtPM2UgMItU8OjvaBg5GirArYlX/vns/MqfNQYOZtOHaJYUvRe5tdceq70/oYgLDPoO27v09hHmKAjy2jjhdu1UPK8TGs41T5Hr5zkO8ycYyBHY3rCPSOgACyX3nhWO/NaFwP8a7s0zmUTVuZEfbAAPqsW695EChryzspDwIAcEsGfRbeAwgu7w4qprMsnz++44pe8YtCG+yo6aq34EP6taZZhmdhlP0TWXeAQP3M1vWb9XYHYrxLLo44WbhNPpWN9vk778TsWQZRQYdVR7LU4fE0rpsBGboPWElDr3iHjDOBr2Vs8ZjgOQB4qByNEYmJ3NvAcgHbIgEYjGPGLJxGUCOpk+mvdiDEuRqP03R2nkGPAbwunkRsBTEZAgtaSlA7yOGg50RfxVOcKdi2ehD6ymcMECLgZQ5oZGvPNkBYDGew5XwGdlWIebfzN0D/ENzfcEZ3g61nqruc+yMl5B4EgIErvp7B3wEfLfviSOk6uHGwVJ8fGXGuV1rWcl0oXBmzTrcVQOdl98ZsRYdBDELPkOgaLjBXWGo77ZqVliKa7aCs3pi7cajgqz6/BVgq7ZlNHGKoq8Jc0WZQAN608MS1nUAVHB1St/NCT1Ez83HeqDIyolvQqzPRZC29tq8avGqAeqDQeZx2HAvkjhlXtXnf8mKlVS9W4FAZnuVbQYrt9EfXSaO2X5wu2xYXuuVJgDPN2lkObpCdhzByPRo/tniIKtvQJpahLQbipORxqAbXlxDos65VAOP8Wj0O6OvQBefnYRdYclA5njeA+uUx0C4GdImuy5hGvgAlaJJr/exiNREFHGBLSFqE7seQqkyWE8jmqGfY0aD2c6Iis3jN7pfMhmnZ/B36IOMO8FAdmUDpOjwF8Kja9/SpkkNlzgQyPXocApM/PSujT3ZI7W4gBTZeJ7WXIEpOnHx29aQBhKTgykWEYluQZ27d6ClWFM3S+AwqoYyekV6XlAeiVOU0EpDR9ZHywIgfo4SqYuwJEow3C7oHDrV4jp0+bXgQeuWM+urrb96OERCg7J5iRtAqSvb2rJeQFkWk8nqzE9p37EmaaoMLKULUNRADsFX57VgjQb8BAq4oURxbNN8RlMGFEb8ew/f7gE9PBh0A94yZN3dLpg7tp/OR82FPLyBnx3oKaj+hy4iWW14/eLrquiqfI9qPPJ+VDtD27HwJ0EZXMWPk92pMmkHGiNIOfs96Lpl0Jx9DHbeqo7TE4Mba9ebOuzJy7EIrk4EKtqIv2r/f8ho476GDkHd9ejyGDFyMWVu+Qf687bjRyYOQ6/SZw2B2wz/VQVT38zHMnmUSnUW78SCQuAhDTLwWW/VZOlBd7ARQGewo0HM620Eze7UNI64lAZZaWHbgk4yJLDs4P9MnAQSBQp9UsSSrNhE4qXp1XTEXukYeBJWjcyuog+UGXZNn4fnTq3WQ4kiQPUagCg3GIQZqDk5ZglwqCu0pFc9zXo1u7/nR7HaksED5KJFqCHvAwdE2740E3JnUFarXM1/f40GojO/AxPs3KyHbIeHKt7a5luOKE0GkvbjyqqFwD4orkPoc90LJDbw91fBURU4ZtIXZxmqMNwCCj8l+gNrnnMoXVRE7r/YU+T4DeixAGJU3Kqfyw5ZsvQno7rXn0D65MauG1kFYrWML7PXG+ViAM2pXb4LwpgBh17g9Tg8tZqvOqnvGXOdSLX0lhmv3LBjeHenL0ZISAKECnSEtG2Cpkw/nP9cXvtyg6w4OHCA4nZwuUY+CB9t5DehqAIK2JEYMyMNDGD/NrmWMWaIj/0CAkJZlElDoIEHlshuCmAZOwIRHiSkQMNC7eg6jz1ZKXPx6J/Md3ARpPHlS9ZCi9/AqYPg18ychk5YXtJMhlkq0pNDiM9i1Ql/YQqm2KX5BdbGsoYyJvMvWS4ET9eed508TIDB4MHyf8fsJi3uGom5P3xLqNGTBCrMsjARvH8P33IMw3KiPPcFfgZ6FyzNvQycl6ggg8OoKoTejVoHESPmPAMKW8amgrI6R33fDBgBgz3BVuHp2ROOegVcbtwCCt6M3DiHA97nnu+ei9oRcPUXKWFVDv89w77uv8nrjd6yR3VfPqE+Hvjfqd6+db6vto5m5842Pu8fA9Dwbh/bVjVFPRg8tp7q2kYl6fUtHHSuzeBB8jR8dVPsVhqkt7fj4VsPq/R3JrC+VOT8/tLiAKpO9sY023Ck/wjoxHgaUuh0UqG36TfAxs+W6Ns/MnDFwHsVr7W3iGjN59YmdBB9++GEY7uubm9zt0f6UGZE/DCryjcGXoWfWr90Prk+Jh+A+5z2wrRBQwlKCQIHKoI2qm/rUXrwTlKNrbGuM9l9fB7BQedrBQF4G34LqQZB4BwRs9CdgoGflLSDDpO5BY4Ih9d7lxfl08u1vfmMGCDCZA4WFQbvRAHMu67WCyRiEijjHs4s1OKiKvQr3oUbKB97LwOBgHKsircE43B8h7qMAgihj20P3zf5GfR0pPDf4rohHCroyqN5xgDDTpqXj7rkNKaMCiuCnQUPptyshBMXHowsMLAHNvJZV6vExeVOAQN0+q3RwUEHC2zKyW2N7qKFTW2h3T55rOf/Sbfcx4LsbDWaI++Rh39JAHetj5Ac69Qx8NZb/EgDBJyZuhBhL+sY2xypv+2hXx3yoj1s8xEHlt0RJDmS87SN+9cA9ZtQsI0AH/V7F+yj+oCVRch3ufE6WQ9zlCrbTgUr6k3FlNq3f4TnVSZeW8ReQwI4E1u71qedlTNU/vDK+/KA2qX7xqMrB6Oo67n5AEHkQXL+xpKH2cK4CSxK0kVm+2pDxB0/mbJLwiR/oBNAQUGLbo9rj8Qa0mzgHjs5+uL9dAAID6cpkEYp+kCL3XdlnOUuQoivqsXLrxyBsMVfv3kh5uIvNGasaNvrusxpn/GMBQrfvmoW3GWiltdfV+15BDu33Z13oHSD4d4aI4FIUdW+2VGdOVXmODMvsEmzbtvYpJ1e4tEfv+PalHaOmC4NEST2AkI/3gW6Pn6qxoY11O9m+sRrx5dsyyr0+9Ywc/R8936PB0Ii8YTZJAGzVHSMa7eMb11suD7R7BBB6/XKAsAUstsBBlcktvpqfbWc3qFwPEq78Mbf5PiPvnT/HunXM816+f5cHodKScevyyEOC0QpIK8CgTJ/tOj+IB1gmUFnQQuVwD70CiHAAwbts9xM4kLGTseXMAcpSWxwg6Dd9wLhTB4GKKl+GnZ0TDmAEANBXLAuoLk5q5IRI2qt+qBxvv94jORLL4ux8AFCpP8QcKAZBHgTRUMYf/iFGgTJ0XX0RDeiD6udcB57zpY94Tqc5fusbfz7MpLggwUwTuqOgm5LAtbMQ+X6Yn7svMKG64tZhgGJLHHbvubDT1qqoXHnCGK60RIvatt5vVzwwsysxkvs4OKjCd4zwI3SzMEZweUvxWs6gcEPG82KEGqToM4BqaCrdKMfdgIAwXbtvkbc7oxLng61TTdMXaNibiaxo/i8cpNgzWr2x8fb2OPNtAYQeoNhnrHzMqzH1th4LVraeH4EKv+6gNPrQPFQjYNPrh7e/ytDWmIxoprrdq6Hye2Pnstujw4g2ld6z7CjnfUthrGckj5wJgNL3/fPEIKwA7CD4+RBNWWl+25LcVZ3XA03S2o/3mcsAz2tvaaCCEQ9AZOxEaxlJ3cOLmfpawAlvwpJ4KTJQti2fafhzS5/+kTfFTy/s2S+PQVAZHo+FTVCbOC1Rs2x2DHjiIwUkwjvEKxBsDQ8JRAgoKGhQuQg0q0dXOrgAvKhO0ZIJrupVWcz+pUHffTezM2rZAv3JM6IhkxmOjVYbfEmHtrGrQW1nWSQAwp//hz9abVaCKXB3JNG0oWyZeYHCIGigu1MdirHshHBFDnP4zNCZD2DBgDjgoNM7hrCNdhVWF34YX+U5wq3lV8YZKbitfeg9YLMSYFtWCP9Kc0G5W60XTCSmH4EzGBBFFkixJWiphgzQ44rWBZ62epu5DxPF+N3nVpv65wDB6165CDvvuXEgGLan3FEijGO0Mw7GGR/mzbOM96GzVJo5ep5yEW5vmwu886zzJd8Zb+edCsCQCd5hTFyWaGeP97nmfdmaHR9iULaeGcnOsQDk2HZUntlnpLkvBUqGOvEqJ+uNgMohgGwlL21i4fLhY4ru67X3/l7JbFLemO2Rbtd52nVgj27BU+WgI+dN+spnLa/qAdch0ReCItoN+u80noPotBuhTQziuOb7++gbehBdzbtnZ0JOj5NiOKVCT9u5CbGUcPt6urnOTIKnZ8oCfDb94uOPp/ff+zD28X/44RfCBc/s2vvh9sDtDzTgWdVDgGO06eEuytMfa/1VvwgE6J4M/C8/+XjOxsiyB/EKoa9bLIbAhmhx+WQ5YRN7o3pZOsFLgu1VHYqv0NZFtlOya4G+6J3r65vp9vZu+q3f+q1ov+hDYKXu67f6oTER2FFZv/r04+nkP/7JH86HNckQKdED+2lh5Bz3tWvWmaAKzUi4YEo+XZkAGJw5UZa996oBrAbaFa1/rwr3GEU0mk3oeg8g9K6t6Zb07tFrMdgL7ashEXPhbuIe+Sur0NPPngGqAs9YOMDS9wAZj9sptKvyG9HXgcjCZ0tGzarAnG4zbfLF4RDWOo4FCCNj4LRl7F35VL528OWGoIIG6NDjh1qmy0TlCxSeL4XQzkMM3DEy8es+OwIU+/im3q9GaR9A8GVE+B0jXvWN19WT6dqWClZcj/b43sGel4Ux0DVfemBcfUz3jQN19HjL78E7o7LxNuIlkP66f7jbOYsBGorO7OmPUwSVXTDszJLLgbbHRFOnL1q6aHkPpukhdnlwkKBE/ub6JjIjRv339zGJffH559PLm9vpt/+X35lBn9pLoJ57rTCwo4mN04EERKrn2dVFBAfSf8qUUVWZBADq/QAEJ7mUoedIhKTr+vO685TFW0GnmQZ+uBPASe8JgKjMSGZ0dhbbF/UnjwS8wVHe1C1QIHzzxS9+aT4PwicdHDQFGAnANj1MJ3/6R38YqZZ7qJFZZ2X42SCWkxP9VEhXii5UvevOIBV4uLDyHMzlggUaqwqwzpz3CZILsysvBytVYThA4H097zM73vH2RcBNSyXsZa7Bj8BHP9MkrjgUXNCjHOLiwt8zXCNjprbjbmMMVNb5YMJeeWWf4h8pcG15re9WowqNR5kUfQyhKzQ6ZPz3PeOCPQMzy3VfaQp4qMq5xx/eXm/ziJ7Ol5X36/sODvf18U3vj8Z1q/29ukbljEDePkBQ5UtjgtxWgOA6aosOwz5Z8rj6fm9Me0bbdSLGTPU5aGC8eX8fbaq+rLxGvysYp3y9zxZBtSNn/mfT7V1uscs/6b2UYQcB6MPImdAmNsgFdFS9eBJ4PnfPZ3xDBTJuD2QYf/azn03P331/+spXvjofYISBxD7MuqMtJ+DhdNDv4682OUB4cn46H3yE+1/Px+FGbXmII6gjKdPzZ0Ezlkx894LLowy6gMfFeQY5qkzAEoGVui6af+lLXwr6yqh//tnncfaCAjH1jjwJgCItK7ArIQFGLs8oJwPLWKI3RzyzfZLYiDjN8T/84f8+AwSIhGuDQaHBoG4nqhs+liUwKJTnimsEEBaGyMQeCHBPQKM95jLzQdf3yuD7jFWtw9vr3w9xzTqzVwNQAQfC4HRyZZHKRBY5Z8nuFqsgCZrddwIg9a67sxkDp3FVij2AoDLOIqBq96/yxD6F3RsTvXN3l4qbfwgR65uMR1wfZFKEH6qh3lL2x9wDzbuyd2XnitrpQHv43KKR84Ebgkq3EUCoRqfy3jH9PebZUZ/eFkAYteVYGVc70Ws978+vAxKcL7y9I17YBxDC8CiWp+3Lr0tT+/Sl62PX13yvY+b6E50DjdxIx3NxhHTGTWDUmPl65j9sivoRB043AOEgYpb5Fk+RY5onA1dZBqjIMMtoaj+/ll8+/NJvhL5kdi3jTvAd/XSd4raujnntT9D9Idf11W7azk4GTfaUylmue70bdLg4n4GN+sf5CNQLHa6u5EG4mS7OL4Mv8QzDG+hjX47RWCj2QO1Q6mjFNci4a4nBwZzqypMxT2Kp4Stf+Uoe5vTqZbxLAKee0XLKi89fxFLO4/2dPAjEICS60JgkMsp9qupAumjSne2EqYzFPb0DcgthiRiFnHr2AMJIuF3QXLk68Zzhq0GuAumKeZ8BcyNTFXsVemc87m2BA54nCra+v1bmC0CAWaBLdU0GzVsMgis9FGGv3W5gKk3c6FH3aIkBYQHIMNa9WY0bPFdSquP+PpEzszvaV2cb81gescRwjKFzXu295/T1PtNu75fzggPOKg+1zh5f1DGqMnIIKDrWmB5Lt2OeH7VlBMZH1wGoW7Ja+d8NIePmMtWjtY9rHctqcOtYVOCwDyjyvJ6jXciZ1+16YUT72heX+/qOBwj6PU79C0CiXRRtVv/wmAGKTDgACLRLRlqGR0b7Jz/+8fRwlycJkrRHzzFTd9BGGwlGXGTrsUXk58FHxDdoLf7VjY4/ztiGmgCo6rOY8LRUzE5DaEV/iP8I+3eyJGCK8VPyo4uLScmZlIKaJRU+nzxNsKA/ZusqD1nHE0Mw5cmU5zv4hCjo3Wgt2jKxJDBUIElLCLqupQ5lQhQo8qUdva+zIp48yVTTKpPdGJ+/+Hw6P8tMybrHzotHLR392R//ySoPAsadKFp15urqMo5vBiCwllINVSDAswxYpFNiogAIbYHH9YcAACAASURBVG2pCph+i7C5nTZzzws3MkvDUPsng+nGGCHqCU7U0WalKPMtb0BvtjpSBpTt7eP7yPCnIbxfzZJRAG4YU4EsR2HrN/edoVF0AASlEgVh806P/k4D2upt7hnBkQeBWU0EDtpulB5AqIralddJ25eM8EkRVdrO79eMXEXTuQdsXzt6inXLSOmej4d+1/VTlED1KNDfCwHvApodJPhYVGPihqwCkGMM9Nt+dgvs9+o6FiDsAzdvAhB8LF0OqlFlbHrj0uNpl9XKS1VPjcaB5xwkuAfBwf8+WtZ2b/H3VvuqXptOMvLJy9N3shB+9NFHYXSQ6WdXT8MQ0ae6rOAygOy7/sa4iQ4//elPo97f/d3fDZ13/ToBAjYK+rjNAHgAALLtuWDJcxXwYBcVpC05v5SRb4mN4rcAQluWJcWz2nBxdTnv8KBNdXcCIOHly1fT5RMZ8Sezx9eXlABS8hSo7Yo5AFixLKCy5UkhFkLv40ERQPjCFz6cgYHK0D2Vo90NpKhm7E+Vy+gbf/pnq22OrDujgAABiiaNIJO7u2iUb7vBGLmgsb4elck4W6atathd8BhQ0N2CIpfDLajHB91nbtXYjYRvBjG2p9uRtRsAGET19FAnjOyCVb87s7uQAYZc6S/GpeUgN0MCKInwHaKkdZSoPD9t6cVpqrrYT+u0oH8VPTPmPWOlwJWtv6qg00m49hzB6L1ySLtdabUGEQmU9i0x1PIrsOQ+Y94DdFWxoNR415ViuA0bwnXFrmdZC6QueGgETGpbesp8kc1M9lKNVOVJV4y9ensGpmckt8bf21n5H3nz948Fbi6fsxwccN5A1QlVhp0X+ny5bB2uNPl1gYDTvcdvjKPL6aYQHnhzBChYGoC+I17JfksHZeAy9kG0Jfuf3Ne+5KAshnevb1dJh+RNkIGqMqMyMXA5A9ZENYE4MvXLX/4yDJxmzjKOnK0wsgH1ep0kuU3Ak+m8cvf6OuqWrHtSJPrr+i8mDOfpEWCyovfIdaC6mCjqmp5/fZNZHlUOHmbaiM0V3UVXfut5dkGQOZK4CdqaMQevp3feeTfqBzSofpwBAJt0ClxNr69fTSd/9e3vPcZWn7vbUG7zaWy2nz632yRhMCogGzc8DHBVxKA/Zlj1Pr95zstRnShCv16Vugsp7xwi9C501bhVhUs7HIzUOnimCjrP1Xd7QuGKtRrMLWURxssa3etPNbQAQm+vAwSnZRj2fQAhGzjPFnoRC7X8pcnpLaltrApq5oMj936PjF0POKzHYOmFX4c2lCtazmutdxnZjXvSAS8zl9EMLujcApV4xpX56PuIX+GZfXbjbQKEyntOe5fnfW3adz/kaYMPaEdPJ9Xx26KTG5YeQKCdFSC5fhjx3wgg8HzVqyPDPgJbIz4blYMH1enh+tbbJeLf3aVLn4lj6KHmYcPI6p0wUtfX0/XLJbWv5EVLDb71z9tFW7TkLS+21uoVBCljp7gDPUsOgojgl/famKbS/FCA4MvpK3lrYEj9IiES4CV4sfGj3olnri7nUxjJj6A24DVRU+W9yKX989mDoPr9VEcCFVWm3sVDoDrlMRA4Up1sVyRWQXVhq5VUSdvmiReBTHgc/OwI1XF/+3o6+Zv/47883r6+ndGftpMogAGvQBiQ6V4b9yMBTxC4uZFBRdVo6brHIGAU3TgCNHDLMHDMoitIoA5/T9dgIJ+RVWW0NUthLa0nyJWZ5jYYE1SlXA1qMJft9nBAUBV936BHrSt03SuDtr5uwUJuyBBYb5sLfwUHuuc0W4GdwTbHniL3er3NKRS7noh8JpenKsByRT/zxoZhGCnjXjuH49zxeqnueTmlFcb7KEhdZrsRKVtRCvBsD2S6kdF9laG1RWZNKAF54+q5IJuG1MD+yCiMru8z0PX+sUawx/MYo626HWRstX1fv3rgcF+93sd95R9CPy+jtsfleB9PHwsQRm1z/vbxYVzW8vk43bXcKOFSv7iIYgHLapMbN63Zc/oj+qgCIZd1GTS5xiUDMmTYi5///Oex/1/u9k8+/nh61c4okAdV/7p6uLOcN/Ig4PGrduXyIr0XpwpSbNvb1X7W+9H3uqd33/3g/TkPgwywrnneDXRk9vkkdjFwyqNm9hwZzfZSdDOnU8qQy5uAx4BlAgEEYhmghWgp8z17CF6/nmMRFOzIpGQO3Lx7PZ38P//wfz+6QVdD1ZjwKrTtGbd3N9P19avp7u52RkM+iNGAlvwH0MAnzFQFyQ09aBMG1KcaWZc5EJa6xABKcldQNYYjYegpCG+PC+hodsD1atQgtBtjBpj+94R+bbCXDJO844YXQzPTtwGSavRRHlW54UGAPm7sqpBFP44ACHXs9yu7zINwiJIMXknC7gztPkW6xQvccyNVaTYyCi78GnvABLQPVG57okftxNugRDCvXr7aAQjOB5W3vG/V8OwzVm/D2I36VN3w6BwMihuifbLrdWwBrS3aOL8fwy893txH13339wEE+jHSpfvKP/b+CDCL1ujkRRdqwpiJfNzYIeu+lq9yFeWvPAgqC6Omsgg8rzpC+kAz7AAGd3fTJ59+GvUIGMh4CjSQPCqAicCBLTk5+OjpsxFAwCPiACE8BRdLtkbXFXoObwnyiQeBvs1ZCkma1wrQ87lccTbdvr5b0QVPA+2AVwACgABfwmAioeKpOycZF7M3nvKUQ0H3FMvBsgOHOCne4uQff/iPsc0R4sX3FqW6XFPU6m0MhGY0HOoA8R0UxCC1VJm8r9/VxQqj6RmWKXSNlJDquNamHBW7UaXNDLASZmR4XIIVjp6et2Z0pASGrgrCjW5lWAc+CC5tcKOiMpy53IBrBuiKbWHSTLnqjMfe1apAqyGYFbDNql3QQYcVrfs49BRJVRajIMVF4eYI4OZbm29+9bdKkkmxKsIKbrwPHHx1qBLcMgZVmcC/0R7CRW2A6pjot/hXz/tSA+0HMKhcEpmM2g0vOW/Bb84fh/Tb29kDxFvlvSloqHyD7FKX6wRdcxohlyN+rDzsMlrfqWNa+1PpMeIP15E9GaLe6nlb5GL38Loe3b09HiztvLjlEe3RbBTvsgXmqM/bv5KH5uUL1/h5xqSpPCYcuLX1W8YPt/YTnR3Qlqqdx2mL60VdY9aruuWJkP3RkoRsg7bzac0dYB4y15bmvP1Zzu4uOj0zAgi6rncc2Koc6T+MtgfUo+95HsAg/zvl+DM+ASZmQ0sA93fp/eCdAFXt2GrRCxDiHg4AFrRWPAdLFLrHgU3a4hjLGJeX87ZR2dkvf/nLs20XfVnGONMu1n/84f81Bym6YkagIybhUd3UPtc05re3OrBCv9UZHUihJYqbmQnS83A7zwa19/W2rck2/NFmiYoE18AlEdUZgQ865TNwlOOCUpN1Wb9JA9iMUzBvfs/EHf3sPlUJUwfGtAobg+runplOlqCogpeqwHygI9CuzSpFf+7BCLkmvyv21IFAwlC3WhIq50ZQvysfvzZSxFXI9HuUKKmnSFzxu8Fwgd1V6OuTPd1w7ICZjV0MPcM2Mo5+HdodYhB6AIGyXPl631l6IBtaj/bOf7121Hd6BgDFwhhUoNurt0eztwUQfEbmM1E3DFXGR3zptHUw33v+QWni7ZyDOmZvCyDAN1XXVJnbR/ceL0KXHm95eSM9N7p+CBhyHYDudYBEHgRf6pWcytD80z/9U+zTZyuiYgX+19/+7emd5+8ESMCLBG/6J/2SftfWPNkF7YYgUdD1q+uImyMwUoA7AAoeBOl+/c/OC+rpsy2AgC7mvZiFN4AgmUOPIX+AAmxC9Fu5BFr+CrdnpDmGb2So4+jmxwQBi/5PSmgM8QYAvohpYMkCUINu4ewGDorSLgkBLj2nNum6yvXtoFquUNuUjCkyKf7D3/+P1S6GsUJIYytQkERfQoP0U4GMCQy0/1QZnLTjQa6jzCKlgY5Zw8NdxDjwfrqPciAxAIEw25YRV5Dx/eRxur1+GZ94DLQeJOIr/abQrAiYrqn76eFe5S7BlRBabXX3JgOuNvhRnHWmz3MuEN5GV3J6lvW8yvwwJoY9wU6iRxgMQ4Fy5TrP+Dt+zY2DtwcFE3ROrp8meV4sk6aDRFdW0KGeRV+BgRsi2utrmnhgeM8VttokfV5nET2l6sKOO1/t7eXqmPsRh7usd1SMytZ1RVuz5dZnICMZeYy0sLt/o6Uvv14BRWzvtC2eQcuT3NFSjQ6KqoIJV+TeZn2v9+gf48PzW8YF5ea8R9luzODHOiNDUa14YJ6ZLnE3jDX9rPVVA+o8j4zQVvjT9Y3z4mhs3xQoedu3eO2Ye3VZkHfrhGpfmSNAeP9wu8NjLm+13LM2CXN+0Hd3izP21XPkfIiBwwAGLz6eTJ99/nL68Y9/HPr6d37nd0LXKxivTtSyvrRPbvi9n9RXwZF7huHdqpujfVPOyF3niB5pc5YEULxbr6MTBWgATnpffQv99/gw705wz4PaJIOObYpdDGc6/THjMxSDoZQC+iPGQIBKxl7/5DV49UrLMTezB0E2UDkUsLv6xIMf4EMeBABCFaoec1Ullp1dIs8hslfosz4xhzpIbANuEIELwT03kCqbE6ZWzHnyOJ3Ko0EgWwucDNVsyyMJQvJPay/OMCBXR2owrp6voCDd/Mv53sRowBjs6XUawgjOrI4soYsLldPcQYJfd4Fy5eOG2emVoOoktkC6YZgNtbjAzkOva4bcm5l/cOpmBQZBixbMU1H6aiyaIZxHy/MgNLDkBrHSSPXOwLIs3cyAqNWRGauX7Wr0bWgE7x9ie64Ds6pYvD134VHb/auuYmi1gI51uxYQkCw9G/6Htr2TczFa29h6TDsdKPTk2vtAW3inyuChhrEq4aoroAGyxX3Ab+Xx6hlwpc2zvbZV+egOSIb92kJYPuXywXsOLEZl9a47QNpq7zFlvu1nK59AOyU+qnLvtPGxiXM4LZGP08sBAnzmutf1lL6HPEiebTfQ7d3D9Mmnn0XyH5XHqYoqz4ESxvTxMRM2VZ3BxK7WyW9/p8pHI0ZoDgEEAhIb04SOcJroO8DAgYJ7GFQHrn/1JQCH+m8HHqpcJWDSey9fvghPiuomMZImv8RsqS14J9lW+ur61XRxnrZP3htN3l+8eDkv+QgMaDmCiSxhACyhXL96MZ389x/+wxyDgJAcw4gwWdf4lC2KKpf4BBhFnbq+fjknk/CcClr5xUuwMNDj9BgeibtlFtzKde+AysXYPXuWrhRQn+ogsYQGCiSq6FGhNI7DpE/ObIAa1tQY3GQKrVktWQCr4ekpUZgRptqn/EYGqip6L2dmQDsfAtpon64rs/n6YG/53c3rGSnTv6qonSd8rc3pWQU2+6Vtmjm7RdH4zL3yJUIJ2KkzVB+3LC/OJdv5GxlBHnfwsyUbIw+Cy8YI7Hi5AIQ1L5xMd7e5lUx/zL6RKZ515eTG0vtYZ1f0z9vmCm8LFFV69J5FmTsdoUn1IjgQ8Od7AMHpUw2yGyR9d7rpWV+W8ft4u2o/DgVK6FCfLOkaBuMY3Tp69pi29Ayi84rTTZOq/G85kK3KlMt2fBc4uGtbHLWDwWbvdWxpC/R3Odc9nSkgfS/dKkMoPfyzX3wUEzytk+M5YDdDlZnkKZs82tpsT4/4GPukFt3j9pBntcTgY4m8uS70mb/axHKB2g/fic8842TI2+nJpFT5JJjSNbwq8KWuKbAwAgofBZISDOVZDjdBEpIeBU3bUdC5BDPF9tAEC3eTMiienuT5DrRrAVqPmQdBAMEJcQzz+Wygp/h0zWckMAidRtFpKUAzdBEB463vcqOAEmcX0PQwnQd6zGNQGSzqoR0AkfQMJAjYKau1j3UsEUrE1T//gzkwnrpX+85vfw8l5cq2MnXQviQTqkI9ZNiWxtrHzxkVxedC7YoyhKIhVtpVFS19n+n6+rYdxrJemnCjMweItvHhHoaP/kS7VpkXDSCw3FKCi6rSrCDMjYb3KWnUBwgjJeqn2O4oxo72HnkQKjB0Bd0zAg4ofGwf7hdvgtMUORoBggpwegDBlTd1uhGt7VyNd2f7GH2eFWtbs8XTVw24P9/rxxZAmBV9Cyatit37T7srQOAZBwhuQEZ81hs/aOlgOxSvXFj9VahRMd3rx+joEW+jO1cAAX3dMiO6nvP++zvhJYwc/xk7hteXmX7Vk1V3MlZ1giTayUX+6vr19MUvfSWMmJYVGD88Ul5eyk3GxWF7XG6dFj629Kfn1XVeDJrJg92CF3WP73XHGtfhM/coqE16Hk8EPCeAdNe8HywN0DZABrP+LONiun51EzTJ0yAzH4UmuSRMAjjovWfPnsdSP/EPJMTSp8AKiZK4fq9tjn//d//9KA9CNTb6DWEZbAangobe7CcNv858SFnwwfJcDBj4MPL3Sqd5HWCCLI2AjiU40deapwiaEeDQcxA7XEYtp4EDGV83miW0Bf4pCIb+sRVUz2iwRWB3P+E+3VV+6Rry64kgW9KXNoMGFPW0hBsIR8couvhsZ2BU0OCCglFzQdZ9F0D6qzrP7WRJV1TVIFR0jiBjzOjT2nidTI+tfAcmI+256mtjoApIV+/GQVNLNHltc61Ha6sjHu6OyUD5rwCRRXCjGKoBdznwe4+dJQZAF6CiB9R75VMHILLKbI+23uc6PlWR1vsoUKeF2l6XX/y9Vd+bTNSZIM9DB29jBVrOczLWc16XElVPmeg1aHSUFe/k+hiNw7HljgDC6HoFc9Q3ioFR6mSX39puN6QKQP/R//ynMEjULz2oEwP1zydO8HuNycGYyghwngFgQKv+FxeZxlhGjjTEGDHepY0jD4LTpqdbqgfB+cx5Vtu8510MFiPE+QoOeFSnAwP/jjeBrc96NrIhTnlGgn6rTGb3eBwExNiFoLTMWjZQ24mnI7ZOSzICB+SmULDoe++9P93e5vJRgJ0G2iPb5ZPL6fLqMsadpYpItRwAIcJ886URk/UVel5FKbmR8Rl9RZG6Rz36jjfAkVkP4c1K6PE+omNl9GE6FE3usshUnlWwvXyIIKYT0RPt57niPngwg/pJPnHWkrwuPccSBnT0WUp6MtJ158o3+59M50zG7ANkPXtQDDwwyBUg6Dp95f0qlLRB55UzFq5QewBB18Jo5qCv9BqZ0Krw1VmU84rzTlyP1NFLcJqu0Q4EoBqA3syuZyST7osH4RBlfR7Rs+2MEDslc6TQtVzT+6M9ThuUjstcHQc3uronDwJCjQyRbntWsk0eK2h3ufZxdjrAYz2wvGXEnN4+CfB+w9u0WwZa57YEyLcdQLzjMlJ1DL/9E7pUmiXdFOy23j6md51GMQ7673QBhd6vLW9KpY2Prbf9EJ7bojP3ejy/9d4+gOC6PRVUHq1M2+Ed18nzO6LjnTy/d9PlZW5nlA7Vdz1fbQITOacL+pTJm/S6Uih/9atfnd57/8Pp408+nXMduB51PTfrswctP69jENwO9MABvODvqU0+QZttx30Gt7N0yju+bdnrcw8D/dQ16EAaZpV39fTpdHufyytMPnVdgEByoiVwfRLcKA/Ck4s06ipTMqb7+i7AhldB74mmH374xfAgABrUTk5+9CWGkBnZaJ2i+cO//fv5uGdXVgzgrIhI7mDCXJX1iPiVeV1Q0phrK8gSvd9De668Ls6WvA1+nYEhCFJEUTpOZd2Ks7mv8iAMZ3jaEmcYtC2CBCHq3owW7YwDBJTtJfrtiNYFGWI7s9HOin6rwaQcDZ5nKANU6D6oFGVGe93YIEiufGPnh3J/t204PcXeU9xyuzNbQzgq2o562ClhgKg3m6CPqVRPp1Nt9SnnTqBwq4GtxoR2YACrQlbO+HRBrv9GivviNA1+NTr+2/uksF/dqwrKjQv3URCze1F7uFtd0HfHqD+s4zOQV+jj4wJvOE+5fDtQ8/HzmZQD+YBvkUR1N6tn1RvwPHE6Kh9FiDKjTp6hDMrH4Pd4YUXzlrOlpzPcwHkfvb0j49njkR3GsQsVlFZedD7n+z7AoPt4Th0AuvFyA+zlVrpV+gC+SVZELprwrp4tu8oWXZbbrb2cuY62Dq57s3e2AWrVw84ifdfs2CdCcUbPycn0VKcItjwH8h4IHEiXaYlB//TnvFkBJO2K2LSy+wdZ6Mmm3mPpmf44QHZbofe1xMAuu9oG9LTrZNf10IZJW+rqTA4X4ytQ0rb8Vzo7r3AmxX3EfqTeALToO55rlhIEFlTX8+fvBAzGPqpMgQf90zuaAAPS1Nab65fpQegRFCXr91yIneFHwtkTKJQZ76QArAFCFSCEb55Fh3dAhoqsVrmTgrUnmF3vxf7ZX/4iDjVyRqB/VZD0W4M1P6t1rTbLR9Gv2754BXzJYWWomxID/Qajtb2ubsxYl8Idq+fZ+wrqRKH6zBwmREAdHKBA4v2WyczHkRgEVzR1zH2sBRDIXeEAgXYyVpThnggf114GvQyG6czCNdYtw6KPl4KqmBm60q/AYeHDTBfeU/5VIPUMyyn0hTqch11JyBvj/V+UVnrMah3iAfjM5a0Cirm9j+N8HlUG4YWdWfIgfTR0dUPn/aw08FgCpz0ySv26x6wGxYuiRJn5eEAn50HaEWPSEvJUPvMyeJdPeLvqNOel3vj0yuzptJ5edF6v7RnpN28DMu38ofcAlk5n+gEoqW2skzwfYwCI3kEnnZ3vboNVeyqYC6Mmvm75BnzCQzsBBU4jxtCv6V25xRV3oHp0OqP6/vLVzXR334InJe/NO+A6bi37GaTo16Al9HNQqHtuF5yuVV4dIHDeDM/QdzzJgARon8Ar0zPTNrcBsxcl7FrugnC+pbzw4jbbETmApkUnuLzqGTIqaqKcO52kWxeATx0CCD65wLZEJkUHCJXRq1IY3a/Kyd/rCZTur2cQUqDL7IR3qtECAd7f5j5dFygvz4mo7y9efDYTVb9ZGpjLa54D6nOlqu8uRCg+jDizeZXlAZYoRl96cAXpQkqZoEDN7APQ3GlFaumnv0+bPPhSdTLQLiQwnOqp6Pg24j/W23R8zHzmpTJlNLlWFY8rXOonCUdPSSJULgxac+TZKsg9XpqVflYej/j4rRR/i0Go5fTAQdBSoLMt6fSMQFVSGi1o4MChKiyXj2rA/f2qKLTEQDu8jGpMXTlWWvjsu1cGtKl983aNxoHryBWgVnKBRwDZZ9yox/vAPad5T8cgNw7oe8Ch1xfnVef/kUdhxCM9elW9WXkf3dUbS/c80BYPbtQ10utWWjpI93ZxvdJa1zWBUjkyJnhXlVof/nWj7zSby4/06wmM4VfGH7pW/enjBi20Dq62/OhHP5r++Z//efqDP/iD2M734uW15tTzjjTGt4Ip2qNl4l6ckeusKo8YRPq35UEgUZzzVKWVeJ2zENQv6OJ6TnX5kkNMKJXH4TR1cd0Rhx0BzCRg0BJoPo/XW9d5lqVyyV/uzNOzud2dJW1socrw+Lnok5YY/u4HP4wlBg/aocOHAAQ31G70ekqEAfB3ssO7AAGGqwYqkGkr3JkFw4irPxRSO7hDgSvOULwnomLgnSmq4KFkX3z++XRnWQ9B1BKuObCjeR+YObPfWmUyuPpOnITaTeyC08WV/ML8ubamd+Rm0h+MUcGHo2IUNeUg9PpdYxDcgFSlGHWLydps2AGCK1bnGx9zVzC9Z4LhGwO70Pk4O195+8KTYJnTZiVsB2U9RhKV/hJDj197SaFGiinGwsquSqMazzoT0n3Gxdfll/GQJ2t394wbm2pkGfeqEP2dnuEfgQM3Or3xC35q8UW6j2GaPWKRuGzxpuhZB9pevnvrvD3wAvX4JMJpXPnOy676DUNG+ysv+P0tveb8Xdvca8+WnkW2vW6eZ5YLzzAj700O9A7LWNUACrwTEMdxxaHHTpdJibfR+cYnRizF+QTLxwdPGUBR7bi6vIysh5yjoGWFn/zkJ7FTQWmUf//3fz9c3rf3mX3Ava9VT7quZBeDX6t9qHy840EQj7akZ05zvVcBAvU4yNR36WdiAmZAZAc8RVntvJYZQESq6DT4rof1rGioMdI7s/c4JlOpE9zzIUMPL9C+XHbIODf6y3fap2cpO4CGlj9+8F//dhWD4B3uKeOeoeUdlEZVHj4g1YWTzy5BiyofJVCJNBsKO+2PzjFDEcNxjaWGi4t05Tr60vMosKpYfHnAgQoCRbIntke6AUMgA8iYOwkGinYqr/jNTQpA84ZEGS3OAQGAURhsxUhwUtkFiTVskHjPwQiolXqg6azALA+CGzUXMPZhBi0aQ7phqQCkKlHnB76rXRjJBcGfTCdneciR/6vC7vx2CM/N4zsACCOlz+ke3v6eseA+SwzVGMEHrqCdr5x/xHvOl9yLMh9PpzMBqBZIB/18du7y6fJDOchAVUJeD7zRAx8rvuhsb/QlJd73gC55xkgsU8t3IOM08/GpE4aqayq4Abi6THn/fKwYn8oPrkBHvOLver/QZ7pf26JrriMYg5mfTIf4BIDYJ3iI/hDnMXsebDseZfuESAaHSQ4gQ7/PLxY3ODyG56J6pGIC1IKv4TfkWc+qPPb7p5FKY6a65fpWsLk8BQIGWl5g94OekX59+uzd6TaCIDPwPIBHJ6h+GdPc5lj5wMeB8dE17JGPjafndl7Re8S/jXiEMtnVxhgDAqARv5GnkMeVB2FZYqAulUkwZMrZaUwaeryHThD9iTORB+Hp02fzdlQHCHiP0D0BMmSX/9vf/CAPg21Ls6x1VAF1gucy5noLWB2AkSCJyKDLxciUjHFlS5MPUsw6mnfAhYYtfWI6BAcj/fr2JtZ+wr0i5RpbK3P3QAyU3Dvk9WfpIvM/x3PEBqi9sc3Rjip2YRRD6/Q95QjXn7agLEsACYJ6/cegJ4jJdikuI8pW4E9LopEgIpmfJFJpsDKASOhZdWpXSAYUyTuRrqPH2B2QoyIBY+0+UmA/JvBINJrv5T8ETUhVnHgyabbgszYMJh6UOu4j0fYGbgAAIABJREFUPuoJGLsYgkYNDOlTDfddDPNYDbV18nNVEpEmfOpnO+wVpVPn/NAvyhsZLwEENwQY6+Az0bPNSjAATkcMd12fdYPMNkeEn3dQSm4Eg1fbemXwi5R126lD7E5k12xtIuFKBVyeKdWNKbSAPt4nvrNUlknJOCtFMyflms/gqpQfyVk7Sr5kNPT2xHcdDlR4UNfT65K8S+BXtnEpOwx9207sBtPHvje2PVAYumsQuFmNqBt+BzTwR/JBnivDu2GMLvJgI8mmUter+xcXmW4bPdGsQ8izotoxeHqfyYHkJeKPpPN0Um8ztDLMqWdSzhnru/sMCnS9pHeJphdfEV2vicr9bZ43AD/jmdX5O/K6yqjh8UywqCWNZ9Nnn/9q0pkKX/t3/y7d7acKoLuffvWrT6enT6+m65vbSJXHGUA1BsL5ETmpHoSZT9vDDkJngCB6NAOIfqa8QwEC44Xc4cKnHF9OkK0S3fCS6ZlZF5xmoCfLA9hj+EI5DnhPqZbzmINlmRiPMl6EjD3ImAbRXYGK+i2ZxBuh9+P5s9Pp7jZPco53pP//7gd/G0GKoDPdIEoSQzvUw4Mbrix4BEN6bFm9532QVwq0uTVhUEdtLjgIprcNgrKNBKFmYH0weR8BvIgc4Eu0O98BB6zzgIKZzYvmPAOYwVuQ43GvJabYdqTn8FxgCHSffa3RFp0/cX83I3oEQKDBUwyLUaSwz7Vdp23Z0XHeL1+8bL8VwXozPbnUPtxM9RnGNfBKMi9lq73MEOm3K8gAJ6q9gTLGBLenK08XFGjsoIry5/GXC6zRfiTQzJSpx8dpxEfwhS8xuGKH/s57laf6fJsgDiWEUnAlFnQVSG0FOMgZtRfA7cbN+1vpRr26DlBG1nEH89uB/y7gWgI+vf/+nXbUcdxLr7OcacIT0AzaV8X9eLcsI/bKRv7DkCm9uB1dTB3zuLfzLpyuvTK9Dc5/PEubqXsxYgmG+BfH1TWAhKHFwzbSlz1+9vFx+WF7NjrGxzjaRLBh89zhxcImoE/nGIV2jo3acHl1FVuTpdNyIvI4J7hT2bjaMXrZP00yzlre/7sANvnuQ5wXkEHrSwr/qie9b07TpNV6AuDy35V9i1tycDaiuyZNyJnzJ9eojzayhKbf2BK+s+ZfdZ17sL39boPSoJ9POlFAzyi5n8ZHHnR5ZXSNY5s5v+HiQjv4EiwAPNRP8QdtgQYBOrQ0/4P/+t9mKUcB4XqAoVwhjgjXu+6K703L6CvatWJy4VSba+AehHWQgsLSJ54EfYfRGRg+vR1cS9Qrt2/bpmKfCDo05VNtYJuJPjU4ZMDyGaGej+e0rzc8A2SCTE+EjD7vK2mUZhSSqasnOeuIU9bC05AIUwGP8mwoaIaUnGKK99/7IICAFJTuxwzrRDOU9GCkFyK34yQ/XMzufxcQaOyGFIEE9LiBcwXpRsQFCqHzsXJjJ0MaAMpSeruyx8hRf09BbClgjm7wds/KPwubX6eukRy40ajG29sVKs7yhFSlX8snJ8U+g+vj4obtXrk/AkDmOqeDDAcSyJgrZB+3Wn+VfR/vKq/ex7n8xm/oDYwtfFaNsye1muvSzKx57QDp6LTzyyczKYkuV5ncd56CJrTFdYIDFwp0hV/bSdsADVHf7saaMLRuEMYGa52di/YsbclD65AB2k6cC8/5rHUug9wk5m1lqVZySuK5Tz/LI5fJ668y8TDIlsBH+amAumWpQUsLeBg0QZGug2boQ3S6TzwqzywylMnQ4CPn4aqL4xnLK+Nj4/zrtFc8G2U6PzhPO/BHn7nNUNkEEjpt/BkpczzV2BLGaJbRcJllqnxABXxF+WrXsmygsVhS69MvvQ/4Y+IW3kd5k//m//wvj6qwBsrJVa+G4RoaEWzEuL3r1Xgc8+56kHa3sfQUFwzmhKjl4K6lf6BlH0BX4D5Ys3fB9v+6kkXRc63OGF1J4CGINcDmforzz69fTq/jZMw8LRNQkCcX5OALNbKHVdmviORdIV15ZzXjnhIQyTBEvx7SMOgPAQQoASQ0S5BLTOOnEzqhgX9W/nDFyBoYiscVaOUBaFaVrPri4xkKr51+Vo2PgxVH4D0eSp5cliRc8SgBTD1RMQ5UMWBwiFzwjBsa5ylXXBVouOF1YOFg15XTiNe975UPvVzVVwHM0sdlmcqVpMrmN+2qAGHUXpamvJ/xbvMgOFjyJRPnL7VXS19urCt4wVMSbW37zZ3fvT9umL1f8J+uVTmvhnlkoHpATbsAADJhDOVZvL3dydnCGLpx97HEM1DlhP7gOsa1jIGrPMwyF/eZwWNsGJM4E0G5VG7vAxzI/a13CEbkxMI10E/xQY8tRxGnvUEuAAXQC29GpZ+3Pdu169XqTRCoRwDBdZ+DkJ59Up4Fn32rfget8PEaFC0HvjkIWHkU2lL3bOhbTFqVMzwywd8KGD/7/7h7sydbkuO8M2uvu/W+AAQp0ECRIEDOjI3M+E+OSGykSEmjMZu/gy+jB80DXkia0UhwCApgY2/0dvuutdfY5x6/jC/9RJ6qajZAk6rtdp3KkxkZ4eHLF+4eHqmXoQveXGSF9jQWhfVy8Ze5HMitfjtAmOdLOQgOEOiMGEkFhtS4DnZAadzFoNdn9HdVEndpb6TcEUJ+15UXhHN3NgyAcYYwTKzuJT7joCkUd8tTQEEwwaq4h7GsiNCvu8H2+xib3s0uDD2nfkRxn4hPZm6CjLZcSELvPm48EVet8FQdM+26YQqFop0cLe+C7wBNgA62XyYT9m2Ia8axCi2Ap64AXJgQ4pjDHFiuZtsuBL0bT4uei5WJQh92fPMs9HbQVBUwTvysdEBJOGiLeW25Ng5Y3AjSfrS3xtBGX25xIEAIhu+cfg5YIkHVlEGtaDmvLEZVAq3QWSi4wWmGKBmnWQUP8JyDmgqARqDGjVH/XoCzHwxEblO8Y78nsTpvOL0XtBwQX+8hPuu8oTZUIIyy7ChtdJTTke+Qv9Hcw9fQhHFUkOQG0Ol4Le+fJSzyLgcqMwgWKNZOg5Zv4XzJGN2IovzRa8iOAyjd4wuUV199dVFqGY+n+gOgA2TIwF82Nx56A8Ojd7gHIccvO5A5D4zTDZbLoWhPTL2CP5cLbE2O+2YPgsv+yIMQ7ZRKsTOvTZl8Hu9vZ+HAIznuXvgI3QU9HFgCLGhLtKPCITTQd1wTrQCGAJQIFxykJwz5YjGG/l/2bXlcPLxDWJ35w+txeX427fzZd/40djH0l6ZQKaNUkytmuQlVrevFzVDA2r13ud4FMRFnFcTa1ixcWgFfXoRLFTDBUc0Ivq8qfCXqCh2jzyoichBIgLIzwQEYbggrrekrSglhwVDF8afXmVQphtBvIXflDJydnYcnIHIPri6n5y+eRzJTeBvOzjIZqSX7kQMgo6+KZRqP+n8U22aU4JRxQYCEryI6PZU41bfJIJigVRc8R6ju/nLF6IaEtpgXV3zQG++O2lBiqbQqyUWVB5hHBKTyjBs45pmVEu85NuFzPlvjNwRrxH9uHOBHX3kg4C7sa7xd3+/PurIMF+WgAurinlJUBr5g/l0eGBfK3Y3M0lCR8LY8W4V5hNfnfrdCYgv+MeDngMV5xgHCTjM6lWYABPpKiWdqVqC86yrbx1aBF/3EwFUQhV7YppdkJCnsplBW9KsZHtdXo88zDdrZBYyZUw7du7HQfQEsUtdDlypn8AZ00d8Yaf3WwkTeAk4EPDo6ns4uLmNHAv3QOFgUkNvl34ktyXP78MMP53g5rnB0n/qJ17TSocpjB0U9B8H1roOmBbi9oweBxG1kAJ52Oi6Ncj/UDoDgcsBzLML8HubKF1iuA+U92NvPkK+DXLzfDryyLQGE9Bb7PBNWByCoLc1B7GIAIFShVY1mdVrM4J1ii8k25q/K0CeqCvBdgIErhJHCdiPjysZXIDC7iMeJWbqXDNlqoLwd76tPiAACf/t1QJdfq5O5UHINXKA447m271WTCPMw8QkUclunntHnGN/l2XRyotyG8+ni4jwAkT4rgUer0NMTff8yQhf3j44i1qVkRbWjspxqQ33vyTKZYa0fZaarDZhX19wz5KspQBVjZlzQxRWrG5+lsclvgqcaap8FXKGBgQH01UZdcbpg0E51X3JdRaFcMdHHCLe0caPMdJ/4qf7gDfF5dvCCrLjhc4PkcuarV79f+SJUSKsyUukKbaCp0xo6wK+4qv1drugddHHPbIjtFE5dwyD5fIiG4idkbAbFrabEJr/03U6urwLUrByTSBvQcZahCMUl8HaApb6gIF0XjAAn81HpEO22uhyhaIvhd30YnwMr9BMI6RcLjCpfjB2ZIAtBRpoVJ4BHz2pR4Kt79Vf6hPotLAroJ14CPKSsXnWfcgbeeOON6a233gqwELK9n4sG387IuBkDfKg2Dw+P4361xVjQOfqbcCq86t7QCsbc2OU8yDvRCzdV3nVwEM+WJEWn9cg2eZKi83SVJ2jpOVUOHN0mOKBSf0kYZKxcIzeQ+RFAmCjT3PLfWKyRMMp4ci4P5nCI6wH1nUOh4HO9497R4bTznW99OzQ/nedBbVEhLgZAgNggGje8rrRjSxd76qy+PMrZhdsJO5qQ0TUXyNl4DE5Pc2UJsV0JIQAoKBSFo+tqYNx1E/QQcZtx5V4MIsLh4MEVcjUKbrzcKGKMfNxMZFWuMuRy256d5SFUUg4kNOIqxN0ob4MyVfO47QQArKJdOeo676ueBTcMMX62glqly0oz5gXm9VWGrjkv+rPw5gw4AvKse6mgp54jNucG08fsQIDPh/sHc5ntOs6ZL+2IYecV6Kex8LmOuwIh3ks51vg7Jzh+Y7h03RVMBWVugNwAuqFyuUFWq7Gk3zyH7HA/9IPPiXEvQIB5KFw5u35w2s5jadsv+xbszBMJ3dFWzt4GAMENCMa+giQ9f9k2kDuPOE06PyQokezIIIpXKU3rAMrnlvnR/VpocSqfAw/RbA5vtjPEHMyoXxXAcA055T36W7T3Vaj+RnZYXGDA47kWXowFxGWCGM9kBxR4PhS6Rt4DtQHwEEBAvtwbh+FzvU8mvXSTh1PX9VmCOGwQNPI5Xervnp9WdS38x/3RRlvs+DvgK9fP8EPDvYtaPYAA18/oMAcI3i7XsUHcj20EyHo7HMec24b3pv2Dw9jFgB51ncC9eqfepbna3z+ccwp9wYl+129kOYCG1mTf/ua3rj15BeXLilqD5ns3fKwCmVifYO6DoZ3xRwbfBf02IMEn+jbPVgXqBK1hBDfSo7YZCxMprQVA8HH7ZFXkOAIJriQXzK/wQasQ2BkwV/RLYWnbplqOgIReiU4nKsakPa8HWYErXXZty+TZ6bS3czUfhc17FYbh7ANOuERAssZC8gTvF1P5CgDFXAGkKz0UGIoJZbk5ps0S3NBZ4IDCUc43fO/AxufZ51Xvc1ec8/F+nlozgyfu9ZoMzov+DtpxY7kwrC1+WXlM7XmowttnjJX/oTNz5IrIeb8aZQe0fIdsuFLXZ3hH7/DVqfN8dVt7+74yq+CmzofeQU0JBxXwVd2RoPYIB7lscb8rbt6lqpcj+fY5cl7QZ43PjZ7LbPTZjoL3LX++IAKAq2/i+VDI5kHw/mMkdG/kIzXwjLy5gdU98mCpH7ouA8wzOqxOc6aVP0cwM1cOQpA9ZJE2ADj7sWLN96htGZ3YAbJ/OG9xBLyoDzJSvqDIao174d0knAAvqD+1T8gltHcAC51cJhLQjgFClZ2ZJ6z+gS+EKwABVNB+BwwZThnJ5MgeIBMOHHwBiV2tNkK0lMeH8FDIU9RW6bsSaFv3iNYeLs78BSXXZv0F+FjziD5zOx9yoDL83/rGN6/FCHqhOi10rAaYQBSFK50q0K6cHQHpM4ZAz+DmGim92wCDm+4ZCbwbCSbVFWkFOr7K4r6R8WE1oHuOmgeBSa2K1xnAlSP9ncHG8kXpwQk39+bIKw2pwphgoic1Qn8QPs+BmA92pun5i6eLGCLGAFcfYCAVVYY0UASsohwgsPKEdyqoUl6E8iDEtBiciqBR7rGFNOqOb54iGMmbJuB1nugj76/GA95w5eE8wtY5fa9n1W951nxcbhgQNIAEY8Cw1DGSUFTfv8bHzie8V89Wrw7KjLnxPqIYKkchB9AK/tB9/p0bXe4dyWWdr2W4Ig9aG41z5mvtsWo/VQ7hSwckmitki9BYAKdWzKiCBD+kDHotjY2AYQ8/OA183PUzRow+MG4HXlyjv1M7DdGNkutRiqDBhzzP3MBX7DpiPBh/9UW8JkMv2pGErb7znroK1X0KN+IliLMF9K+1BUhTaFJb7fCU+aIA/na+lzdTAMH77nJK3zHWgAQH8SM57jySOQiV/0YyHvc1TycgBJ7yNuhTznUq4w4QFIpdegkDGLSQaF0cjgAC9/hv+I13qU2BBP3Djl5K2dshdj5mgQkHlAkWBe735wWI+gKQw575guJgfzc9CByUoRe88847s0tCNzujLgWon7lNxxggjCfGVAeo9w1qqt6GkYLZdm0bQFl7DgXhvzFOesYF2FcRI5DAOHlOOQiOFh3dAoxgjAoQ/N6qxKIfquZXQjY+RpQ/ymBnR8UzcoVflZIj8DRiF9Ph7s50dp65C/RF91FGmrAEfXvx4lm8nrkU70iRqMJblP60d3u4gWdk8HPB1HcluIL2uRWdXTFDw3n8ckNbKGsEYl0Z+/fOyz7fzgsobvgZw+8rt6qskBcUjfqv2LB+e2jOQWNVXiMeBpSs8aYDGwdwvkLknSjzGE+rDMr8QmMMiZ6Xomc1SN8wgNALGqG8Rh4D7yPtRHnZsm00wJht768yCM2d9y/PtELaLNE9ComlderJY85zFfxhKJwPfWyM2+UY177TJsbU3Nn5DrnO0zu1F6HKPmDXp8gxfJWgWmG4XAlWnnYaYPT0DoU6ZOy7YctCOtQgABDC4+JZ5h4asMXOPWgCenFcQgtPit7QHJ2o5/RZuiJzoXKe0KNuD9AFLGzwLFSbsSYP2zwIjN3bEgylraozGXf0qQFNL8SEfWTx5QtD+JujrStvzmBACZ0HmRvAKbnoimozgm29yJH4ZnfpvWCMlCcAGCZ4FMiQF2d35gXmioUDtIj5PD9VqeU/uxbTPX78OB7SOdycD+1xH5ixCpA36IKr+9U5XFF6oe+1rIh1GyCo31WFXo1/vR9U64oYhnYPAt/7mLwtiK/vidXoe5gMgaB/dYIrA1WD5wCB7+RBmCa5hHL7DAJE6WNXQhEOiJ1wPeHJx1RXlJrffVUe21mWnta8OYJ3hSeAIH5hfgUOtOPF45sORDi/wgGI6KN3OFrHkDG+8AyU8qdOr+Af0SSqsi0Ng9PZ+WxkCOqcc3/MRVvZuREAAMHrDvhoy8ei7xk7ZX5HMtPndXMft/Ot86ADgZER1XPuwfNcjwWwbKWtmTeXCVYhPAuPuj7Aw4Rio203rigieWHw+oTsWDIjf+uan4zJO5FZfa93wfvBRy2J1uXV9YTTLUr5F68Uz9EfNw6u19ROb7cnTTpA8P7CC0sdlAABz5Li4F5JEToA5Fg9Y7xl1AFWHurTdaqtzn28upqev3gx/cM//MP0ox/9aC5uFMBkby+OVf793//96fXXXw8SqL33338/ZFxbGJVvAE3m2HcDAcGzWiwcJABQPzFg9CvyNVoJ3yyslKvYEUCgz4AVwjHQ0AEW8lLtUeqCsQcBvvTfbFFHrm/yIAAQ4CfGi46AL+nfyAboO+wHvMzfrlfco7AEZa0wX5RKz5LlbgP1mbLYap/kRtFdlXGZZ3QXoQXewdxMVxdZalmE/+ijj6L2gRhFGap6GIVR40Uj9FZXpyiL2FanWJWdQOjuohEKdiH3wcNAzhTOKBVl8h0Ir7aLgNb2QpiF7u3Qj9lwtVWAXG2xD78VnIgdvmw3iX3mbS9/oLw2oYNjlWcgUOII8/XYry5FKqGiVC/nteubNI7pDt3JmHw7h0H9r4ZX/WUFr7LMyinY3ck4vHITVIL56PBojstT9jeEKsotqxxqbmkSE748OZkeP/4kaqtnOCBBDNu2Tk5Pot46SUnalina6ncArdh6ozwLnTPRijc15ak8ipzTtnVpronQ6JAvWmwRCwFrBaFQ8gjCPP/zis1jN6zgegncqOTfVnkjMIeScIOg96PgABugeXjI73dDRP+6IoxvF6tEN3TOO2ttUjsCReEGsCoWN2Z4O9wg8j3GgL6gH3z1SH8q7UdAxuV2Bh5xdgN5NWmJ2iaW9BTEHPef89OzRcU+2sHtvgAIYpt9wlZ4EsyR0aqQ5nkk+S65jBNgq9BSq48xn8XQamBY+eQYf+tw8kFu/UxZlccyE4PDoDQec9oAKJgvjydjhDCgLFh0r4wwAJ4aBFBJ92muTnXEcwNnilWHMZHHsR26hPfATw+krxgPPEXSN8pB4O8Ad62WjK4JYJDgmbzUzsQxD4L658AcIKS+AnC7Hlhuoc0zgShffh3nOWi+siIsHsZcbMQ2cZ07c6HaMqlTtFMpazOozoDmJPVSnl3DqZbwYr4HmWWO2YnjYMBlGRkADPiiAkAA0HAj7c853VmcRZGkph+QIfVJcqi5x2OEt1fenuqp6HMSBb/nirzxjGydPAh6SB4EgQQlsrz91ttRdhdECMKAMBhqN7gYfVekenlm0WeGLTGpqiS8XUf9GO7qbYAYrlgQKO6F8KyAWD0zEbpfytONCP0iNOJCAerknWwLcdqEvWqrG19RzMChAQWhVu510DOiq5X9mPdNC4UnnTEgzETmKzQ7O9yi50Yt3JzXGYrQP/cUqH1WASRcaWdEMlEackAkNMCYMF7mD4UBWJTCmDOgbQWpKmVXF+ehPJ3h3bCidzHEGFO/xwEfCVaphPqRytDaecgVqfN2nRfnSzfM8B4KD+XmuQYeP6YdeMWVhfMF70jD0A5Ws90TVX6433l2G7/5GFwB8ozzDH30d7jxrduroIXLgC8m9D3eKpSgrnns2fuud7nbHb2CEvT+wyNOX/rqc+W0dsMcMlYKSqVRyAPPcv76+RpuOJAF56OFYbFVn/rCeyUb6Cz4gzYAYJWH+J5n9TerzxGvQg/djwtcn7Xa17upgYPXiLnTdx6ySV23P51f5s4jlyl9ZtsvOW45H+lB8P6l7CYdHShonrXTirLvrturBwmaSCXKYHdvWVaW1Xyk1/J8evHipZIP8jwaO/BI98GDFPDCc0uyts6NUL/m98tr0s6mcTnEuDtd1Ae3Dw7WWVCrrThEbVBPB7kBIGgXw0E7Kwf9TZt63udPz7inj74yjsqvMeeCTgII+oNQgAojiWmosy2GWHO7oJRRAm4guEaFP1Yw7kphUK48HGA4EGBAGC5nfFcgNeYMU/GbrTwABPoMYRFWjCYT7ahW7xDqxk0OemZSfZK83wFO2tkN1Sjwd1UoESO2i66MnSHzs7w+y9rsbjj9c1f6KTwYE/fuAAQYX26N6VW7nGZV4TKPtAH9dJ8YVYDUhSX7cDWpepe7Fplnb8cr7mEQnFdQlDnXokk3KhqLFFcHq3mKpfePOa8ghes+R9BNv6t7kecdRHrYDl5040Y7LgcuZ26Y6Qf3OpBhTrnHQYD3v46x8l/tB+9wWYcGEbJqGd3+PmTKZQmZRZ7RMT7fI9DqeU3oFIru0Pfw5rUVJLqlAhunaR2z64RKN1ek0KaCEmikMbkx93lyOrrsuP5ypY83gNwggJH6ThhP7ZPEBjjVNWiGgYff9FtgQO9UeEJtapFI3LqvPHsRJwyN2sr7jqbT85x3dL36QJhaIUjkPOmUBXsqgHEb4root2HmjikHlg5GoFPITvNM9BwZSs/nSZiq/6J8DKrU3r/3YLGtuhrwmR+1iAq9f29OrmbePY5fZdEXpC4zzpcAOu6F7tyjvwHezo8qkhQgQQc3sf/SgCdeQJ5H96pd6KNrbnv88wwQvOMMln2SAARHb87cPMsEOoH0jNpx5a77QlHE6YPLxBwmpxqeGR02VIUyUVvu3tRzGLhqcCFEZ5yW6d9K+1ZhdwVLW+mGz/HIyBDbmRVTSZJyoIByjN+DLFu+dyUfiNtWijCrKymEpis8rTKXdHXhq8ZGq/Z8Zx6Li1LjGUBIV1ablSuh7UhRukHzVSFhp4UBilh4njfBDgfnL1yOGFn6xpgAdRgkeJc5g/c2Vy/r58e7kWJ14cAMvtd9rMacDrpX78+jlTNshyyhCGgPnoNvKk/yXAUJZEy7XDpP3gQSqvKlH7OsttMN63sdcMKH6nMdv3vv6COGS3+7B4F3i5bQnufDAJSEYGjl3q+qfOvfKOQRSAiZWyQTLre5VlmfwYXVZkBOHQxWXcCZHq7wnTe8j7wDevjKUO+CPpzaV/lG9yNPLNDU1ne/+93pZz/72fTVr351+uIXvxi0lV7DULneUJtqBx7scrszXTSPJuPFa5dJiWfRJmPTCpwTBV1HM+/wEcZMAIEQgvOl87TLvbyz9L/LQ8+NeP78aYAiAQWFOeVBwJDSHwyoA0eNPe/LEyv9/fBMBQOAYBYC1RjP8xQ5s636pO3acuCA3XLdFTvWpvQUoEt4h3su1L/KMy67FdTMNkhyoNMcxWAwAILGi6oQ+aS6UoCZqpKqhtaVEUYRI+AAwRVHNfr0V79xVYOcHZAglKyAq2LQexmvGyo3wK7sEFD9ZhWK0XIlBI2qoo/xtjj6Aqm10AMrUGdUeRA4K8HBA/2FNsyFYmeZNrn8QbDrfAoguIHq7SwVYwciy9PWXGG44NBX77MrAV8xzoY+8hCywAvjwiiIwaVs2JvNHm9X2FWB+PuYe11jzuiv/kYpaA5QOG6YmF8XUObXeRz+5n7do/Z4jrHC+77K9Dmt9PN31Dl0AXcaOB9Xfpj5tSWaMeZZfhVyIr/GDnDy8SE/6Ao3TLTPPdVIo29qG+iRChDqyroqXwcmMz+18IXe7QqT7zHkLotO2xHYqTStPA+VbohnAAAgAElEQVT9Ql6a98/lGR3Hu90gdhlLjxaGC55V32K7YUvwRUYwTFRBVdt4HLxNp4va/P73vx+8qcR0jAy1GZy3BWZi91FbxQPu9Kx2JbTTU6K/vsCUjKKX+wmyeeQw/FB5mXmuAMEN2kgWoIWAuHTsYuExpbdDP59++kl4ScKrt6ety53OvEN9U7/hTf2WvpdXRLoVmYaeejf8xW/Xe77Cd7lw0Ih+mG1gy13jev0d/BOxruwP73Vbjo7RdyyW9JmFbSxclGtgPwtZEEBQkqLvR0fwnDhObG/AVwZ1ot2wuhKvguHfufIdAQT6hlFSv2UwNEhl3KqfJGXp/fQbwwvB1Lba8JWlK3B/1gEETKh+EGIgNIOQupvZlbxPIuU9XUi8bxUghGOueSdGtHSjIC9AbJ+y/d+uxKqhcODgipNxoxQ6cOzxN+afvrng+rWlsHZ3Pv1ypQtt/L2aX7lA8Swwx2zBXNC2hcsoO+1CrPgj46V/epZkHgQWIOgAwYGTFIU/z9zpne6BcQU/G962Cva8hJnuzTXOStCVTAUhLm9u/KpBcDlkfM5Drnidx5wGKXd1F00HkM7nTl+AOTHbDRpoG7Rtx8Ugqw1XXIxB19nLnwAzT6gTLX217vxOeMflS+NBkVbg4ose+u/tjQBC5fsqY/ztChsd5Pk7AMkAqW1nSZ1nfedGNHWS/i31nfMyJZGRKdGQMsv6TroMz4FCfyqv7zKLfEEzB4ky9gox6IeVMkBeY5SsoGdTx+Y/N5ROXwfnGSZR2+nh473L9/frEeJqAGGpL5Of9P2HH/5yms9/uH88XV7kd26s9Rlgw9wRNtECTO/32kHMG3LsvOa2RH3CTvgzlByH5vRHf3tI3PVzyGQrtexgUu3ynIM8rgEANZeek+AyzOfYvv8X/+HPw4MACooXt+xPXxlUxar7XJickV2xMbFrxqMqMFdiKKmq9Hg3yW56x2uvvRZMhBEBTPjAicXQVyYZojJBPnkOECCo2vRYn4QMlFZXKj6pMG3se27hlQoMZiaLKlm5gyFOBbMzB5z23M+YLi97Fr4DhzWlxficufUutjSpDXcBy+MAnXjWFX+c594SuGqfnQecX2YeaLzHc8y//mZF6YYaTwAKDFrqOrFaMnMzQfLlItxFW8wZyonr4hfnQd43xwNbf3k/p19CF5QBtPcVHx4R+MaFGTewy5HTq86lG62kMVnzfSeAK/xq8FBi0A8FDD38ex8LSr7KrAMQ6Ofjoz2tSnWgGP13gOC8Q9/1G1l1gyG6RhXB5m2DVs4/IyCAPLpxcJ3m+sABs4/PZcz1pdOEe+r76J9/z0qetpgDVuY6yVV85vdRUv3Ro0exUNJ3nvulZwAkepd01wOB3JaIfP/Bg6i2qu8EHOgPOj/4QqtyHe52dBSnyeqfjP/DR4+mlyeZN8T40MHibfg8ZETJfG1HFrT1sXe+kz3KpGkAAnNadRo8M9uw1teuFzPNW/TT7quf//xn09MnT6a9/b3p/oP72lvSd581T67Gofbw1mgM4i/R5vj4fugWnSPBCtz1n8sEfXNerotg5wlogt7Q355H4LYi2paHrBWh4D7o5CCh0lrjcQA0sq8ho7I7OqzJjcyaIXGhcMXlyoZ7Rte2tTtCLxhBlKobDbUPipYg6LNKiOqezHzNlSIEVVswK64mPeOFQ6rQo4xQDLhoUGagPNrxSWXSHfxwTQJCrX2YyZmmAgp2MYyMLfcuhSYzq6sBRtirccC9XhUaIInx6e80XNm4G1P97c/Xvxm7C/mIH3SfwJPzkQNTH6/3YaatbW/Eg4IS1jjypMvMIYFP3EuAgnKDC9CIvrX4dwXL1aDSJv31MtKswuAnF3oE1enlsuaGzPnE++vCvgYwRvLpYMaBHPc6/1SD5/ojlEpzR5Mo5wYb3sDAL8bUTnVU+6zeaTtWhtpWXM6hcN6HDhhDHYscp362HwdJjKfy4TZ+gxb1N++rOmek15xX6txCC7WDZ4HaBk+ePAnDpDCCvuegObWHvhNPKclcv2XA2aXANttZTjhKvenFWfe1UIL+hod9wRNeht3d6Rfvvx+JftoS/+Zbb03X0270i0Vm9P/8vB/Z3l6QMpQnCjK/Tm9414FTekfY/ty9Vs5z6CK9n7oGXZ/nblPp/Y8//mj66U9/0kIhe9PB4UEABMAYwBx7od+6hsdFdHz48JVI4Nd4RV/42XnP7c5IZmnXwUEFCgGoyiGANY8g5KyFPJgntzn0w4EH13xB23X7zhzCjbo2WpveFSD4xIyUPMpg7bs1w1ANIAZgBBDcOLFn9+23347JpFAIzMqkE3thVchqkLZcKfrKwVcFPjYHEK4YFobW0gU1vgAVbOb2ugnUSSiZ10EDO+u70r4CtYoEKxig/35de38BKsyNK11W47qWDLoEB7wTBq1GyZWy028NRO5eLyvc+bwwflfQs0C0eghdMbANjeznq2lnN+EW4IBQBasP5zX6rdWZlK2+I7u7ggqUQ+WJ3rdlDJfrESduBtWNaJUFB8dO32qA+HuNtqP5d+MJ71a+8TnwVaX32UED7UAn9QsaY/xr5jXy7vzk4MlBd72uNv1d/v4aY4WHkOug2Vxfoyc9Ow2QjwoM0B2xmmuonBDjGtDA+KMzcuWXe/GDRnKrt9wP3SMekY776MMPA3ixFZE+oVd8palrbOEGnDJuNzzyGkTBJTtQDx72+/leHgrJglz06qu8tq+88qp83TMgcdq7oQXYpdFrLv2oRZb6x3kTOcx51Q6GrFngfOgg2oEFW8iZj+SVBDwqFPX48ccRQhHw0lZHNY0hrjSi/6IhVSTv3XsQRpS6LswDwL8afdr067q24GFy02xrI4AdfpLmito7zUbEb4VqGtiivRHf0oc6TvrOnIku8kBp4RygU16hzwIQ7mL8/d5Vo0BRC471bZn7CD7C7KBBn6XoJTy6T8wq4QmAoLrTbRUSSHVSAY10d7FyY3XjxtAnc3Tdlem8SmkJnq6s9awrOtqaJ/eGXQzcpzZ7HYR8+2wgmlKjT7xjbWVUwQTPXVwst7l4O/oMnUCcKiTC+FyQK9OvAQc3JCM+EkBgnFUh+HUUBm24wqh8lnQUJbWlsfff5xivgvqNIEkp4E6U0KgdgBCrCK7jUaIf/hv+xTiQO4GA6ll/3ud5bd583mmfSo1OkwXPfFbBbc/V+XD6OThVvgLFZzAMAAQ1pbFSuhkPHTzlgN29cs6XTltkxfnKjfQIoI4MzYjObuQdBLixUlvoAn2eFXo5vtlpVVd2GHTxGmFQXaNuiIyR2r13/950dZnHN7vSJx+KvjAWX+hUOfF7GI8DIfecIg/yIChHQf3BTS3Qcn6RpdmZawdOvmDKcct7kIaOOa+87AtA5NVpjq4JuS7FqRQ3d17IMU0REvjnf/7n0AGicYQXVHjuqpeNB2TircLrTHghQ4vdS40HQffhiY2ieLabzW2KgwKuxzXLm4CGAD5feLmnOT63Qknc63MK3V1WqvjTH4Elzanu5QyHeE68/VkAwpqhr4qpdsgF079zIfa21cmRBwHG0qRoYPrRJKpqV7qSlyEG2ofAGD5yCrzfIGgUHkT3fqHMYVpfeek+lKGExo0KbRzKVd+ORnbF5OhwRoQty3zNaLhwVfp62yMFmP3pBpnx4HJyo4lQUgehel4WKzKbXDfcbtRdccz0D4dfLyetNhWLzGS0XOmgFLytm4wgfZCyuZou5+OTaylnFAS0Z1sXHgeEV+3pGgqcYmBrNPC+AhLwXqCURx4Y5ozfxKF9zl25u7KE71xBuWLdJpuVV5z3+TySC7XJypjPbkBFXz2H21Z09nCMGwaAGrLmSt/l1fnLvRvOJ64kfbU50ld1XMy5G36fT+5HT8E7uqd6pmiLRDGXNw8pSCyfPn0Sbmzm0Vfm8JmuiUdJeCW5FWDFHOh91Rh3eU55c97V8yQWsmVR86Br6hPeWI1PuxhOzlQfZZlJjwfX6Zb3yGPSqqe2Lb8VZKXcU58lfKjRR9dvDn6cPwMk20IqnRPXk0I0Ci+88eYb08nLl3ky4v5u7GKoc8jfAAQBMABtc+7MZwzp3aIN8wevuU1bu+ZAMRayDexAS//ewcX8vUpW7/YzXipAcL53OUHn0A6LZrwg2LBjnaFxV4CwzQi50nElU41YVU5dgXdGgIFRGrSHEnAggDAqD2GJPnPyIT5tumAiHK4sIBACzT2EJ0RYj1c5Goa5JUyeUMRRnWrLT390BY+RcKQY614r7+kKf02RV8Oiv6EbwtQV/fJUPRSJ+uCCCg329ijzvBRYVhzQEYVWjaYLQeWDmJ/rXsdhqRByVboGECqwDKCn5UFUvG3lWaO8amZ8Z0XCzX9O3/jcFI4UgH4w0ghZAIWTk/l0yuxjHsed1deU75BxVBShAw7o6v0fyZEbfFeWbrBH/DBSEiPZrO90Qznsm9XncJ6qBtvnn/E7fwMa6pgAGu4W1fOANvjZZdrDDM4nbrzc0xFcYO78kV6K9luCXpWduL958mgXGYa3tnnZfO7xHOg5GWGS4GSgqUgITVwnUtEVekAvX7Sgnyq487lBfjGKLJ4ACGpDeQe6ji5LV/RFVFJ0/qR/DpaYJ3kQVAuBhZjrjRHNMrwwBghVdkImGzhgHjJJ+SKOEfjpT386feUrvx1e5zhAaldu+6y34XLv/Vc7ePj0+ewsd3GxONW92AV0Ar+dN10nO2CANwFS9KMCguqhTFC4G1tM6aODkrrY9D45QIA39F61o0rKml+FY2Ih+6ff/k5UUnQCuWJ2ReEChLCPlPzatTUlWO/nPgy7KwPem+g13Vrqo5hVZ0jANO55WDOQKPsKejCSPsEYB4w1e23pO31mhaj+SMgFEjSZVKjUcwf7eR63K+o6aTBIbHdaq3ZlYYaoBti2Ay2r1GcPF4rRDkGKrTKGuLmvG08OTKSYUhq60ZxBNxcUFz43An4K49xWDkIsH8IbP6rroJro2Uv3p3BDeEGula0RBr/en4/pbIhrHQFk8UzmN8fazntoFSnpE4bGDcBc7tiqlun+VKocnJL+S82flKiUVJaM1X3nLXTTK8Sx2lRf5KIHxGTluXRbJh90L8rs4VGYq53yBl8xJg1LXp80GFEjuLl3+0GYWT04kwv7uPvZBJVPkScHndDHY/5c0/1xvdXJdt6Ht6tuudRuGC881jjAwTiyL5rE/DbAB5/B9yhQ5lL3AYDdKLlOq8ArQ1QZquqyEZXw57M/oh+KC8980cpit8FhtNkVhNzFOFUR8VxlgF8EbxCGcSPbd2l0wO+GgPbSgyD9kvMpfvN3YTzZ3g6dkAeV73XDxXwrvMBqGmCchdyW1VurwXXQSILiclHVA6m+wMt2lkWJXC7pl/IYFEIO+rbkdN6ZRv1k+vGPfxwA4etf//2wFTKCl1cX09GhijjlnG4Amj3lDiVAoDDexx8/jtMXAQiak5Sb5A9yinj/vh1b7n1nDmZvgOWfVVvAvPgz2ddM3GXByi6RkNeW6+bgIcEsc5ULGc4TmoG3drIcH4dtjbE4QKAjbpDXAMKGhSgXECIG623e9CzfOwp2ZcT3FMsRETTpbHXUu0HATBTGy387avPJq0atMqUrzBAuhRXaChNDgQtaAi/iK/kjE4amaa8paRccaO/Gtb6ngoquIHssTkyTB5gsvTGrf5ftk27kXdFCA33vKzXuceXrysj7yL1rQNF5xmnen4tPTdnlWRTx3ryhuVEFGPNpBKWCCx/DvGVx4KWp/XUg7eNm7vIQngyLOA1QeoAA/o6Qh52DQb6H/+6Kbme6blXl3DtDsu3M50YL9o/nXmoBwcx4J17q7umsndF3wLjcuLH0XQp9HMxJVmwTvcNw2MmHdT5drzifz0B7s2J4NOE6wWl8EHzfvVqVxwApvMvDixga+su4aF+jE2CZeaq8p8psnuDQ84WQW97tYF3XmG/pMGLBnI6KjqJPKWfpSasrRsaM0QndFPyVhcAwgNEm4dvZlc/BRDvT7v5hjNWBldqRm16JbLpOop4bVuiI/vRxu+z01X1PeIY/XB7W9ITPOzJFmEUGWzkEeKbkJn/+4tn0ve99Lyoo/m//6x8GEDu+dxyAfX8vTzf0NuF9pxcJys9eZD7IibZNn5zMNK2LOPj0cH8ZwoUO0KDyTpf3ftR9XNN8tFwl2tA72JWXoDDDFHiR+Iz3QXiL9ms/8IjrTfsHeYR00FAhhmqIfGJckGdK3uIDyh4m+SwAwd/tBs5jJSiFKOl5T9twElG5kNdVB30bMYYrfoxebcuVVAjI3u50fpaK11cXvqoi7hjmzFZHvA/l5xNIv124/N3c68K1s5MhA59DH2+9ruWlew2CFVvMf+25zwIQ6OM2oR/ds9FfE2ZnQ6f7xvwUb42PCwXsRnBkCFyBeD99vkR7vZvwl+4braj7mPJ0OP5BV4o8LVaau9fTuUIZpyetvHiuVnxFuwC2LfbqMuQlrDVuVoOpWPrJlYzV5WiTPj0EpfdilFA0GNukjw4Q62eKOD9Xfpi9Dvtp8OtP1VXMX57K1wEC9+H+hTbcjw6ZjbVCkZY45zwisHPRttq5Qp+VaPHAaicwAIH71Tfml6QyfwfeIM2RnpG+wEOq++hnKv9+lgFjBvShRzAWOc5+iJzzLvqFucJoXe8k7RNYptHBY+vvWxZAWuYOARyq7nLw4uOCD9yDsE1X0GdkZOY7JRm3eeRdz549mf7mb/4mtjn/wR98PWh5795xyI7qMGFcnR7QgvAC83dwdC+er/UoACRuvEP+d5dGGd3kIMR5ZKlPOggErNFX5hkQAwjw3A+1xXNJS7WXQAK7rM/Ir8sMc7MBEG6jwIeSO7joSsKF4bbPw4zbDEc1YkwoA0TZOQNGu0LX7VRCF3rexUTlirAfujJaxUNkv4/3+XaufI/iZH6m/LIiXWWQ2p8KClxhplCmsq80q/Snf9cNTKC83DjAzFXx3gUgVGRNP7xt54e5X8VdjPA6PfzeqvgQ6Ob5m5McHahCSzd+2wCxC/IsJ+1kv+CLaS8KsOgd1NgI110rHgVte19zf3edK/c09L5NcZCVAAKeM+fNLCyTeRL5k8dzz54Vo6euxbyQWEbctm2jiqqJ7QjcmC/9R3XOVDPtyOJ+yBcGLOjQ9tO7InIaVzr4+JHb3YNlCdiRDkA5xrxkdGo2zMgpClPPO9DX3zpqXDTySrLOZ/Bq2/8yG2n4IL4na20GCfIQ5qFsrkv9c5Vx9VHue/EMxy+Lb3zBEQZIlJfbey9j+C7TVPHUdZJA9Z6Uv36KoNOh5tMwX6fnl7EjjMTEGspFpgEOzCcLE/eQuD7BYLlXpOpvnq1tLATFQnt4XxwgsItA7xHdnjx5PP3whz8Mz8K7X3gnroWHZk8gW7Vd+mFUMTct90h9I9SDjt/Z04mQl5EnQjG5avTVV67tzUdGdw+O6zD4dLZBlmTp4MoBQo61e1DxBM59NO8SgCJBQOZ/zEDQqg17uJ1FTtBCIQYXWIx6FciK3OuE+d8wCm2xErkr+BgZAIgPA2GsRCQqW/mqkL6Eyixud19xrRleR7RrxsVppv5AT0d787vSkTu7erxPzhAudEnbfp48DFwFE4Bw1xADStmFEno4M2X7PfPcjanPufcLZXIXfhopVp/Hyq+VF71fFaAsV2KpZJkzB3+VV12pj96X78xMbj3LThroNwJ+Kv3soAMerWBtBjKRxyCXcfJYgoL0XKmehVZIuarL6+fnWUTM+4Li4hrvjK3Aez0rvoLDHHOaYPVHFTuVH4JsE7pgNQJQZ3wuOz5/eFiq12caxG5dhqvhEUCYlWzZV693K9QnF7m2p+rn1VdfmY6OjhfJxi5/ru9CQaqqaQNWa7qPMRzs5ZG9M20bOEMvsepF6atfv/zlL6P/SrRme60nQjvf5s6ePI5d7xSokLGipDLt6v16bn8/DWClsY+X1baevWjHoqtNzrrhHYAF+BqQ6m27HkE3Ag7ohwMD6AmP8Pw2e4Eugu+CjzTvTf+iewWcVPvgn/7pn6ajo8Pp8DC3uj969DAKJR3sH8frGT/eHU88BHDpHoEn/Xgpd8nY7KK3Crm6bwEQrOaJ60j0Dn2ofAjt9Jv+QUd+uwfBvR60mWAnT9/0uYL23n/CruGV+vY3vxUhhuhUy0yuyoHJWBOMNQWNskC5VyVxU3tr96s92lZREdU9QNG4QYsJkkED5ZeksrX3z8YuJXwGFggDk+sC7ysP6i2kEs8486xcYjXZ66a7MfP+uIJyhMpnR548l8KYyWjVyI7AVgjp4CAexumoFWV3V4BQXW8oBucx738FqA48fExOn9E8OqAYAY4el8sVZPBKOdOedt24j4SrG/me5Mc49Rs+cQACD3vb9HMERFPZ48lKA5HznMl87JrInATddz5dXOZRuTKOMh4yLJm8loV0Mlciz+6Yri9yU7hlgdNfp5+SAVUCfIp6Fb0EuIPMCqaghc8Zn1FwG0Apails/jg/+Ht2rjrolryrkp9oIVewDLAO6NGqT/OuOLqShlVuWKWCo2iObUusijpS6Fq+i78fmXBgEp8jmz5ps5zfzE/BM4AiVx8VH9ff6leVd9efOXcZytSc6hlt7xbPBB+3RFBWk3rX4aFWnMtE9KXOSKA3e3z2DoJnWCFTllf9ZJ5dbzkIcD6APvrt7ScvJ6+5TDgwGOmrqh/VB3JwZsCinIp2FLVooz5/9NEH09///d+381xOwzsimsmDsLcr0JA7RTiAz+c/5k+x/nbksgCC+ina+4Kp6mPmsKUgDOkP33hio7fjn2f7Rt0EDvhT/MjOeEggkCEowmjQZn8/x4rug8Z+sq7eSV5DvP873/p2BwhlP6xP8E0K+SZjvw0NopQqU1RjUVEngkP8DUVcjSvMWNvHqLsC82fr+zD2MDb0cSDkLin2yfv9CmvoxEIUBwpy1Acff1W61dh0+i53R/i81PGEUixHl1b0vs04jpSEKxB97wDB73cFxfxXxeF9p506njW+cwCCF2gkfByKA62jspytFKvhciC4afB8F0A3nhVo0I/qXYEOVdZy3qQH5PHIkJd7RnKsucMDox9H5E6qzHc1nZ2fRo5M7oy4igOSzs90XoU8DPJKCCScTddXWYa6ejAwnq7oY6eJuWbrPPhc+9y5MeEZZEC/maudG3IQqpxq7wA00TvYKqjsdWpOyACoGqAMnra9CSh8+ctfDoMhpahdR5ynweFFoWMaQHAA6eNARjJ9JxdaykOo9/tCAbCi/sjYqD9qR33Sb/bdu5wg45y3wiqWe/FeYbiYN4UY5j42IIx8QDPAgZ69vN4J+ukzB5OJhnqf8673za8zh9V+VJ3l/I7euK18c1/IQjs3IMarZHErkiegowOa5KEJr8D15XR0eJhbFQWgL6YAC0oip+AUdFR/Mbain3jkrBWFIoSIDfJFgI9LHgTXbxWouR0YyQP6B15yoMVn5BIvAH3RdfJIkvcyt0X3IeNsoRX9F97i6Xo6PDhMgFBR3EjpflaA4EZprY1qONyQV0XgSnVk8EeTkff1LUc8h0Kij47cHdB0wVwqZpRpovREoQirnuEQFfUJBHgt97BttXPBnftupV+rceFvVz7L+cp6AWt08HFpvOfNJTeipQs6SlxjrULs9NR4UIR89jFyL4JVQVD925VQVZbeln9XwZQrKhdef8YVJf0G+Dko4LPLTKdHB2euCBys+Ly4IFc+97+7yzbbx8OD8qAvDmCTBv1o6yo3mkfOmYh5vtSWYVUhvZjOLxSeOJsuwp2aOQi6ru1k+luJwAqnABA0JngF92RV/i5b9HubTrla2cUwmr+Qr50MfUELGV2tHn/2s5/NSX+6TwZDQEDlgrXn+7d/+7cDNOhcARkRaCJDDUiI8xx2exVNeBQ3tvNXGOc4U2QTqDOPor08BtIVeq+uyyCrb2pT16En7m2UvzSZ5kXvwWjrGVbALIYANlqQaBeDV9nEM+jyCV+rb4+fPJvPH9B7ZQzTA9Vd6f4eXyAFwGgA1vVENYxVP7mdqPplzR6FHKhUc/PWKJ9EQFEHgAkkaEw5178MT4O8Z/v7maQHX19d6qC/16fj46S5G2D1yb3BooUAAgdhuS51fQx/q983AQTogHwA7tC36DJW/QC5utjhe9cJupcDp0SPi/AYprcIHp7tUvM86G/AQiy8qwfBBz2a4NFkrV2rRvY2IGPbM6DMNUDhiri+qxpAJgbGvI1hQjEzXv7Wb8pxQnBdY6uj7u9G5jq2OY4Mnys/N6B5Pf4/u6pgoE3a3w4gwHgXLfxRjejanFLmFbq5InPXFt+7YnAlUOewAiXeDx1QSPAAf49AHXPphsivjfjaFSToWs/gBkZxxMrDdquEEmihCWWXO9/52KFvjjMTjJRsNlKcrnwxvkE7KxTlRsoBAgCOLaDwaAVx7imItq7lYThLj4PKlZ9nCIL6DSrJnQlhquWwrAWgd5DRDujGmHjVQJ9TV3DwkCvHC6tL4fNVZRz6eQ4CNFMfnF/1WSt1AYc40bCt1nWf+imAoImRUVXYQatnyXUY5/1eqt1Db5WP5W5QkqcAggNY+Et0onw3rm6MsECLaKHt2uorNVTUT/UX45shpKS55kRGjMWJg/NOh6x0iIwBbHyLb2/7Ynry7EWsqu8d35vOztNzgCsfoDICCPA4ffDxV308ko2RzlmzRwp1CRBU4CtfGhUlAWIvXjxrnoCsV6BnAogdH0YOggCi+kN+CnrsrgCh6m+1CUCogKjKves/Prv+AgA4gKnzyRwHQI1aO7mjTVuclXsh+yHe0Q8Ftsjbc32C3gvaCiBUZTyaqNsY97uAh23M4Ezh770LQLhN+zcBjQoqZHqFTquxQmHAWLxbise3qkV7UsZxBFPf/uL0d0Zxg1oZbLyCTRCx5kFwEMDYCTHUsfpqzAUfhUuf6aNo4O4sN7LOuFLAI7BW58uVS6a1Sl4AACAASURBVAVm/nwFFtt4p8beoCkGXsKiVRx70dVvPcO4+FvvlBKilDZGBINPnxg3fIsQdnC3PJiK5yqYmfkggEXfToay4Dk3+tSCyGflXuwUrtfiXnkHrs6nSEdoileB9wAIqgJ5lQfrKLdBIOLi8mz2ZLB9MpMl0wCyXS8yrLU7ooGoajRclpzH1zwI1RvD3wII0BujgVF2o8nqlux39VWggflUH+D9ucSujse9d7wADG5wq2EgxOD3aNx6J4f86LfyDWSc1D95FFSpMI5QfvgwFLtoiFxJ2SsHJfudRg4Z83LIukZ/4DvN2bYVJ/INbdjKJ3BwcZ75DvpRn9cAgutS+HUNIPj1z2ozfG5dbs5PT+f+kttxfJxu9TwUKz0cSlB88OD+JA9CFE26vAyAAL1ZmNzWg+D62D/f5EFIIN+9Tb66d4DgngM+z2GhpvHRKwIIKubk3oEch+rw9LwYZIeQg+ZCz1EEMMahJEUXzDXE9lkAgj8DwbcZbjdgbb20WJHdBSCsjaMalypM+t5dv34/q8caU0WhAxQksPoh4xcFlcrnIrar+TPdYGyChmrwKvLepOe4MAeM5+3pmjwIbuyZA/I6YCJoT0KfGz8948YTQ6Xr1W1He6x01wzGghesiNGIDyuIhLYObJhXvZ8Vq4MLVptSgvpeQiPFMbt2W16CnpewSZmQxOUAAVo4SNAzDhb57vDweJGLMlo5zHRQcZxWw55r8I3GxriWvLk8Jtd5GSUO7SKLoRxk5XPgPJL0u5iurmWscpcExoViPxhCaA0QcGPqRmvDwGxJUvS2AHdZv3CzXj/GfhFfbXOpfmsuCQUKEGhe8YjgPVKS2uHx0exNgK8XwKCdJhrjUMKkndiHMWdXAJ5FeQq0m0Krul/84hfhNdDK3QtYYSSYr+xb3x6r71mYaIxL71PmpAAQkL2oDniwP6+kZwCKp3MnCyHBS/rN1to1gFB1iOu8qrMqQIjvWyXYqs/W7M4qQDg7i3CK5lEeIW0LFo3j5NR2sqPa1I4GHX41RWn3BD+iv7vy1c/bAgSXXdcr7GJwG7vgm5LI6naSBYDLiYMD5w3aRCfAQ0vPQ56DoefwgoouAqWx8G0hJLezM0AYGW6/9lkAghNipGwqU1Wj4IR2Ze/KxJ9xY+bX1+73/kEUBwiuUHUvAAGjx2SC2plQlJGvjua2ri6n87PTeYIwOCNluSosbcfJeM4MIFgp5hCotp/dx73mQVgqmr5FdASOECTogddkNj4t49bnc7RyVCyRwj91/ni2rk5qLgbzWAUSI6rrGDMEDAVBZjIrMtxwDir4zN557klQ0ov7+PjkDtXqm5UtLt7j4/t5PFVz/9bfTi+1v394NBfBAgTRnywl7WW5E4y63FS38MIwqLpnS7ALGjZv1+x4YDdP1tGKBMgACQIL4aHIO1UQCXd0gAflM5ydh6IOkDQfaaw4et4fuzMEVOUFUFlp8Yvi/nOZ3WWJ7TQ+uXsjZE6uVNtt5LoKneBGPeWmrcIvLqNCHUACheqr9+ibAEA5gdABGnQO/aHkzcFWS+ii38o5EBiQF0F/i/dYoQuYMjfoFGQrAVeOwA1I8IeS8FrIEBoA5qqR8UUQACZXz4fTy9OzRRiNfBW9cw0gOC+hl9CLVc9W2dxmW9a+c3q4blCSonYxfPjhB9Pjx59ODx8qlyTBXdIrAVXMsz7vHQXdScoklEMs/vMACD5eB0sVVHAfssSCc5Zx22nSw5rLA7vQMbShcQQ4iuTrDib1PTyPB0XviTMqPLncPQg+yRX1jSaKTowM1V3v9zbW2nWhqYZiG5OttQeT+feO4Ebj4r2L92nl1QrJhNJq2d1SdrOha4VcxLxSluxD1/0woQsxz9X+1HmpYyO+3V3KVNBihZWjml3QDLJZAgzCXACmECG3uLWVmn0Xirgp6XB9tqTQUKot5qdnQ0meZ9yU7GNdzzzSzLaOuvet6s1c657QhIzKPLjc1plnF7R4ZKsEySFNUX88BqvkMcUt8xClPH8gf2S8T09Oo3yqBE+1yMML1FY2HOHKwTxsm0WA9e6z09Pp8Phe8wjkbjO9J41yTxqNRCl5AvYUujgKgICyrwrDAUKMoZUTdoWr6yiFpeLNQ2oc5NbPvhKfeSLsdDt5gPLV+rLxt6alRXLj/Itos22PDipL8WDBGtDQ/EcYQlsvzy+mq4vL+Cw+OXlxMp2cZYnhs1Md055JZ8dBS46PIBSjuQvJiH9ZuTLPQtgN70fbOte2YlLsSXJ4eZHued0vN6pAjcCK+qv4rIahlTwrNNFVnxNwKjEzQQSLAw9XOeCcFweqHGnJyNSuSA/Li2jr3j1tt8v4t94hI0WxpDz1kBNMOVsh7+MAo+QPHRcsQKK6CFlXA36LomySPwHUi6SPDEX0fSe3NT579jTmS1s+tU8+wkSR48BpilnTQzkpQRPVVFB/IwwFKOyZ+s5jdZGxplur0VyqnBRUcrD4Ts+wCtYYw9g1783p6cvpvfd+FDL8zjtvR//7rpQEOQoxJBDenZ4+eRbjy6J2e8H9CovpR7Uy1Gy663diB5AnKY4MPvKs32xznPvdCiH5ODbkvIWfAaBhU2wRMV+PwlkJ6giDErLI+/t5KqEjQ6emvVEJas2/xqOxBg82kCn9F4fUCYRvAwhuBNcM8DbjWw3sCGUulVphjZXzBBzJs5Jy5qtGtCpCn5yR63Pt/vFYleDVS+a6kkfAXWhCKbYjqsM4tcxrVqLOLLPtNjrcNCecPujvdIatc7L29xoNUJq0T38rYOPv6vZEuHy83lf3AlWvSuUf5h4FAS3r/DPGugIERRM7128pAvZD+1HYdZz6G9cuLtjDtkqh36zMqqCnEdKRt/szQEAJVOPv/CBF72PxPlU5SlotQww86+5faBhm1/hs7XO/ryc11Hsr7+lvYRtAHN8TdkEmJBeEJi7OzudVNP11IBRtziuqabpWnL1t53OerqGFMAralXGl7XCp+Jer4syRYc4iXHYhGe+ZxdXTM6I98gM/X1xkzkaO8UUoZPHZq6+9MsfAP/n4ceQhSIE/fJhH1+dhXQkWohZ/hBG6Z8h1GV6PDizSsEy76VkA9LAiFSDRda0a5WbWT+7i0Fz1svHaDisDmn1Iw5OgKGl4ddVzaZhb57Gq07bZjCq7mi0SbvkOnsWbqfGw4Do/PZk+ffw4di+Q3EkeEfMm+mrM+jk9v4571Rar5zDsLZtfdNFYpK+QZ9++Xo07fWTeD+z0W/TwNltFH/1eBwhLsCDgmEdne5hJzyrMIiA896flAAEC2NoLz2h8yCHPPLh3PO186xvfXJzFUBW/M+DI4K8ZmBGgWAMIayBhpGj83psAB31YM3auFH2cawx8E0DwNhaK3RQv7jryFKh+5vuu3UhWGjD+Ok8uWGvPrIG80Ryu0QwjW/li7X4SYJgrAIKuI6SsVlw41gzhaA4QOL6DfnV+ffyAAy9bjGJA2AQQvE+u/AAIuHUDXLQ4JwZH7aGYuzGjII1Wp+MkRQeZ8+dIbd283+duc95zRe0083uqwaWtmwx+3tcLiN0MJjIkAQ8wPxR3Yv6IzUdOw7kKPuU/kh7hEwcWee1yOtxvXiLL1of+oTBb/Xn1IUJgrfARhgxvUD6TI5wVuWoatPBR8BAhGMu9YUz00RW8PquqJWMBLOidr73+aiQlauX69Eluvzw5OY2Kd33bdBon/cvwVE80g4/1XukSyRQ5MfMY2vks8D9JpUrI1bsV6ojVZHgKtDNCQ0xvSdJa185nt7w8ERlGTIAwTcvdO8zzmi1Z069Vp2R/dcLQ8jwD2neAMPPJycn0o/f+ebr/4EFUpWTumV+1CUBQO0+fnUzPX7yYQQCAEloR7qkAQTzJHFe979c3PAizR7NLrutu+GioAzY8CQkQAH5sZUXXuDcs9Jjyr5qXlhwFzbFoB8+QvBvhJhVVE0CAkVyZVNTniuizfr6JMdbarYqvKvra7gYKXfFE3HUc2wDCTW3xLPF5EJuEWpOnCYLmDhCYE393RaDOTCMlXxn5pr46H9R7AQhV+BFWv5958PlD6es+inR4JcORR2cEmJxnax9H/KE+ULGM+/Ve8g5A5u61yINNcvWGIYH23L9YfbYVLe5nnzvyDrg/x5TCXf95HxZy2HYx5DXch17fg90KlETOkY74tq7wULp+f5U7v6e1PLe/BkLm9nYytOPzhgGq+kdt7UfWfoYmHCCQ+8HcpVv+5XR1kXHzDKsIECS4E93zZMTcBZCysKclVvyt+T89PZvrmHhsfuYJ0f26h7HcdY4SdlAa/Gf+3RxHZtfrnwyrgLLGcP/BvdjWGIli55cBED744MM4IlzPyYA/euXVCEsFDwcAykRqjFl4Odr5ANRDcJAqD4J+AmQoRySKY+V5C+TbqM/QWh6BLMgFSEvvR7QZJypTvrvNp/Ex73E+qrZkxI9zWNFOwUw65ums3kbSsO/iQCZF08cffzR9/NFH01tvvjk90lbNls/BKlv9CuN3kGcqPHmWZ5uId3Q9T9zt3iI9jwcBcOk7XpBVfed9hB8EEKqurPrb+b/Lft/d4HZh+TmPfHbd5eAA4ECbUc+jhWqdf6q+YSzhkfvmn3xj4zRHOlwV7ciw+D3VON3GEG0zRiMDQ5u1b74aqgAh3qF/bWlQjVDt92hM6/3MEMNNtKrKVZMiBqXWeca4NncxjGjqDJYKb7lzoT6DYrntfGy7r767zlF91ufFachqCGGHydOtmj/VcG4aqJ61LhpU8FLnrCoqKURc2iEk7Zhi+nx0fG86PjoOZSLeAX3zHrXnsWgVnWKl4qEVxuq5JjlvHLqCZyBGPbu8ffxJkDR40BxaVUO+JiOuxCot+XvU1sj4uwfB6bwGFHZ2U6lDW92n/qeizkTF6J/+U55AHDqWzwCqnVf0WYb95csXWTPgyeOYy5cvn08nymWIojAqfJOeKuU2nJ7k7iHlHBzqNL+raTo9yz3+ymoPICEa7yeNcydCO/kutnxSNr3nlfjYE5Tk/YxP36cxy3Le+ZPARyt4GUAVS5Ih2t3ZC3f3Bx98EOWUY2V37970yqNXMyeGp1X4qBk53oVOc35EhgQQUkcksBToPTjIXTqKQSt/SjFqgRJ5L+Q5Sy9BgrNMdm27uwLo5dkf19eqCCsL2HlyxAu3AQj+3OL+qES4NL7Q1AGm6C3a/eS996bXX9fukFcD/CnMQL0LwB+6IkKLlwn8qIwoOqMv9VsgSr8jZ8pq2/iiRv2Fr5FNdLJ2MThA8MXOyE4tFyhdr3OdvuezeTqjAwRAATTEUxDPt3+pSpTcm3pHYxYt9EPoN/SY8nsEEEi+Mg5eoKGqaOt9/ve2e+t9/D1ClDNzDw5Z4jk3CJ8FIFTUh5L01YD3edzPDhCYcF9hVIVbmcKTFRkzk0v/nE4jpvI+9r7nypL3r41pbU7WrgMQ1lCxG57a/0pLVrEwPYLPfbcBCBgdEPFoVep0dVqSO0AGs/qLh0N9euONN6cHDx6G0DhvuMFiBZlqf/PoWFfcFA3qSmTTg6B2JNSuJFHuk04JnOsJ9CRI5wkHqg7e6nytAQTkt/L6JnDIHIQRoBi14Qaz8lDti56X8vJ26nuY9/ydK1oZNCUAy8idnLw0l3mu2HU9PRBXUx6oxIpYKjBX5xmvTqXrCwlAHooa3oXH4eHUSZqb5KUAGZFsmAWodE3t677YWneW5YsjH+GV1+K98iI8ffo8vAdKHJxByrwzIoGoh00cPAEcVTVQz0+7B4tENvGXeJE6Hnq/xsM2zDiIS3kacXroaQCCmR+bJygNSp4JcnWVp38yr9UG3BYguNwjs5GQWUpF6zv1i/ep76Ll+++/P12enUViYs7P1Txu8oowoIRUdvYUvslzLchBEi0BE+5BgEZ4tIJPie23HI+bAILr9tnGld1mVe+5/sILmnzYq5m6RwDvkcZB/kXQil0/rc8OLDQ29I6ei7LkD+5vhhjuajDuavT7xCey8qz4W7/bCDpSLtWIIuhryqwqNICH96cqW4gbzqiWDFb7j5JxIAJTe3uubNyAzQw0IIwLo3+9DQiMBNW9D6Hy/VjgFfe094txiEHJKnYGr2Pju3rdDZjPh/rXjWI3SrzXQxsjg+iGztE778A1KwUDQED5vPPOF6a33347lCmFfwAgEZs9V2GhntAmgDBvK2roXG0yBk+I0/upvOirgpmvSkGTGFscTZurQFc0ZJPzHVnsY0DbPU7+PQamGn2XmY32tLozEFp5d9n+skZB3tsOihrw2V64QvMefusvZdyHPLfTG3VN3gEMQu77p0BZ/k5PUe6UiB1EOpfi/GzOLwlP3pm2YV5Mhwf7sTVT+OTg8DCe+ejDj6YnT58FH0pxih+otOg1C/AwoLiR+1zVa5dE9iXyBhtAePHyeRgn/f2Fd78Y5Z/zdMcPY1/6gwAJmYNAEp3yA+BlB9kYTgyD+hlekf0MX3KEs54BFOgZ8oQwkgII8nj0UtyZsBgyfqmKm+ntSUgsaNC9n66Pq/7zPo90pfNL1yFRoGP2mtE+c6wxqtCVxqQjnb/4ztvtUKb02GAgNV9qkxAMc3U17c8FrAgzAAI95MBYSORz8IjMjvSiaov491XPpVynt4qfChD876Wu6ADBASreaL1L8z8vcJrnwO91/U3Ym500x0cHvxqAsKaY3FCikMIYN8M0sIPDS24IXKE5gX2yKkCoz1Tg4J4J2nHDxnuCkSJ0kQjbfzDgI6b3+2B4FyzvT233JhrFVp/Sl9ov75sDBOhCX7a927/TZwmTGAu3sRvjSoNQ6i3cw7tQdAgTK0T+dpBQDVudd3ir9pE+scJCSVJrXi5fVV+TElfi1rvvfnF66623YjWrLZDwBYk8kdR1cd728l9NB0dHgcLdU6BncvtUrk5RPupz7mTIrWrEzCmnzfWF8tGKt63U9H0FAoy3y8dN3NK/X+O/db4cP1t5e3kGSn67lLfNM1LCGNmOjdoHeMcNTlR71NY7hSUIBTQK6X6McyRA6vs4qApgkb/Pz0+mjz/5eFJpXoEFrb7FEx98+OH06adPozVczXpWK3wlwhHLhz+07UxJhg7iZNS7XCXQlQF+/uJZ8Jz698brb06/+Zu/Ge8QQNAJlDJo2tHAXnaFutidojYAyBgFkufwLkSy4/1HwXdpJBXa7B4BwITer7Emb8v70c7jiGTEpG0uAs7amRyZQBg6fZCkiN50XTLSiWscOhvFcCRtAgTmVN9Kft977734/YV33o6dHrwXgKA5Uv8pfkaIQACBnALRErrp/QB6XUOnEBaGhwFbVY/Ouucqj+RG7iuguytAQB9ke8scBHSkhyHxLASdW4VFD7UAIiMXa7qe7t+7P4PHfSXDLnIQthyQcntVkwF/q+zqmiQ+o5hFZITqLu1/VoDgymnt86hPMKsbUAQgSKZsXlvxMRZXbNzvv729ClI2FentKARoGd5tSLXXEsg75zG2Pe1i5Ipko08y7A2AuAEW00nBSIDCQCqxryUGZomDzhF6jvaDfK24ixt2AIK+J96KoOodgE3adePoYAM68D0JXW541YZWitpiptWbaCjFLw+C4pd87yCF/AUqsEmxPmgnBXIqHMqJxCcUBX2ivYroUSb0cZ6HvVypOcioIGjmr3Yc84gPfPUz+t55sfJwn8fxNkfn/eXncYntEQCJMVplxCqrI4Bw0RIQ4Rt4oMpivE8eg5fPJh2cltnvqktyNp1fnE2ffvp4+uCDX05Pn32a2/kuLqezc60CczskO2+YE0AGYScp7dyXnrsJums78ylyfpJ2eubk9GXUPxA/HR0eT7/1W781vfvuu9OTJ3nQ1MnLk+ng8CjASMSFmzcCT5bAEMf9amzVyKla5/2Hqs6Y4BX64DXQOHQ9wEr0Q94CAaosJZ7jykO6dC8ehOS7tr37quVsWBl1+LDKfeWnNa02Agg8mx6zHCvJnn/1V38V4OrR/fsLD5t7EDCGemd6clRJVvUjcqeMG/ttAMG3qesZN8gVpMs2/EsBgsu864RsN72K+kw/9LeHHPR85PrYKZfIB3lR7lmh5PSRQm2Rg2CZo7czQ9vvcqbwO1HqIEkm5K7vvCtAqMa39q9+Xz0IoMM6lngujGAvFOJ9W6ODtwfTQ5s1ZVhpdJu2R3R1FM+7nel4fwUIvlpzfnGBoEwtRTuYXwy/G+s10KV7yQNA+FCMnHLnoQwHCG4sGYfTl350RZ2ImNXl6ZmOPM5YnJTJa6+9Eb+liFAooG8pCa38UO5q8/7DhwEoODqWDHFo54bfaT4CCq4U5ucaQKjAzXlnno/wNCSgqHw74os1GVmXnZtzEJa8nB6PHjaoz8fdPWfG7t2UiTQQKad5dsRlO28iz5Hg/Al2c/QyzLF0kVG9PJkuzk6n5y90iuLzMHxKuhNI/MX7P50++ujD6emzp9PLFy+ml2faJbAbBWVk/MWH8iy9+dabcSSu5l68cx4JfQIdMrC9NkryYO4aEH8oxIBh1j5/Vu6qdKcdDb/xG78RR/PquqoBKmyilS+KPozj1UWAF+cTZAf5FF9FDs2xDnu6F0ZD/VNOg5IyOdRISZkCIuJngEf1ILDkiy2ac1J27prRroeIja94LtE5LpM36fwKEPxZ5JdtmT/5yU/C2/KVr3xl2o3dBNm62mDbp3iF8BALDNHj5WmCRACeG/ORB0H3+Xk0ojk6YaQXPy+AAD2Wiwc/kKkl07bBEx7BOx+75Frhrb6NO70veDedVtJvqvO3840//pPhLoabJnDb99sAwpqr5S7vuytAcAVzEzhgkivyHSnaYFQlgvjxjO1GN748iyIfAQRnrqqU1xT6Gp1H97vwRt8sK38EEEaGV/f5yr8qBF/Z1zEi1E6D2if6TfIgAAPhoJgL7kGAXEXtFOZ1QMB7mRd/lxQxCltCEooj9pTrJL9MGGTceqf6RzjihYrNtC1Ox/fvh4LXP8IMxP+YX0f6roxwbeo+XwksQEXb8+xGgXF4pbmgV6zAe+nnft/YTbgOBDYTEfPe/IdjyHlx/Ln35TZgRB6EkRw42ITHooy1bWXuvNar/Tkv7FxdTnvT2fT008fTRx+r7sDL6ehYoHB/ev782XR2rsS83GUgo3lyejk9f34e++UftyI84gt5md5++63pnXfejXr/skyqyKmKjBcX6ZVSG3lux0lMgSrYET0RkDw8yop++qddDOJx5SHcu/cg+CDPc8kVIcbp2bMnMz+6sicur7b0Wd89evTKdO+BdkHkaZD6iUz1XeUT5C4E8Y6A7ssXLyNqRcJneFWUZ9M8CAFAAkjhXZQekWcks+HhVZ+3Db1TcpzW9L4DhNwxyhbRzEEBDKnfyj3Icy1ena4uziMkiJzh9RH9KLcctG47TZ6/zJATugvZwmhCX/hH9CBHCeCDZ/PXARCczp6k6F5I9RVw454CbXMUB+g7AVX0nJ7VogigxLPaovlrBwhMvBvQNeS5jXm2Gf1qMNxA+3Nr16sHwftM27jqNI6jw/0snmKucoTEhQYj44jTDRbvrf0a0WfNTbx2fSmoqTjdALsh0vvX2qmGxulBHJQtM54s012+uapDmBzsOShh1Y7S0/06+U799C1G9Nv7Fe/SvxbacBq78dJ9uBalrKlFoetSPNpqVsMbeg8xS8ILgA/lIEi5a9sac+yGX2PFG1JBQAULS0XQaiVEDkJuUcpchIwrBg1aiWmuqwgTlSDX5Miv++JvZJirvHWQ4PUYloFF30Xj51SszYdfb0656KJfT7nrHgR4VbPt/a4gxQHCpG17VyfTyxfPAiA8e/p02tmR52g3wIFCDwILKmGsLZEHB/em5yeX08sXp9PLkxfTJ588nh5/8knkn0jRfvELX4w51zzIk6B6Bsrs1zt7HYfcQSGZUKKkgMP9+/emw6PD6dmzTFRUiVvtnJFRf+WVV2P1qy2JJF5G+3Fk9UeRrBnH+rb4eIQrTnJHBDkvAgKPHr0aAEHgI5Ivd3bjnaGLmhzKI/D82fMASmrv5FRbPz0HIZMU07twESW20zhlLDl2MbS+hFyX7cKuI3wut/FlXzFng/Hc1fV02cra05ef/1yHXJ0EQAjD33bAeOE5vSfAmO1GSvB1Pp2c5fHldwUIAAm989cBENCXric4udfBAaC5LkRC37R8P+cRtSueFDAVzUnUTMG7nHb+5N//8cKDcJOxBjUhuDfdv8YE1TDeRonddA99c0MzWqX691WR3MS0/v2skKYoPZauNxQ1qzhfsIU86Q72JLNKSuYf5W34yrC+GyUd5wqEi48q+v2ERp6RYghl2o7yDeSv2uxC2+3siBDEdj1oGa7a3GmCgO4fHPba+22MuROlu4wDAjSX424YKn64JwXegRd9i7HYPvKs4iaEn0oqXLxaAbUcB1GUVf48HzL8se2tFT9RHYO5qmEfI+0+fPgo2tQ9el+CmVxJ9cx0HeySBVZIxhRQUPIiSY8yFjIUCJvuRbAdKCC8h60Gugs4inZeQdnKbGf3IPmr7WGWgYitS20eVA04jmqN8yx6EuMsA1a8B9dj5+HYVb3B/i4fPo9h/JXF3pg2jpTmsCdLQspzA3QeQD49Ah9DGWx1/muHOPOk9os5SD6yfBfCp3HIFPImj4NOVT2NOgrPnz2bXj5/Op2fZRnka8Wkz0/iCGwZ7SMlbqkmxuHxtLuvhDUVHLqeVIJYRyIf7B9GbX/Jk86WeHFyGt+H3Cj5UXH8OJ8k+6AdAhnrvwxe//iTJ9OnT5/laYJ7B9Nrr70+vfHG65Ewpp0UbG3TPApY6PhiHbcdZ3qoAmMLdWkzVQBQ1drXNrWHj6Z793VYUR7+JEMqoKbDixJ4y8ug5GKNO8Mj2tKo35S9do9hd63n7gXOmsBYwrPMmXsNOa0xnolcjKZbejxg1iHeTsjK/l7LBTlvuicXANp58oMf/HC6d+845C68JnvKs8iYuxJ/RbgU1gAAIABJREFUNW6NX0nHvvDrgDEBfwDP5lklmVgr7ihZ3OQ0qsC2fAXXXRhlZN1/78ZOj/X6Ns7fLArq/a4L1j47cOB8mgoc9uQNHdRN4L14DgRM9VlHZ28AhDUDiZL5nwEgoKh89TqbMFMulRYjMJSHEnEoTo95hj4cxORSCffzv+kLDHubd3pfXVHG3ARDbgIEhCXjs3ZgkZ1HjitP93AAUhrydjxPVFPLgi1u4F1YKjhbAgQzMQ0g+FhCQC0fhnio2pSxl7tXQpr5AenGT9CQhjiMRHNQ4C6bY3HN7VpXMOo7ZUb1ndelyD3zHfgw/8RycU3yW/2Ql4P9xKzkMPruVQjPRNuPXAECCgnBncFW5BS00w5j9wPFUvJ33t+AgTBbA4Uuuws+T5TQdhGRH7CmATavV2NfDf3ibwMII9BR5yVPlhn/cK/zmlbZoBXvV+VHWtzdTwN3eXE2qX7/2enLAAxnJyfx9/nZy+ni/Gy6kEdAPKBzECLRL4sMKfmPJD0ZIM2Z4vPPn2s//WUAoucvXsYWPB2IJMMV/LC3Ewc/aeriFMyraTq7VKGeDFtxjDj6QMZLbcObr7/x2vTWW29Or70mL0MmH0omoqLkSYJi3a/+6X2+ciaPxnN58EoAetmhU71jopvH3peGbVnIyOcH+nvYR8Cr6mDsSvCqJVMjO3oez6GAlTw5P//5z8O4v/XWG0Ef8YCKSu3tpY7KIk+XEXoQHVzfQ19yPTRul29CDLqGfomkzeZ1/CwAAcO/zcYCNlxmHRToWff2zrrBSowDcKpeCXAQ1WEz2ZX7mK+qb/bVZvUgjITXEd3nBRBcUXn7t1dPm3fSt2o0a5950g3+aNz+hg0FZl+qSpx/j5IeAYrcv71Zeay74Mfjqler4M0MO/VKhEshbl4Ai+XV7+uc0Cfop79RVjC7M6jTYL6+8CCsj41nlWlbAQdhBimoqD43TZG0pX/sGEgFkbFE6J4JWbkC0A+JSLqXVTwxRp7hHu53gcSbIGCCwiMbHAXrWxz5zLvwIuh3CGkT6hFAQAn476md3eAKYv7cKhB2WYqSeTHuChCqIU9lnad09jMut0tiBQco/NT8CTsW7+lQZHHdn1vI4ApAcF50OXb58Xbcs9BlRDA6T41MN7kM9WUc+HR+8nI6E0CIwkrPI/xwenY+Tft74RXIBFllrh/E6vve/XvT66+9Ph2rMqN4UN6uFgaSl+Dx409iZ0S6sXN3gBIY1ReFMWTgVZcotxZmshyeK8DCj3/84+kf//Efg/cV8njn3benf/NvfnP60pe+NH3hC78xvfvuF8L7o/tVZEltyiCqP+zCgVYeU8coAgZEQ/IcODNFbbhsjLii1bSadaDrAT4vQowrAGGkl5E/5Ft9CSD24vn0/e//Y4xPgEn5EjodU2Pf3UlApXCPPADyLnglSngu+7QTO5dEcy9Q5m54ZCzm5VqeozzZEl68rQfBZXEoXXgDyy4xBwj+uYYRRvct7onCYJnMOHqW6zOv3BYgMEkM0JXD0Ahu1y0b334ebTjxUd4VeFSl5hM7Uni1o2sgAoCwxuDLdmJpt2EEt5FsRB9H6Yv37mx6D6oSrmCnjqsqYf/b421uPN19x1zouTUPwmhu1A8h9PoduQKMg3irlJ1WB2wjZPXjfErMnmdj7G2rJkjaxwHI0DWMSxU8taE+6XlWY1LOHLxFu3OhGjttbQFMCMM0gUUR4UHgXq4LIIzAga865r5GNZ5NgEDfN/mNxMblN2vAeAwy2nHd5eyToH2LIzsv8qah7G31IOTOBTde1Sh5297X4NPdnUkOB+nh2FFAtoaKALVCQGcnL2IHg3YmTPLKRO7LVZRylqFWqWE9K5AaIaqjw8hZ2FMYqB1BLRChH4UiXr7MkyoV53/x4mUDssJw8iq0kxo5dredMyCvgAz+d7/73emv//qvE+C2I6SPjvYjFPF7v/d707/73//d9Morr01/9Vd/E/39va9+dfra1/4g3iFjJiCiH7b8MQcAXvEtnjPdr/GxxbEChAo28+9+KFjmiHS3ugOEvK6khbEHYaRvhVmjtot5LXX2hrwyP//FL6aHDx9M9+4dhRxqHs5OFRZM2ZUcCkCQ3MxY4IcERFcBEERbkhjpB38jUwHeGk1/JQBhUDa/6h7XVfrOvZKuN/nMoiT+lufKFiV+PwspcqP0ngiBVg/CmqFyxvg8AIIbvc8LIFSFs9Zn7kOxzuNZLeCwxXxHbFPxfIt7NhfZ0EnaVmk+5jXggaEbvX0EEEL5DcILIVwtaS8qJVosOM92X9YLd0Cg92RMm5MJl72BhncFCLPRa82F4dIKjKP0yqBZ3ahvAAY9I+EnIclDEiOe4hpTlQYi4+6gZxLCiFVAZ93bD25SHYY8EChyIa4yNKF4diqmdEOznczrm+fxvelBiNPSWo4B769/u4DLNR1JiZ6XoM8KVVicM8YZ+Qk9lNXHXmK/JDtG5YHNHQ43AYRtwHphtIOZu3cBPpynuXkd5utrOQiNV6vMjABLBQnQVpY9dvanIKSBiwQ35eQkHlDJ3nBpR15HxrIVassVfnoBdG8q6BxYGsDdmI9rlSSOnAD9vTtdXigh9jR2DuCJUEEmJTzq+wcPH0RyojwEWZPgxfTf//s/Tf/tv/2/0/e+9714p9p9VbH0vSkAh96nmgm/+7u/O736yuuZdHdyMr3zzjvTV77ybwO8JP+kF8lP7GNFrzFSv0TX8NLhzXC+GQFm0ZhSzA4GQm+0Es6Ahm0AYRtYrLol6fZx8LgAgkpXi26RFxM7KrKwkWfre995l/qjktYA+zzUq5/pEudjtHwo9M5pOzzsVwUQqpHHBlSgUO2n6w/0C9fQtRly7PrHd8A48EAnRgj0NkmKjiIxHo7otpjP1a+cEJ/l+dEz9A1lUd9RlRnoa5uS8/esAZn6/E2AZ9SvNZCw7Z2ugG965yiEoefTwOVqzJkxDHa7jpDob/eWONPCD7WdNQ+Cr4QXiN52gkB7FDuxf8IACD2V7LzPMPySRll9rAIv6IBCI6O58gfPofxcAfLueW95o6vcllRxczASuRH7Y4AAXRF0UD2/oUf8BiCUUyGVMJiJiuMEKQfPeY8O3emJjdW4juSt8r3rCfjBf28zAvX+NXmAJzcBQrQQr/DvUOxcCxqqHkAY/TzPIhIBlJnfsuBjfltJaxm/q4vLlsjbEhRjB0BuD4x6BJeZsxPvUplihVdi4ZBnHCRoF7jILYMRYpym6cXLF9PHH388PX36aRgz6mdoDOJBhRb+9m//Ng5vkqdMO2TkTteWyWfPn8Y4Hz18dXr99Tdi14PyX9ID1kOe6hNnS8CHeb5CrvIpkIQ3Qd/pH944BwiEJGag1SZUSZd+n8+R+kjb8U7RunlBKr/QJ5dZl2PmVvR68uTTAFWim5IuRVuBe9H8+Di38KlPSjJVsuGlQkO2QqetX/zil9E/L5lNQSnRCxnHtvw6AEKV2RE4cPllPtCprlt9gbG7J+9WDy9UAAGt51CoZEB1EG5jBEcKoiram5TKXUFBRUm8z11YbkTW+rh2/a5G+S7tMGkj8DEy5mt92dbHCta8fyPlPVLaNwGLjXZajgPGjrkg9MDfM5NejffdL4SAzHslCbbTHDG45BR4DBEFVD0JEmhWK06bzndZ1hg6oIhc2LgmV24c5rOlbLV7oBzkoBAZo/qOAiJ8oO8EEFyo+bwQaivTWpMeeb/TsrsIuwdhBOQ2ebnTZkSPev9d+RW+WGtnG79ugoGM10MvDy2JvrxLK8KsI7D07slXsLO3rzqAMy/shgeDMwao5NjyYQSWoyhRJjZme/k535W7eFqKbcYu5rMkMhyS92cBJz2SPKxdA9P08kS1Fl5EyW5WdazgAaOe6/L97/9/EVZTkqK2MeJBU5gBvn/y6dNIXNzb17bHDDWJXg56KTTE4UPkIgAg3O1Ojo28HfKoLOUicxd8Dl1GkbcALzrkqZWddnsx0q3xDh1D3eZQfddqXx4E9YOdEBpfJhLuTCcvTyNJMYHDcSQzs5Cgfyx4Mt/iPGpbIHNUyiQcA0hX/6Ik+6lOuxxIzyBvIGgeW0J7ESn0C/NQW0KmR7ayAgWfU+aWxG30pntqYwfa7A3L5EvXKb7wUNs6DyU8CN5JVzq3Mbhrxm6kQD4rQHCFpT7FSnZQ7netv2tK/vMCCOP2t51uNu7pkGap/bdOxRJxp7uzV6zLR/sOt77V0Gucj15AGwh4/DaA4O9FMTGGmZlvARC4V89WgMBck2fAO3mP71Zge46Dl2V/8CAQ0ySOPdpVIheyViEjZdBBRp8e5lt7xfPAoPzR6lIKLKvwZeZwNnqgWuctjuirAIx8RfhKiuv3yXXcc1mShnmmQ/LjNoCwpuByVZw7IvL3StH0eSvoZku9eJJ/F0ZyZWPCCERnB5a86vyoBEDRRzTJwkSZPMiKT31XXoDu8wqNaXQiNpAu6Zyi8B7kx5bDwxfsv79QUiMhCZfJdmBV+y6iFrHVWR4Zdoiwhbmt7GMrcav2GPkwmbxIUq362HNhEojosKmnT5/ETh6FDDBg2q2QoEIeiEdN1lWwKUsnS34ODpW0lwm7GCbANcmIJEeSgxA1B6IexGHWdzg9nXM+3OjkHCe/+zwCkt04bwMI23Qxbeseik6JvICQ/f02LslA5OlkJVSFCEgoZgGj3kpuNN0ABFXPBAhwIJbmgIqw0CxySJSTMvhx2+b24F8CEFK3dAVUAYIbdNEGXTLyNEY7oc+SVgAieGLkfYgchD/+P/79LLa8cI0At71+19XFJsP1N42AgCv9SsTb9jHleayx1gDFetub+8fp10j5UYu9trcGqoYcaReXAKH3pRrwOmaYaq19709+ziNUJZwAAm+zrtSCobcABJ+7aK+d1kebag+AQIaxf0e/PV7Krga+Y4w5pykgzC/0iRVRM9r1uRFtUDYeimDnCn1GQUITFHrfgpQInZP9AAMIefUmqB97DVBU4OAK4TYehHVA23nnJgA+ClltlaktOQVO81m293PVW+WHOSMJDY+B/hYf6AejRAKpy0GCxwRPCRCyXHr8WDIc8xjPXqjuQd8ds6SNAxlARvJy7b/LTHfDyy2e245Z9ek+fc82W6r3qT0BIoHNLGSUNQsEQAUQNF4N5aBV/1Qeg/IetLUyai5YYSU9l3kzqvKYXhauPX2a4YvkuQSl9MXd1ylbMcoNDwIAx8MNERpUkarmhWFefI6rDvTv6K/0kDwj3Q7gtNEW0sMI4ShcI4DA1si6+4r5VS6JexDwVGrMgCMWHACEKj9r4CCuN7pXnbPmQdjaVgkjivLoAmQIw+/fMWcAV7xUXPekaNdDYqYACAvEw56VohnXjOboegrdpmpdM8hrAGGNWN7yTYrMjVDt0V0BwhoNYovYgF4jI9q8ZiO7MwQs2/pYmS4bHQOETWO/DpC8c8vn2iFJu5unq/lcucLfG5T71fdrYSLfg5H7xJOR3DWP4nXjT9Z1ZX6P42uemCunHX2v87tGe4xSnnLXhZT7NbZF3LUpWil3Eh1jFagCVXsJtipA8GtdKfejpR0kfF4AQYamystoXpm/EX1W+XXLroRqSNMydQNQDYj+lrHRPOBSdZqTo1K9TijN6H94NFTAKT0bLQowhwIIVYURs8TZkU6qIEZDHQEb5y83juHdaxn+6bVKfaI+sGOHegic5UAyoap9pidF1VwTWGQy4mEkH6rwUzoz+rkNDgY4SyQ8L5cqMHYWXgrdA9952K7yQxra3J7pY46CbOZJYyyXFyp2VM+pSL9LALZSihlQAx0iDyL0j6+u8/ksQ5UeBIUWRIcoPtXqSLhe6ny6G7UqoDlbogH0yKGejRCMElcHW4crXWa79BkAwrb2q66if7zPAVzSzk583FOp5Z6XxEFN7j1Y6CFCDDcZ2TUl8VmM70iBbENTI2Ix0Tf1m/vWwiafD0AgsWsEEvriZEa7mqKxw2HVozFCE1XZdObviWZ9fJshh6rAhohlYwWXh86kgPatR26o/bqUwv7gwCA3CPW9qgzoP57TwDw68ELp+wrS512Czj+VH5YhiG1ozQU8v6tV2lMSD67htcCO+pH7/PNpdhD4DgxWKLNxaUWMYrWnrUa7O9ORkhSVNV+2OTKmen230d2v4yJMGfUQg4xfektG/yrdMzejx0pvkq2qyL29kVwpxj/k43YxPfrdJX/VPDqj92BspDdi1RxVSHMFrB9i6voehT/LX0s+jHX/vB2z7a5oYZWsqJdhgPBgDaN8y1Ce8zShi2WYLw3YKGySRzh3mWJ+E4D2ZGHmR2WhtTKWwdJ2S4yodkrofp0holP+BA6ieqIBBPUzy6znSYi5ZfM8PAWinzwKFEQCCHu+h9sC5kZJiqMchAqUM1fkYtppAAHgUXnHwRPfUdkxjVlWge1HpGcuSPLw7vTg/qO5LLvakiHUGOn7Mk9pJzwI8Lvu1TMVIOiaAwR0keukoV266kdrwyNqa83mjezdmgzDM3g04edR+CB4Soe9BTOkDmSMvBM+mhcc4kkOa3LFvqk8tp/UtWZcbnt9DYBUJeVGcUTItffhVpzL7MWNHitFePM6iWz1flZYy+uhzrcWmHFjLOYeOWnWwEofUyblLJlwOYZUSM2FauGT2rb35+b3uiLV+l4KyTSmbTujxGfg+ab09lbQEIJV30+hJBcmR8nOA843AAm1h3sThseroNMNdyLMsORnwhhrq4ChYStABqVWFagrQRd0uX2PD7QveekVAPww5qVnIctQ57b8PMktt9plMmWOlzyLdYAwBswJMG4CBtBijW/WrgMQAF1IXIy3gYN5zlO459oJ3qb6jitcisw9CChMGTgpc7Wdbvfl1k7tUOCAtbltrb6bhOX9Ce5z+7J2NYzLRC+BgYUYmqi6rFU+mr+7Yl2X78sCTjvhIic3QH8DdlRiWEY5KwX2sZ2f5eFLJOzltlutuNOD4H1Ru5nwx9bcvTCieA/UVw7wAUBg1Bygp6cgQx3evkIyF61wGTIQtRYsxOBeGvjXwYE+Bxi/vm5no5xFnzQWeTrE63gH5MWQHGgB8Nprb860Y5XM7iK9B++e2hbAIsQAP2FbvHASAEGllkPL2vboNaMeN34GgOAG2z9XoIDeImzp/YB2nm8wykFwea+5CVfy1nzjj795PXLxOxNkFm5y/JoCWSrGuHNDr7qgb2uH98AcbhT9WjUWS+OZf+mezFZuRiGKFAHmG6KPamqtvzvXkeiSPy1DOY8fYa1ohjorsVXgMuqHE2OkRNfa6M8BEHIsaf9r/5bhhaHymldNyyXdNkXmfb8pf6K2c/O4lmxy0/234Zu6Mpl5MwxgJulgeJ1GlZ/g4DU+qww+AhoovA1hCCXTM8uzyE72i2S1pQdBq46262FXIYm9zCaPffs5rsi9a4lIVZnUv6sSSvnoW0BH8+AyvpaDsDZ/obDwZug8ghlAIp9KFGwcveXEP4Bgpee1ebWYf+aDewEW6sv9+730bjVUG22X2gsuvz6/XHdj5/xFhUmucX+fb1VrzDMBxKP3ju9HV9KgEYpSGOEiDlRiOyIgAqOl3TxK3FRSY4a08lwRaKffJCPGsb5tSy67F/Q35xPgoaIfgDAMLXkfHjL0bch8xutzdXkWIGHkcXC9KaOX/ZFXI0GMQgbim9DGtjVbzwlw60wMJW32+g8JIDzk5OBS1z999jTGKiDpeS2ENNEVeGzoYwUIVecjBzMwLkn1ziteWnpxvdjbkQxTtt91mvMk87dcaPQkRbXJWR/cC1CIuf7mn3wrchDWlGB2ODNu631Lw9FjG92AbSr/kYJfAw7c60xZFdBanxbXd8ax1TVlIxfw3X42qxduM3R3AwjrfVlrZzbSW3JBNp/tMcBtYx+9E2MzBiSbpZ+3zdlNdL/NfFejPCvsBqz420GCj2H+nEvbDVA8XoH35Li17+vYAJcuxC4f+ozghyCXcATA3hWH5yNEW61oV73Xx5vvvBtA2AZ8RnO4kHE70Kwa2/nZOFvh9j9XO31nk9pkRcu4dW02UjoJcVeGMxWlftYATzXmIyC9DVw7nVwnVGCh7+ij3qkKi4cHR9Y3jlPOLHx5EbSzQQWUCKnoeRk2Jehp/MrO1zUlt1K+GUOvv5V/4ImdGEh9h1GF/+jvCCAEWIh6EjlfePAieTgKQ2UIIBIdry7i3wggsPjTvYQ8BIaUNClvB1vyKGjEnNEnjV3HZHvBI12jNDLgm/vVn48efxLfU5KanQt4a+AfQJiHPAOYFFtR7dtdAUIFGlVOXdaTNzmDpW+Z9mfQcTXs4HrF9aHnbIXu+NY3vj0DhDXjnQKwubVw3dB1ZbOpFDuQcACwqbC6t2INIIz6O2pnuiNA0Kl9t/8hQWbziRFIWDOw1UD11npOgb9h1VBHTnRzdZq3oConFN+ozW19vAkgeLupVG4PENZpkL289Xy3QcE3CLKct9qCyBh8dTRqOwSnteXAZA2kEAOv36+BRSrQufD6sxh7lBQV8ZaehWWOAc9AL1co9fOSpssiUqM+r437NnyJgWFVjyLy0JAbzdWchZUtvwII8F41ym588RbINZ+gKxXrNt6rxpzxOjAYycU24DCSPwxeAkOdJJilmrOdfkiXPEnnF2fziYuZi5DJc3GKYyuYJICQhjh3LAAGMHYCCPrRe9lBoZCNwgz0BX6qNAWExfxFKKYnHi4AQuQd5A6N3MVwHqWWBRyQT3+/+kNf9DlLUz+Pewkn6TorfECV5jAPp3plBn243gUA8JIAgtSGPBQff/o4AAKHOfFMlT0HTegT/w1P/EsBwpruqDawgnrnX+dp9xz42NB9rhOqByG++/Y3vxMhBh/gpjHpRrASwAWDzyQ8ueKoAlgV7uj70fM3PbdUei0buKGsOom1ff6m9vfa9359bVfCmlG4TZvLe8YA4TbtVAW1prBuUmS3eZcrvKWyHKwEW0LgqN2b6Obfr32GnytAiLIllvSFImaffOVtPElrwKT2X+/DmN+OZt0rV1f+8LlvwcSDkP3OcAT8zv0jgIAic2VQ5STzD24fYlgb3zZw6YagJ472qn8YoaDjSlLjmndGAMGN2GhudC0NX4x+US0Q5XkT/1VQ4F5I3u86qoILp4/zVRq6rMgYY9QOF9sBxAFv0jcCCKrgKGAgI89ZChqVwgv6J0PIDoWI2VM6espwg/7Wc3qXewtkZLVihz/ETxhhH5++91wfz0EgnMH2Y9rP6xdxKFbNWSDMwhyJNnpOZy7IS0JRH7xA8DT91PcCR/fvP5jDyfTdPSN6XvcSangRR12fhNcBwJje8gQcJC0KTKj/8F/9XW0Lc3tXD8JdAEKV2dl+tfMWoI0vKNxD4F7FvghZhmB3vvOtPx16EBhgF4DNHIRNIAHaHed/j4y7K7iqtNzouJIb3ae23SC48F21/ILbKvq7hhhGcfk1RbNNAY2V63qNhZuM0BpAGJ22t27gC1xZWcGNgGLOx4qmH3T+JuVchceFsoIF+MGFJKuILavhLbdLLcsSszvB+a1+9mHIcxMbrW4ZoiLEMIOBItiRrDYXQ+p7vasHwWXIAUIFDw4QqixkgmkPxY3motJ/xK/b5tBj/YvkKXPxY4yyGPHmz1r7OkNxzUDD28sxp2F0r8+2eVvTdRWUuA6i99DJwxgVHKDfEqjk+R4CMt2HxbbP3OKngk4c88xOBL1H8XcMYCYxyoOXOQcYbgCCDCMAAdCpPub1zHPxlXelIwABow4tAAZ4DRZA4VJhBnkU+rbI6rZXO3pWyYMCBxT/chAM6KDfCQ50mqOOek4ADcjgs4caoIXKtAgQSecrv0H0AESQ3Dx7P9r3Dk5+JSGGeQGFtz05aVN+x9VPfZHiusXDDcvQZZ5YJl4THXTmx+xh+NNv/9kiB8E7UQ3MplLZLCFZjbqLuCOWkaJdM+B1JTjqh79no50SYuD7tRyEg3Y88E0GOL+/W4hhzcCsr7zGHoSbjGk12Nxf57QqsW0rwG1zu9b+KMTgAlZpvG1cFQTw7DzfLbYNjRnLbNjmVXLPtyDemffEk30Lp51K5/O2uoptFT79e/WBOPcmP6V3xeUCYOPGuHsKuofCXYeuPG4LEPyZ/Hw3gLDGJ9vmz1eiuk9j8F0IHlNeAwhrMhkAQScJtrCau1nrql1jlQGGxhikauydv5y/R16A28jVZj+WW4Vl2DnYSwV8Ls49PJcAIc6OyNKP8zkKAAR5m46O88AhDKjGoCqNp2en0/lZrtwBCAIYGFE8KAIHmge1wTVW7e6xgmaEA/AI6Dr5DvqNa573RljtWiGNZd0EaANgkzH/yU9+EuDgtddenWUIWSGJEoAgD0DWiMhiaJynoPsEmsiBwKugsQf42ZmiDgIgJwGRgNZx0MZBkNdT+FV5EFxnuc6p4CD1RO60qd8571f9guGvAGENSOz82Xf+gwEElORmvHdttTAy1i5oI8HxAfjgQDGzgm9JdrSxDWC4Qq19Uu310Y/aG/WVbGt/3zbDeddV8poSHdN4fQvlTcZ8Oea1ErjjFf4aeFpT0Gt9WQMIa/w0ar8CgxGQ3Jhz21c+P1/2+rsAOghdzM+onRUirM3rGkDA0TCSIXgPoyqjoAp69HlWUK0KZBVwujgCHw4Ouvx1PhvJUgUUdwUIjLHmHKyBrbvmIAgg3OVnVNzMn0cvAFq2eRdGOu4mGYffdB95GX07roCDTtfsXo79/TytUJUR5QLfP8hD1nRUsXIGMNDKP1BfZei5dnZ2MnsQ9D4ZTa8rwKqZEJDoQF/c6wEfOzhgHHoXHiI8BrSnv/FgXKqkdCsrDUiExwWOFPbQcx999NH0gx/8YPrd3/237SyLnB34WX1RH5VTJLkgh0B/y5uQtDqbx0EeAsmPABEdrKV8iCefPpmrSVIfoAK6GSAJUA+2ObotQYZu8oTVZ6q8OjCtMkhiscs+NKr8SjsOEHg3oDRa17YzAAAgAElEQVTAVtRo6Qc67fz5n/3FnIOQqGS8nbHXBqhiuAYqNhPlXGl5KzHAVhiFPcBVebtiRKCqoquIi3foHOy7/LhzEyZO2owzq8cAYb12xMh7OjpqN/vcT+Vb0OwuA9pSVjoV9ggkjF28a8BhbDBy98voZ02B3uY6AlEFeHX+2y6d3G2+WQxo2b/k5+iH1ZIYgZINSVgJv6yPaXOHBDJYDX7+nfNUgfLM5ytFkVxZ1HH0VeHmSZcOFCpt/0cHCIrpb+NLlKcr8Hr/CBhU/Tnikcq3/jeGT5UQVfgII6/+Zu0CFTY6mx698jD4QKvfJ0+ezmeGaBWtHxladgqEB6Gd0Kg59RLLLksYeF1z74GDGbXNfZ5HwDW8DYRvWLlHpdNzeTCyFoLvigNwaDzUYvi7v/u76Utf+lIc59wPyMr6GGgm5EAGTuPOsSiGrrMnMreFVT+eDt0DmAlZUD7H5WUALcZGgSj97WOfZedzBgjxHiu45jLucuf2DtvQi2e1ZOVFWHKZwEy7c75NVBTNQlIs2vmtsUYdiP/45/8pIl0cIDNaSSXh1zP7q9IZJe654DgqGk5A2TNalZNP9miVv9GfFYAA0EBIZoVYjjqGaGvGcc2DsG3VcVujSULVbe9fww1rCv1uBn+9PPNa+2sehLV+rhpTxeKtTOiacR4Z8t5mHCIxP+rKcQgA7uA9qILs/dsGENZADXLhiB8+2+DXQgwfi99bFb0DABKeNmXZty8vD4/5LDxZjeoabX7VHgRtc1zrPyDNQcLoXgcPtxmXj7XqWQys5lsr4KOje9NlHEKVOwDk8dBvVUbUOQz37h9Hl7RTgeJGal/Pqi1qGuTBYbkVUkYbgCAPAjF5+oUu0N+4oP2a08M9BhhdfQ8gGAGELJSUOQgcrIX3gkRCAZ733nsvDPbXvva1PD5ro6JkN9wyYgov6F+Cq/S0qB94QTy5EK8G83WhHRxXqhkhkJUL5Cw0tXlsOB7nWGZ8Th4E56vKE1WONwFCbnOs113m3eDz2cMLgIYRQIidIgIIS0UxUgjrcXB/tiu7zV0PI0UIw/VVzPLdI1ABQUdKcPRdTPRKiMEVZp6Ml6EIuVkcTW8DCBxWsmbwRoZsTSmOjOzajpDKwLd5/7j9u3kK7gpA7hJiWDOyTq953m0v/YK3bJtn5Tl5EDxmV/llg0d/DR6EbQBhyZ9aGY3LJo9CGCPlMgII0IDY7ag/a6BhzcBu40XnQVeI9Zl/LYDg43eDuE1mKzhYk80RQEB/eigjDd69KN6Wcfyz6eqKuU+Myy4GagTgLeD0QrY0qm/n56cBGNgpQNEfyg+PdJSHE+ij5xm4x0DP8131IJB7QN5DeBAuVPa4HwTFQk25FB9++OEk78Hv/M7vTG+++WbkTwA8PNyha+qjaMVx17kzRmWVs9ohRzfr3e5JoJ0ACwFArgJkOUAAGNUFbPz9KwIIvL/qQRbBFQgkny1tJvfwjAMEte9AoO6c8u9mkPGf/uI/L0IMVRn3vzc9CJnlXY+I5cjUTfcpguSAYAQCeGefHMVEOE89E7VGP97uQhhXAEIlOM8rB8EVWVWQy3dzotltTPQyS96fGBnv/L6evZ5X1+8f92Pt/jXFt+ZZWBvluP1xiGFb39f6MzJ41cCPnnUAGzsYBvUUVnl+DrcFp6xWzKz9GCncMd0y/FJBNvdWw0MdhOAKW8GsbZH0lQQ8s2aUAQhrYOC2IOEu4HebxPyqAcJNHlFX1gCF0bxyXwU+o7G5XhvxjL7P3R1p6JSD0JP78thwHfilf2fnp7GNUQDBz1PQ86zeWZ2fnuaJjRUgVBn3uYO/4Bf97SBA1z3EMMpB8O2N6cE4n3RYk0IMAgi4unn2/fffn374wx9GfsTXv/71oIWeSS/Cchsrxk6hBcppO0BQfx0sETbw8EgUbtrNHJDqQfD5dxn9vAHCdtuSXOL6YakrlvWG3L4C8FwH+GffRcT1IUD4L//5/1p4EFyB9M6rrOvtQwxRM7Wdq+4Dcjeao6I1Re8dd0F05nWUT/WrDWW2xZ3IBCx+mxHRdQRpDZj8a4QY1hTx3Qz43YHG3UMS4+Sxm4DAmjL2eergUrwJUMuS1BnmYl9/Aq3glS0AYUNYV/Jx1mh8d+OYpbKJergBQT5YPYVCVgZ46/8IIFR3ou9oGK1yfRxruxjWwNNd5++ugPZfCyCsgaoR37tuc/qujdV1nutZ2q5JijHH19qFkGEGgKGOOtZ3MqQff/zxXNiIFbOHEzLcsAQIMtzsVvAFmutV3On0E+AB0CS7n+/XAIKue5JinsWQoQ4HCFrBK7zwl3/5l9Mf/dEfTV/+8penx598Mh0fH8aZDnL9sUMl6Z67bhIgHAaNSC7U+wSwtOVR3pfsowDO+VwDQ8mesZPhUImOPcRAaILxu20CcH2eHoSQo1KQbRu43AYQeA7jv7ZQQU9Af9clscVxPtdlb9r5L//n/716FsPIePq1pYKxWIh94Up3ZsayHW2E1twYbyqpZSKl734YGvwbksdug+J81XaTgdhuvNeLTo3bvVuhpLsq4nBRDY6rvns7g0THnXElRZTMNkFYY+4lP6Xhj11fIWht33h+LMZ3eX78fIcl9i3fGak5c2LgiI8rr92VZjeBvPp9FJlpyVeSD48T11UANNZ1P+dh7Z0eUkPp6zfvqHK/VFSdctuAw+i7NZrtWHhnpGcqf6wVZr7rnKwtAtZkftz+dpmt+oY2ktbyICQAYNXMIVoZ37+IYkMCAzJwH3zwwZz5z/HWAAS1y1ZD3as2ZRSUwCiAgE5z/avPeg9gxvO9fBXvCzO1M+ccCMiqxHKpoMguBnkElFOgfqi/+rk8Pw0w8F//n/86vfrao+l/+cM/jHEeHuxPJy9P/v/2rrXJkqO41n3Na1cjCT1DIIEkDApC4W8O+Gb7hxpssME2CAn8C/gAshwowsgSGOuFHqEXeixa7e7Mzt4Zx6nqc/vcvJnVXbOzu0LslTbm3u7q6qqsrMxTWZlZ+SwdnI8D4/7RNZw8OU+z+TydO38+be0ghHGZ24vzNYql5FoObQTdLl26mM9oQKZHWkHwPBIwwT9jd3c7AyzQh+PAEEkd2zyPANiOr63OLtA5oOBK5RtSZrtyLp/+1d3B4WtYzID2Dt9Hc83KHzu/FOza72ot4FijDMFFXlwAWH33H74/wgchTnPrggSzAq8JDe1k2R/eNKmUMkXgl/83ty/YDjv5asS1BLZCMFJSNcUWKZJ1OvXKdBic8GCmSERd3/UCEDbrGJ/eqDy7OtZ4raP9OfT2DaFicMCcBYhrPINA5o5ByCM5E6ZxdF0JwZJ9Zm3LICfG2nhvn+RpNUYd/+mqa51/W6nmj53Hw6Vk79WOX7oiVT639LJOSQQA1uJA5cDVIPtJ4aft0mvDPBxbqkLZ8AUFCB4vk4eKEgJI6H1NOM5c0TJNMpQYFD327GkNIECAEr2WgQQTJCGK4eoq+U0+tvjwMHMUrUy0UJCPOL5qPc0meUnfzu/0O1DzPS0H3CKB4uY2A/qnJyUeXP4svf7aa+m1V19LX3v0kfTA/fenqweHeSulHE2NEyOLx/1hTpy0SNs7O2n/zv00hfI/RmjjbqYd0jLDogAAwhwM6CP9EOjvgC2F8txW3qJhXgXQhAAhy7XOUXmlYHHcfQcWOJYE0pzNKttCZ9hbABDIZwoO0AdaEvR+vo6Qx+999wdrAMETBuvKbX0vVk1lvSClzI6dDlWwKqFV2ESCUr25tR620z5XWxXUlI8V35Ew8/rii/7Mcu4BQF4/CoP6ToRx/XWlY+92uYBGVxcp9vi6v8UQlR9awdmx9bx4bT4N0tauCDxeW+d1H8hZgODVP5qgTsGI73lkr76/xpM6l615m0IinyA5660rlpcp9LWZG0JTDnuLxq95JR8QMOrvWVkQavQcO6Y1x2JPRlk+XCmjDrQyLTWeJUAAneGDgHwBmtyIypCZArlyp4LEcxrBwL3q3lrRO7JhzAgQ0Cae92BBAn7TSTI7/snZCyXy4jArYPpBLBblmG7y4B/ffze98JsX0tZikR57/GtAAuno6tXVNmEGL9mCkNK142VaLLZzQqjzd9yRjjv/MuR/ODw8Spcvf5b29/dXR0TPkTvkpJy7oIrfAwgcGzo0ehaESQYI9L3rE115jsJ4vgUgZIDeyPc1GaZ8ZMvRAonruhWpiwacSTT5x+/988YWQ21FwJdaQZJD0LiY6zpZyuaSq26rcLGTxQoevb+uyPstBm9Caxtrk9quwFjWE2ZEjVF9NZptPrN58FUBA5sr0DHCZl2p+YAiFtC+w2fkaxBdjxVDG0CI6OsCUXN+gCpqv/x6DgQFpt57u12Lnq87ga116zwYAjf2HTWw5fETD3ciL9r22/pc4UFzpkndqqBDhQfqwD0qC373FB2uRTRoVbzRGaZfBIDgAUBvrMhnEOAMvaN1B7RGKCB8ELj6xdxkIiA6CK4SFC2LWR8f5kSgMsA1OhxqO/B+tSxw7iufkR/U6mQBAtpAkIDtAEwj9AfbAAAdr/zf/6a333orffmhL6cv3XNXuvzZpexzgFDIVU4DWAqn5ZhwRHjs7O5kK8LypCg41HXlCiI1jnLSJOZ64DHOaANTUNPnAP0HWIEFQaM+NGOi1UnT7tBC5UOUiSOJglT5jgUhAgi1udMKEDhHFQgokNAthuyL8P1/+mF4mmOkfK3i3mB4AQgqQO3Kyz53NgBBEt0MQP5bAxBiC8KtAQg+kWDa8z4xQGgDJq0ryljh6wFDpcUlBamfhGh9QvXlQ4Bg8iYQyK0D1tL3Gw0QYEHQyRwBjiFl7IF8zlOtX4GIHS9dRSq4jd6tc03bHfHBrDHp1FlZEAZExsZtX0b2Saei+qwitnTHbypnCxCwX43YfZxVAMc+TW3MVTItAlTOdL4jQKCfAXmWFoCspDofBAIEzqVorGg1UCCp5zEwxLFsUWBxVEIQ8Q8+FK+/+nL2W7jv3vvSfDFNB5evpJPlMifPK6Bmkk6OJ+kEYDWdZICwd74khJrgWOytrTznsY2CLQPQi2GduEcAhboImGB9Kc8ts0WFOSJU2Wt/ORcsQKA81KiBdZ3ny8WcGND4IGQwHvD9GD6yvGh5SvWr3WZgWS4OMlAAQPjB93+0BhBqStMqdAUKShSSZAMAdKmTPQRtBa8K283yfrbH3AbjADkkuD1BHwm5sUiuLmRu7BZDa9sjhR/1obV8bZVs36GKy1N+Y/kv4suQXxudWCOg26pcItpYOrDfBAh5ruC/DsRFCp/tscpc5yrnO4W7FRy8vhKQcqAU56xuQ0R9arUs/CUAhH5cO3k2RarbcsgQ/nFVS4BAKw5oCR+DTy58kgEClTF8EjTJD8pTIeI7V8ZUmGpatmOId1Dxk19qVkWbI6EPzzxeRTEUEIJwxZIOGX185ZVXErYY7r7r7rQHx8Jp2V44OkSa5HKuQvYbSLM0Q8a/WXFG3NnbzX1bwJqws5OtADjCe3+/tx4wKoRnTsxn83TloER0oDysDsizwLTU5Gcqew8gzLpsphy70wKEErZfZqgq8hsNEKgP1YJgtxjYni0kSvrhv/z7CR03tOAYYRwrI/Um9xM5WGGtQiv63rfJBwjoNAWaEn5oZRcBFk+BeUqgVSlHYZF+PXGSqpa2nGbFXkOtulpQham0rr2zphxrilbHqgbYPB6yit1Ozhs33mfjR8LQYY8+doWuFhQtTyVT4x1LY7sSwW9djeTysNpk0AKf896pme/L5SW5VQTMeT0Hq5ott9p4t1oQWvlviNfW6bken673PP61tFTgwBUdZRtlNRQwVt/IpIjyPPKZsf+cn1R+VHo0/6NN9FfAdwIL+i5QWepfDyDgPbR0cKwJNugkiOvM7Ailj9BDtBnRA7/4xS/Sg/ffm7780EOZh45PcBw0nBJLtkV88nkL8+20tbOdnYl3d8+l2aKkU949V86eAB3gm7C3t7OiBfsEYIK+ol08gwLfi7UF6auvrPpA60kkg+bB3pe3xVBot57pcA2Qd6e/EnxrFIPyyRjZrYsEHTPKOL6X5VROK4/xfnZsxjz+0Q9/fEIG1UqsArcTWqMKNgRrlxR3DMiIJk/teuSkaAGCoqUxSkcVRovybQMIcWKlFoBgFaAdL9v+mMl80TpGgGIFi/ChIiQQRsSjjvvY/sjJ0qu/JoQ3+Q8Trw8ZHaPwir7xth6Y7MuI+e5wpxsFHGo86d+L1GCcbMmrZyxwQzkKEv61gkgFHpWOlqGpm0qE7WEbqPDyigax7bNuy6jze9A5yVWt16fPG0BQvyudmxsyMbPx+kFqurqzAIF0g/JFBAMUI64xbJE+CFz9K0DAu6m8OUZqpUA9/N0CENQ3gfXjr6ZbptUCMgJhiGjn888/n9588830109+K+3fsZ8tB2lyXE7lvIbDn5Y5ciHzxWSOPbzsnIgthhmsC/AhQErq5TI7bMKyAACCSAbUDwsCj7RGf5mPAdfQ13LY09GaBYH8GM1NtSCMW6z0iIJAgABb+QKRVLAewMfC072ebLSLAA90cw4rqFf+WgHyLmya8y1HNgAg/Nu/PrUGEFTx9ATIV1eZ5CLFv+pY98UKE2+iWCDgEcLWY3PSW4LalWKE7uy7bw5A6GPrxymeG21BOD1AoBChElDe4QomigMeA0Ai+vQ8MgwQLD/pao31x+Zv/yTNNkA4fH7BeKAQj5UqcMv/4/isX7Fz7Gw93ry3cxNmXB68ZsEA+YX147fG2bOu/LcDCCrArGDVfsXQaTx1ayVr4NU+F4Fi7Z/OFaULvtNRjOCLAl2VNla9cFCEoyLmH08u1G0B0JYrZtZJ2pOWnLsED3iGvMTxt3+1v7QaqCwgSOA2gzot4uTEq4cHuV2//OUv04MPPpge/erDObcAtk0AEHJSpA4gYOGRMyUeT9LR8lrJfbC1k+aLRVpsLdLJZLZS8OfP76+2DLDtgH6APppyWbdccJ9pqAlyhgBCiWLow1CHrdPrCQbV0qeyKNcjAMHOtYj/vDla4gJ6Kx95jWUZ9qzjbEHDCiD8+N+fzusquxLw0NGmog4cMAQgWOVtJ4aHeiwxNomV2XEDsFiBpMLFm/zeu237PBAxdK1eR2n7WKGdEwE5n7NTUm0AIRJsbA8FBgUPzH7ep9WCwPdu9ru+qrb8V0Pdm2NSP/Fv7Bi2KBeXWKuL129BqIF2VUCqFKKx0usKUDy60IPeUzbeNbvFwHZHAvnzBBCyU52XN0zCQXuZBtk7W22N4jqtBsrzvM4xgnkeAAErZ354XDIdDgkOSmbBea5XAQLnqNJfFeQYgIB3exaEHhQc5SyHKMNzJZCk6Le//W1677330ne+8520mJUtKmwrECAg1JGHNCEjIiwIy5PjtLu3l7cStra30tb2djpaFusJtgsAHGA9wHMACGgDfA247cKkUbpVcnBweZUTAjQmYI0WMOqkGM0l5X+GOXo5flQ2rfSvc1Chzks7t1SeWX2m4EHvKRhg3cpzvJ+dFJ/6yc+yBYH+B0oYJYD9Hgvszo1ceuIR0ip9K8hrIEH38G09ujpBnYq+I+FrCXtWytev59ZsMcRKqh0gKEhQIWJBAu7h2FqPqceMBctEK9mhLQblKbRtbdJ36U1ryjsKMT0r/qiDAe/u5liR38/CgqDjamlvW6NWI08W6JhR+Hl0U4WvvAThxL55QGSjPQExW8cqUgxtIK8tk6KuKgkEvMWLlmMEA5QjlD/D+RDfz20CKEcmRCJAUIuBHtak/VaFX1NOJHm0xcBkScyfQOfA9957Jz333HPp4YcfTl//+tfTyfIobyMgkoE+CCWleMk3gH7DB2GxvZW3FQAE4I8AUHBwtWRt3Ns7l7c5r1wp0Ql4RvNDcHvBbqEgb4Keamm3wixbYYvB44WIP2hBjZT1GvDNURrlMwZ8qK5TPWh1oL6D3608tKB0ZUF46ifP5CiGwnzTkhGPuaH1r4d+S0+cqZk9lsIV/vWAg/LKLg2uc/zvSshYB5ARAiRqlwUvWhXNOV71PiPlKbdRPBZAZ7PFcJYAwTIvrQbKfBQsLT4InoJao/UKXeeSxZe/c2Sq0X+t74TyJtun/3zrFsOKU9aqa1MuNdgQg7kxAqXGx7WFgQcWKIS44qQM6ce9CFJeZxiZHWMFD9oHWhBWq1wKTkMezqQoh+WtAAjlnZuWv15JFP5VeaPAwAp70kwXO4hegAUBypcnGqpFgaF+GuJHRz0qQYyJmpnRPvzucwLAv0gJHoU+l+uUA2qZYNpn3Mf3jz76Y/rd715Kb/zhzfR3f/+3eRrPOjm+PDpK13DaY96Hn6TFbJoms1lOkrSzu1tAwPFJ2t7aytsLsLwcXMXJkJN07tz5dPkyIhQO8vkM6AO2YRi5AaBEp0nSt/gu9IAK14csCPPO2lFkeJcoCecFu3pwkmbzRfExMfyrwDjzPfTv6gSjTYDg8bFag3ReKbBWmZwjZLosnXaeZoDQbXPgGXzHv8lPf/L0RpgjX2YbpRO4hoj4civqrALWkETt4EY5J23uWIVcUzrRe8iw9h3uSjYfZeBPnFbh1KJIorI5uUVNx5h7UT3RSqo1DCdqipr5hppbU35eO6PyrbSJ+jo0Tpavov4N1RPNnyF6nfa+157WNurctysZr10UyAQKVIKRfIn4xvLB0Nwb6lfU9hov1gCY9l2FdvkO03+/oFJLgdZJEIG2YW8dToqgH8zpUIiIagB96L2PFTSVIsqUuP8S+lhzRkQ4rWchqs3ZNWtPd7ASAMmfLlzI5ybgnSjzhz+8lv7nN/+d7r///vTYY4+utgcY5dARQtIZz9N8sZ1DEvNWA4543trOTopM+LSXtx0WOeQTf+mcSPCE99Ixkf0GLfH8xYvFydP2d2jOtsxxBcGRUvd0kfKoZ4XjeGi5yKqA/qj8Uz7Wd68BCmRSJEAgorHmrhWDAvEiuUO38nKV5YhVmZ1EHgipgYUxCn+sYPWIhGcjgOC1C9r4OEiQOSSkxrazBQy1KsFbBRAiADI0MccqP69frbQ5DUAYKzhqfHxWNBhLq5piG1KkEQ+vLHmSu99rjyodpZ3n00AF6dUDBWTnpxV8en8MQG0BnxYA1GhvAUJZiW6Gw3mgAnRB2xG9gDTL+A7FD6AACwL+cruYCYBQDxQnn9VQRtzbHCuEGJbsmfhHOkY0w31VsvjNvAgEBriPHATP/eez6fDKpfSNb3xjlWeB5TWD4WqsJ/O02Cq5DpgPAt9zfZ2FAL+h7NFfZFEECMB31AHa0HqAZxQY4fnPPvv0hgKErJi7o9lJJ17zZMUYxU2+0PFh3RFQzvVKTmNX92EngQ6Y0IPIg/D0U8/kVMucPHZiqoBQxlbGscJOzSfK5Nr4vt4+JM5VwM7BT2eleO0A8XftqFlLDxiPvogAIRJwZ2VBuKEAgac6mk7cDIDg8XDU19Mq31bFP7a8156zamOkXKL97ghocXVs72ssvtdfK9fGAIQImA/RZIx8WhfQ/VaWyli0WeUsrStoO8AAVsy0GOAvkyaxr8wmyIORqCCjkNOeT49PbUFQ5UWQQKX8+uuvp+ef/6/0+KNfSw888ECCvwRAAbef0PcyLuV45uxtP9tK2zvnsqLHfWZgBPAACID1AHUAMKHfOJMBjpvoO5MxAQhwK4wpqPEb17HFoODG6rUhsB7xqQcYtWyke0Kd1CUo0wgFgjvlN1/HltZEAIFtXYGyTudmY8HPnv553mKwAMETdGpd0JhyqzQtYFCmiUBA7bp2gOVahNnYCbuqO0gz7PXzi2pBiGh2FgChFRxE/FRTfC5/dGa2sQozbxw1pvy1vMpJHCmbsW05DQ1a6o7qH1KGYwVobWtAV6trpmqncgUIqmT1gB01F9cEZiv/1GSPpxBs/dre9fJ9tAyFtAprfS9BA5MkoX8EBNh2oCUF17l6J81AF7UecGytBQE2UTVVW/nt0U3Ls594Hx0VobSfffbZdOnSp+lbTzyRcyHQ+gFFTydL8kk5oGqRtxd2dpHfoERhlGOcJzk6Ae+EvwEtKgAEqAd0wAe/GdbIvhIg4C/aBCdFBQje/NX+klZWkUeLYo6XjqGdUx5wsPpQgSO+K7313eoTpLyfgU9gQdA+K49mSxQBQmQ5YOP1PhvoKXW9500QOwA1YnmTO5pkNQE6BBA2UFsAEBRd6jPHiN11PkPvrdFnSLhHdbeuklvbeBYAYahvLfdbFFgrbU6zxWD5EO2rmWZvVF9b6q0JxRb6oh4VoDpHIlCoFgQVepFlQfdiLUCIFBfbZZVYjUaxMl8/zbZ13nv01GgZVQSav4WAAd7+OM4ZAAGKkHTF9ctXLq/22nGd0QOkGWhKBal8agECnMBP44NgFQ1+ox6s5t96662cNfGb3/yrdP+9XyoJjOB7kYrZnwcpUcaWsMXtvL2wvbOXQQGuYQsBK38ABAIChnMCPDC0EUAB9EM4qIbYIg/D8toy0wb3EPXQYkE4DUBQXwHrX7KhewJ/O7v1b3Wjggby0Ma4isep8rf2ye4mTH7+zH+sHfccoRnPSWJI2UcT0BIlqicajFalNlR+LEBYtVOPrWx0UqwJ3BZhfBsgtCcgulkAwYKESDm2jHcNAJ8GDIwFp61tjOZs1EYFT0one93SkAJOV096zbab4GCtni49tAU2SmvWQ8UVAQftn323dz7MevmyxYB3UM5yO0Hr4j0ot/fffz+b6FX58GAmmvZ1K4EKhABB67WKxLMgDAFd0pdAhvRC+7BSf/HFF9Pvf//79O1v/03Oe8CMjwAPfBbAB9lZe1+DAg5m8+0MEAAAsKWAEE88h+0E0IS5IAAKeJQ1yuEDEIXvtGYwPwPKASAgDwLBkAWQ0bz1xjqyIFjFbfVoDSDYsY/eQX71FtRrfdJzlcWZ3YJ6BakZIOiEsJYC3ouAgydAoklkB8ADCtGzer1VaA2Vt+2InBSjerI4Ux4AAA8wSURBVDwLwhhBMkawR++80QAhbFvnrzKm7WdZZmgMx7zrrADCEPAd05aawr8VgKI2Z1tWya20qfXVKi6u9CKh6gluT26oslPlMATCqLQ9QBEBBG2rt+ordfVxRwoQoCjtM7gPJf/uu+/mVTRAAcsxYoGJkvgsytDUTdBAxaV96d9VLKIe/SNeYFkFNtzSgLXj17/+dbrvvvvSffd9CRmRVmcj8CRKtIv5CBiJAGvB1vZeWh4X3wMAApQDQIBVAPcBFGhNQJ8AFnAPdTBaAwABzykYAbgCQDg8vFJ1UtxYhQdbjjWAsNKhcpCg1asW6FqQSrpSh7L8GBDDMYvkH9JZI3pkDRh0ls+bDhDYWBX49vsQ6GhVFkPlbwOEsSotu+Q2FD67okNjOOZNtwFCTKXPI0Bga61lwZMdVlCqwvLKe/yEZ7zwP7RDV37evnIrMFJ6twIEKD4ABB7QxK0IKFuG/ilo0Nh+Whf4fqWbBQgWJAwpI9SpaXx5zPNLL72U3nnnnfTYY4+lxWKaJt35LQAQ+Ad64i+BTNle2Mr+BZPpVloepwwGABLgjIh6+RsWAvze39/P1gPQBFsP3NpAPaiPiZJgocBR2XgOYAJ5Ewg81QpSxrM/I2Oo77XVvVX2Cg7Ih3aL/2YDBEJU3crIVqCbaUEYM4kiQeWtBMYohaFVgTd4Z2FBqL23Rdl93iwIp92XHztWY3jktHV93gBCaz9a+GYM39v3t9TfUrbWlrOylmhfhoS5KnwV1vhOpUWloVsddoWF397KT022Ud+vByBAESJNMQ9iohMiVtIHB4c51XA5qbB46uekddPiC2MBgs+D5TyEVRKqEaGqXOESIKBeKHwo4l/96lfp7rvvTvfcc08+PXF5dLUcxIRjnLtQRNAMir44J5bMkEiOhCgGpCve378zK/IPPvggg4c777wz9wX1ow5YF7jlgq0IACW8H9fxIUAgECFAwFkMOu6kh2dhqc3XMXLa6jb9bQGCXbR6FgRt4xhZEuX3jLYYbjpAUCJa05kOzBfBglBTdC3CdQzj6btalWBLW/JECjo2hKDHMPBpJmBLva20aXXIbKVlq3Jsrb+1vEfLVv5rBXhjlLm2YUiG2LJUiGyXWhYsOKAQJkhQsMDVZRaa5rCe2uIlavv1AAQoffggMLkQlCnqY2ZF9It7/CjLVSGdFNkHD7wUpbNcDaNvYehHWZULwQH7jPe9/fbb6YUXXkiPP/54BwDKQVyIYmBEBQABwRYOYUIGP/QJTorT2SJvM2CbAIAI2wuwLOB32SLowxlhEcBzTJSEtnFbIm+/IHJiWY58RkhoOeb5qGmLoUXeEIgqnUkb5SMtF201kD66xdA8v7tIhlof1IKQefRmWhDWJ0VJwmGZ1KIsDzi0EmaovEVrZ2VBiATuUHv0uVYB3aoEW9pyGyDUxUMrLW8DhH6f21KWq0srXC1AsAsNClLKEe7Hox6WxV97wivr1e0DBRUWNLBduvJT4eopBQsWemXR5oMARQgLApQe+sKTC3FNQQ9W0DzlMc/dzoJgo2qs/KOTogVVIb9iCwY5C7pYfSoxKGAcyoTfd911V17xI1UxTvSmxYA+EXgWVg/mbKCin0wXaXevOCPSQgBwgN8ARCgPEADggLrwnVsbzB4JHuDR04xywLNoH8AQrUVst46d8ozy0FigYPVZxAPko5olgbyJNlleG9MeALPaR4Hv6rsCBIuE+87AlNbnSvCY31NqHnouCLXP3T0GIGwy8KYHu2Ve792WONoWdfqYTdb32Xu/FD+JcZRqeZ0m62+3gs7S4bQgwc8JHrNFs1ILqvqzsCA0ZPrMwqAMypi5txLMowtfR8GxYza23JDQiO631B+VjWTW+nzu894XGZUHZtUsXIPJmnPI7qNaeYNyHr9GplYqBlWwVpl4wpXtieRXDxDYlSJnaclA+CP6yuNDqCA+++xStiBcvQrzePHuxwfmd7aDDoIMIaQSVMAUj2svn4csCKRlztvf+SDgmYPDgxza+Nqrr6ZHvvpwBir7+3ek46Nr6fCwhDhOgRQQvdHNy8VinqY4LnyCA5nKWQuz+Vba378rWwrgfwBwgP7CCoBtAgAC/AY4YhgktlrQf5QFEFSAACvC5UuXM7jI2y/Zz6D8K8Cp9zvguOvfVDn7xaVnELaoPKG8Q/m90sVyHhLu5QPuARDKSVZNUiSX5tYRM2SSweSAqDVeHpsHwTJ57Xc00SIE6ilDi7wsJfS+TlZVtFYo2TZjwtEpiSsKOs3U6mkaFVFKBZAgCUlxzOFHQ5Vq/RwS1DWB/eewWlWan4bGvcANzsZYUyv9G1oUXa1drf4ZsdL0228tbkPtHro/hsatdcTl251b1wV3aS2u4R0EAT0YaMtFEs0HDzhon2xInMoefocsoTzxwEFNtuD9uo9PUIB6YDrH6vjSpbLFkHMJTKerw4lgNqeiYzgf2kt/BFzT9rNu62fBjUQPWHnyCSdvZgvAfJF9HSDaoMxhPYDPAbImXrjwp7S7t51wjPPhlYOMvnk648kxDjXCmQvzdDKZJmwzLPK2AxIj7aXz54t/AQABfBmYORHt5hYCFD4cF3GPuQ9gQSDNmLCJCZJAK6ZjRp9IFxvVYmmA456bPpKl2Mo35Svqs7noBfJ2Va43gAT6IJBPPR2r1/J3AgRFDSSARTljr2u5IUXvMRyv1ValpwEIdmKiDjKEWhCifaAmxjCF+0HOGDDfLYChR+seI4yhn2U0r523AcJ6qlGlUasSjPjgNkCo5aZoAwiq6Gqrdc7V+dyvvxWERZYFBWdahm2j8uUCwwMIQ/OUwIcAAXXzBEYCByi4ixdpQSjhi9iTxwodZnZ66euWCJSk/mab8Szl37ry8sMcPb7P7erkGFbsADCz2SRbM7CqP3euz3yIkxrnOJ1xeZLbCSBwjFT1xwX8AFwstnezHwHaCAUPcAARCXAAGiNaAe8AAGEkA8ADHRJRBgAB90A7AgRuMeAv7gMgwCpBGUx+I20sMODvCCBE8hUywQOJVhGT/hYgDFlmW/yk8hmjYtGwffQAyxpA8JDtWYGEMcrVEjKa3BbMDFkQhlZeXJVECO96FMimUOgBQgtNorLRCmVM3ba/16M0r4dG1/NeC0bxOwRDt8iCMDR2Y8dqiI9rYHvsO663jpgPTgcQ1FEQbaPHvu7VFnnQdqIq+7mxQhwI4/UWUlQu0d6+8qgnY/U+txfYP2tBgIK7cOHTnEmRORDotQ8lSnqpc2Y5LbKEFNo2euCLTootFgQNJ8T5Bi+//HJn4p/k1X8OPTxZpvl0lrcZkPh3Pp/l9fh0Ms+nM2IEARBQF/oJ68C5c3dkhQ6/C9SBf6gPq39YE/CBsmdeBJTF87hXthBSBhbMEYG/oBPAFK3HpIFnHbLyJAIIlq6reST85OlSew0AgfqIgLEmW1sBQgYJ4isStpvlnvnpz9YyKUarZw/9eijIUzpjlEeEsiLUqu8eAgiew5NOSjW56ISsKdAxAtenWWa5/LgCkzH1RcK7hb5jFcCYOs9CsY9tzxB9LD945aMwn9a+Rm2JJutZWW/+kgACxsSCA9BdgYHOz0iv1xYZulpUoezxpFoYXd4SU6+nWMeMHRUCrQV4RvvL/fSPP76Qj3qGgsM1ZhCEcqQlg7kPSCOPllZuUnFgW0AVY8S/pMP2YpEVNxUxjnR+880300MPPZS3GIr/wX46vHqQpvAdWSK8cZq3FWBBmM+28vbCZDpN862d1YobVgAc8fzJJ0WZI9QRviZQ8Ggrcx+g37CigBYAD1/5ylcySABwwEcdFGl9AEDwAMFZbjGoD5OnC1QHZd6GD4fZYrD8rrzX6iMFU0xxYs+n2W0spHScyXsTCxBqSj9S4i0r/5qgH1uP3ZsZAxBUmPA9eI4mPIIImuNqAzqkrDzF2fet+JYochsSPi00i8rWBOWQwBvT37NSsqet5zZA2Byl09LyeoBf/M42CwIVlCpW1K1CTN91FgBBAYilQWTqte3jcxYk2JW6yiN9F6IBoCRqFoQPP/w4AwTIEAIEOOZhlY1rmk55JeuOT9Jxl6BI26j0PA1AAOg+10UVACDgCOoXX3whK2xYAK5dK5keUTcAwmI2TyVKbJK3FJYnBSAsthDOuJ1mi+3cfmxXoI7Dw6sZIMByhNwHtCYwzTIjG/CbPgVPPvlkev/9D9LFi59m8ARLAp0zARAAHAAQlMdoBVLQ6IGkyIIQ8T0sJJ7e9AAjymG7hrxBwFibx6exIERzyM65zA8ACAVQrB9CYoGCdnJNeXZohKik1hmtc4wiy3U5R/eyHlX0Opj2PXYwFLmxDgIEWhAiQGFRnydMa6sFOp9+0QBCeOrhGHSxRsTxD5QTzvvPkEKMLAjj31hK1oRBS12toM3j46E+2/a0lh8zTzfe4T006U8sHEsjq1Q9Jd33p81JkWBDFXmNNnZLQ5VsTSZoH2orccqsaIsB17F4wWr8jx9+lD7+6OPVIUe4ByUIBQm5QiuC8ioVoNLetqf0HyAstiCozM0KbTpN57sTFbGn/8YbbyRYEB555JE8T5BnAJ9szp+cpK35Ik3L0jctT47TEk6UcxzKtMiJkSazkuAJYZFQ7rCWAPjAmoCtFCh39I+JkuCciOv4B8sC0jk/8cQTeYsD7QHIAIhgSCjoh2fgw4D2qcVA/TEon+34RQDBW+nnZx0fBE9B5/E3PgKZSlDShVxF9qjMk6gGjrXl4TUA2EUssJ8AaLPpejpv27YCEByUYwGBRUG2IWvlc+jKphmdCHWsgFgJBAEJHNQIJFgBPgRYvL5HCp5MY2mhg2MR+WZfz9YHoUbLMYCsVQG0KpjW8mN5oyaUIyV+qwBCKw0+b+Vdfd/gPV3Gow0gcJ5zzlFxxvxRAIInpyzQIDjw6oqUuM4lb3z0vdZU69VpgckKIMymOQRQAQPaycgIKL0PPvhwlRQJpnScTnjloF8le34Gx8cI3+tBVI0GURQD2qwLKIIWbDHgO5QwkiIhfTGyJmK1T8tOBhPzacIe+/QEkQ6zdPXaUQYIW4udbD3Y3tlOy5OSrhkAAe/78MOPslokIMDKH8ABFgbQAqCA9/AbCZnuvffe3A4CCWacBB0BpGB9QdsUICg4QDkLEEA/bA3XohisflOAwPGMVu/kH9rZPB1j+ZuaRPWVvmfjeucQr3qMfICylsdR7v8BVWYoyRsYOKUAAAAASUVORK5CYII=;" vertex="1" parent="1">
          <mxGeometry x="470" y="652.95" width="298" height="165.05" as="geometry" />
        </mxCell>
        <mxCell id="jJHSEbzzIDki0ik-LoFg-54" value="&lt;font style=&quot;font-size: 18px&quot;&gt;god it&#39;s the server area&lt;/font&gt;" style="text;html=1;align=center;verticalAlign=middle;resizable=0;points=[];autosize=1;" vertex="1" parent="1">
          <mxGeometry x="510" y="830" width="200" height="20" as="geometry" />
        </mxCell>
      </root>
    </mxGraphModel>
  </diagram>
</mxfile>
